<?xml version="1.0" encoding="UTF-8"?>
<svg version="1.1" xmlns="http://www.w3.org/2000/svg" width="600" height="622">
<path d="M0 0 C0.33 0.66 0.66 1.32 1 2 C-2.85478776 11.88988533 -10.33193853 20.92836247 -19 27 C-17.24370816 31.78207724 -14.88228279 36.19678095 -12.5 40.6875 C-12.05422607 41.53054688 -11.60845215 42.37359375 -11.14916992 43.2421875 C-7.0221548 51.01547095 -2.76000757 58.70939974 1.53955078 66.38818359 C4.41137304 71.52405029 7.26729102 76.66877138 10.125 81.8125 C10.76083008 82.9567041 11.39666016 84.1009082 12.05175781 85.27978516 C18.36802643 96.64997711 24.65075148 108.03860628 30.92910767 119.42976379 C33.40280984 123.91768522 35.87869977 128.40439543 38.35546875 132.890625 C39.07756007 134.19872786 39.79964671 135.5068333 40.52172852 136.81494141 C41.55609483 138.6887715 42.59052269 140.5625674 43.62521362 142.43621826 C44.57592031 144.15785775 45.52624582 145.8797077 46.4765625 147.6015625 C47.37628784 149.20668701 47.37628784 149.20668701 48.29418945 150.84423828 C49.42957345 152.94470679 50.50215243 155.08037132 51.50854492 157.24560547 C53.71516395 162.42391948 53.71516395 162.42391948 57.85058594 165.86865234 C59.99865715 166.13597954 61.90762006 166.06678407 64.0625 165.875 C65.57541215 165.85667952 67.08859489 165.85423262 68.6015625 165.8671875 C69.71772949 165.87443848 69.71772949 165.87443848 70.85644531 165.88183594 C81.13247083 166.44830477 89.35885973 172.63699666 96 180 C102.67078389 188.1971497 105.58555593 196.77937332 105.5 207.3125 C105.49427979 208.13991699 105.48855957 208.96733398 105.48266602 209.81982422 C105.16193265 220.89754431 100.75836376 230.10499187 93 238 C84.05376182 245.95221172 73.01599227 249.85730485 61.04296875 249.3828125 C48.21255157 247.76871637 38.1200983 242.38942733 29.79296875 232.56640625 C23.09776118 222.98306992 20.55294318 211.54561114 22.49609375 200.0703125 C24.16442416 192.66179441 26.87834731 186.4479858 31.23828125 180.2355957 C32.28330991 177.92579457 32.28330991 177.92579457 31.05639648 175.34057617 C30.50024658 174.33486572 29.94409668 173.32915527 29.37109375 172.29296875 C28.75476074 171.16084961 28.13842773 170.02873047 27.50341797 168.86230469 C26.81516223 167.63715423 26.12651309 166.41222469 25.4375 165.1875 C24.73975466 163.92030773 24.04331605 162.65239513 23.34814453 161.38378906 C21.25459094 157.5764554 19.13106947 153.7864319 17 150 C16.4107373 148.95086426 15.82147461 147.90172852 15.21435547 146.82080078 C13.08409395 143.03583302 10.94758426 139.25459129 8.796875 135.48120117 C4.18201408 127.37741993 -0.270992 119.19057811 -4.68798828 110.97753906 C-7.39512472 105.94569335 -10.13627717 100.94455741 -13 96 C-16.85520266 99.85520266 -18.5497353 105.44772394 -20.75 110.375 C-21.28238281 111.52484375 -21.81476563 112.6746875 -22.36328125 113.859375 C-22.85699219 114.96539062 -23.35070312 116.07140625 -23.859375 117.2109375 C-24.31795898 118.22462402 -24.77654297 119.23831055 -25.24902344 120.28271484 C-26.26348774 122.93963265 -26.26348774 122.93963265 -25.20068359 125.24072266 C-24.60634521 126.11156494 -24.60634521 126.11156494 -24 127 C-20.14848993 133.97207662 -18.93965022 140.03677316 -20 148 C-22.1831835 155.38495236 -25.78097255 160.8791364 -32.5 164.75 C-39.26403603 168.4099921 -46.06298444 169.10041913 -53.59375 167.421875 C-61.30161388 164.80500763 -66.59148901 159.87998959 -70.1953125 152.578125 C-72.86094828 145.03749765 -72.62073089 137.11122142 -69.4375 129.75 C-65.50397285 122.8592528 -59.61671126 118.56750112 -52.0546875 116.421875 C-49.65644844 115.9294609 -47.43965393 115.76390446 -45 116 C-44.62041138 114.77132202 -44.62041138 114.77132202 -44.2331543 113.51782227 C-42.80954955 109.45670153 -41.07522049 105.61706029 -39.26953125 101.71484375 C-38.54168262 100.11682557 -37.81448843 98.51850918 -37.08789062 96.91992188 C-35.94849137 94.41974452 -34.80517902 91.92169043 -33.65063477 89.4284668 C-32.53207438 87.008525 -31.43076223 84.58134013 -30.33203125 82.15234375 C-29.9831636 81.40951645 -29.63429596 80.66668915 -29.27485657 79.90135193 C-27.481584 75.89727103 -26.36975329 73.30203993 -28 69 C-28.89370634 67.09144159 -29.85760991 65.21493118 -30.87109375 63.3671875 C-31.44537109 62.31402344 -32.01964844 61.26085937 -32.61132812 60.17578125 C-33.21396484 59.08652344 -33.81660156 57.99726563 -34.4375 56.875 C-35.03626953 55.77800781 -35.63503906 54.68101562 -36.25195312 53.55078125 C-39.45916367 47.67532363 -39.45916367 47.67532363 -43 42 C-46.18342857 42.55022222 -49.25273526 43.33627805 -52.3515625 44.234375 C-94.52935917 56.4331541 -137.32499774 59.14048605 -180.875 55.625 C-181.65731995 55.5620575 -182.43963989 55.49911499 -183.2456665 55.43426514 C-191.91584485 54.71868156 -200.4743176 53.79743074 -209 52 C-209.28464111 52.74185547 -209.56928223 53.48371094 -209.86254883 54.24804688 C-210.8483788 56.63316718 -211.92368661 58.79376437 -213.19921875 61.03125 C-213.80540039 62.12373047 -213.80540039 62.12373047 -214.42382812 63.23828125 C-215.2690787 64.75110995 -216.12333408 66.25894115 -216.98632812 67.76171875 C-219.37720351 72.04448183 -219.37720351 72.04448183 -219.96484375 76.82421875 C-218.89237503 79.24270085 -217.83320898 80.54308696 -215.875 82.3125 C-213.29953808 84.7410924 -210.87869068 87.19673813 -208.5625 89.875 C-207.9746875 90.53242188 -207.386875 91.18984375 -206.78125 91.8671875 C-205 94 -205 94 -203.34375 96.5078125 C-201.37648811 99.26025348 -199.82773736 101.11914577 -197 103 C-193.50772165 103.39283626 -190.3529217 103.38531752 -186.86352539 103.19750977 C-181.11288534 102.88937956 -177.44459725 103.26295074 -173 107 C-167.24991817 112.43063284 -163.5982155 117.03795983 -162.62890625 125.078125 C-162.44757304 133.73945247 -163.76783386 140.25514865 -169.64453125 146.84375 C-176.43559581 153.09827447 -182.68457458 154.6069743 -191.78515625 154.3359375 C-200.26593559 153.44973213 -204.90924554 149.66097741 -210.37109375 143.31640625 C-213.84481302 138.37656086 -214.25308425 134.44144019 -214.1875 128.4375 C-214.18105469 127.13683594 -214.17460937 125.83617187 -214.16796875 124.49609375 C-214 121 -214 121 -213.23828125 118.83203125 C-212.76168326 116.7863491 -212.76168326 116.7863491 -214.625 114.703125 C-215.40875 113.89359375 -216.1925 113.0840625 -217 112.25 C-217.82757813 111.37730469 -218.65515625 110.50460937 -219.5078125 109.60546875 C-220.33023437 108.74566406 -221.15265625 107.88585937 -222 107 C-223.30065305 105.52872897 -224.59338459 104.05038398 -225.875 102.5625 C-227.84327142 100.28520046 -229.86327987 98.11927904 -232 96 C-238.61861376 107.60344653 -245.16973935 119.2363302 -251.5 131 C-255.81090795 139.00801975 -260.2015856 146.96365855 -264.6875 154.875 C-265.22060791 155.81972168 -265.75371582 156.76444336 -266.30297852 157.73779297 C-268.8654382 162.27164828 -271.45574516 166.78446356 -274.109375 171.265625 C-274.82734253 172.49949951 -274.82734253 172.49949951 -275.55981445 173.75830078 C-276.4523016 175.29148711 -277.35889342 176.81658412 -278.28198242 178.33154297 C-280.6135204 182.30900373 -280.6135204 182.30900373 -280.40625 186.76953125 C-279.16489622 188.73845628 -277.92001409 190.67212992 -276.5625 192.5625 C-270.71613569 201.74717292 -269.77071944 212.97613749 -271.6875 223.5 C-274.44055534 234.34015539 -280.4268471 243.37563538 -289.9375 249.3125 C-297.28136413 253.59131232 -303.81958651 255.54584333 -312.3125 255.4375 C-313.14628174 255.42992676 -313.98006348 255.42235352 -314.83911133 255.41455078 C-326.49769809 255.1041385 -334.84718997 250.98346663 -343.12890625 242.9296875 C-352.62344557 232.89310266 -354.50634536 222.98716076 -354.26953125 209.5546875 C-353.83204714 199.05075867 -348.94323076 190.72018198 -342 183 C-332.49045952 174.74126394 -320.43756238 171.19451977 -308 172 C-307.01 172.33 -306.02 172.66 -305 173 C-304.72776611 172.28569824 -304.45553223 171.57139648 -304.17504883 170.83544922 C-302.99729729 167.99347822 -301.65674239 165.34124039 -300.19921875 162.6328125 C-299.64097412 161.59431152 -299.08272949 160.55581055 -298.50756836 159.48583984 C-297.60663452 157.82222412 -297.60663452 157.82222412 -296.6875 156.125 C-296.06302979 154.96822754 -295.43855957 153.81145508 -294.79516602 152.61962891 C-290.24117982 144.2038503 -285.56284532 135.86200159 -280.8269043 127.54736328 C-276.96109951 120.74546717 -273.20726364 113.88944748 -269.5 107 C-264.74588743 98.16593473 -259.86579177 89.41368431 -254.90356445 80.69506836 C-248.7694813 69.88730905 -242.87899443 58.94804577 -237 48 C-237.6283374 47.95464111 -238.2566748 47.90928223 -238.90405273 47.86254883 C-244.56338365 47.3865403 -249.67907418 46.47473219 -255.0625 44.6875 C-255.70509766 44.48705078 -256.34769531 44.28660156 -257.00976562 44.08007812 C-262.47956921 42.32212135 -262.47956921 42.32212135 -265.0534668 40.72900391 C-267.4466476 39.31293668 -269.2495445 38.46977256 -272 38 C-276.62674931 39.28075429 -280.55352339 41.59855904 -284.6875 44 C-285.88820117 44.66467093 -287.09070748 45.32609053 -288.29492188 45.984375 C-290.73121332 47.32301009 -293.15590048 48.67955475 -295.57177734 50.0546875 C-299.48245749 52.27376594 -303.42481467 54.428829 -307.3762207 56.57421875 C-309.13631677 57.53066809 -310.89394758 58.49166705 -312.64916992 59.45703125 C-321.01281662 64.05222501 -329.48989636 68.41886674 -337.97265625 72.7890625 C-345.03357003 76.43599635 -352.03907269 80.16594406 -359 84 C-368.38876814 89.17029839 -377.88087721 94.12468884 -387.40551758 99.03955078 C-395.64222965 103.28986896 -403.84224293 107.60000372 -412 112 C-411.94779297 113.10794922 -411.94779297 113.10794922 -411.89453125 114.23828125 C-411.53908484 127.55905845 -414.90511505 139.22151612 -424.01953125 149.11328125 C-433.48112996 158.12699363 -444.14241518 160.96856336 -457 161 C-466.9550239 160.320577 -476.58152045 155.56155947 -484 149 C-493.86268097 137.31241548 -496.30448737 126.3117171 -495.27050781 111.33056641 C-494.13978694 101.58881416 -488.36731575 92.46776563 -480.90234375 86.25390625 C-471.76796448 79.79378969 -461.2782569 75.94384216 -450 77 C-442.00158338 78.46601706 -434.16983847 80.54499098 -427.8125 85.8125 C-426.04154511 87.24830788 -426.04154511 87.24830788 -423.73803711 86.74536133 C-420.68791795 85.91504356 -418.18007513 84.72743849 -415.37890625 83.26171875 C-414.28908447 82.69453125 -413.1992627 82.12734375 -412.07641602 81.54296875 C-410.91682373 80.93066406 -409.75723145 80.31835938 -408.5625 79.6875 C-407.35296409 79.05434183 -406.14324515 78.42153318 -404.93334961 77.7890625 C-396.35138833 73.29105196 -387.83532073 68.67507733 -379.34545898 64.00561523 C-372.97285262 60.50597877 -366.5531272 57.15213713 -360 54 C-360 53.67 -360 53.34 -360 53 C-363.96199364 51.92129498 -367.94337183 50.95215366 -371.9375 50 C-373.05447266 49.69449219 -374.17144531 49.38898438 -375.32226562 49.07421875 C-381.6966919 47.51217103 -381.6966919 47.51217103 -387.65332031 49.58764648 C-390.02459343 51.68693282 -390.02459343 51.68693282 -392.0144043 53.97827148 C-396.04276459 58.07993774 -401.22280145 58.91466708 -406.796875 59.0859375 C-415.13795288 58.64814612 -421.06843564 56.35381787 -426.8125 50.25 C-431.97744604 43.84688196 -433.59467824 37.95895291 -433.35546875 29.74609375 C-432.52543059 23.33382095 -429.48969849 17.62174844 -425 13 C-417.73173387 7.46979751 -410.98223411 6.03587433 -402 7 C-394.82661272 8.74121465 -389.44568528 12.08476875 -385 18 C-383.10384145 21.29796148 -382 24.13575315 -382 28 C-380.7099707 28.12689209 -379.41994141 28.25378418 -378.09082031 28.38452148 C-373.17561786 28.93232753 -368.38503636 29.83677366 -363.546875 30.84765625 C-361.77604671 31.20900909 -360.00521323 31.57033648 -358.234375 31.93164062 C-355.48018041 32.49869518 -352.72633223 33.06739542 -349.97265625 33.63696289 C-347.28987401 34.19040564 -344.60594477 34.73799766 -341.921875 35.28515625 C-341.10096375 35.45700943 -340.28005249 35.62886261 -339.43426514 35.80592346 C-333.10929254 37.09270915 -328.85267789 37.83005597 -323.015625 34.55078125 C-322.07976562 34.03193359 -321.14390625 33.51308594 -320.1796875 32.97851562 C-319.21289062 32.42873047 -318.24609375 31.87894531 -317.25 31.3125 C-315.82300781 30.51682617 -315.82300781 30.51682617 -314.3671875 29.70507812 C-312.48381384 28.65374283 -310.60289584 27.59799486 -308.72460938 26.53759766 C-304.82753192 24.33833298 -300.91399232 22.16897371 -297 20 C-297.40839111 19.60208252 -297.81678223 19.20416504 -298.23754883 18.79418945 C-300.10121048 16.97233648 -301.95687184 15.14253329 -303.8125 13.3125 C-304.45509766 12.68666016 -305.09769531 12.06082031 -305.75976562 11.41601562 C-309.05313044 8.15677895 -311.85654125 5.16739378 -314 1 C-309.87003681 1.66264335 -306.35798012 3.02888875 -302.5 4.625 C-259.85065954 21.15136689 -207.22449865 26.04285757 -161.84375 26.203125 C-159.8883429 26.21167511 -159.8883429 26.21167511 -157.89343262 26.22039795 C-155.14721299 26.2307962 -152.40102158 26.23670853 -149.65478516 26.24023438 C-146.91343546 26.24457361 -144.17240858 26.25830924 -141.43115234 26.28125 C-92.88045561 26.67862315 -44.54910969 20.23597716 0 0 Z " fill="#515252" transform="translate(495,367)"/>
<path d="M0 0 C2.44201145 2.24412431 4.74469937 4.57022052 7 7 C7.78375 7.78375 8.5675 8.5675 9.375 9.375 C10.24125 10.24125 11.1075 11.1075 12 12 C12.91652344 12.82951172 12.91652344 12.82951172 13.8515625 13.67578125 C45.13554322 42.96896319 62.27216653 89.73044633 64.12548828 131.85205078 C65.2960263 168.31519251 57.09650869 201.85310732 40 234 C40.96421875 233.69964844 41.9284375 233.39929688 42.921875 233.08984375 C44.18515625 232.70957031 45.4484375 232.32929688 46.75 231.9375 C48.00296875 231.55464844 49.2559375 231.17179687 50.546875 230.77734375 C53.84522223 230.03484251 54.93306589 230.05700589 58 231 C57.44014404 231.13575439 56.88028809 231.27150879 56.3034668 231.41137695 C53.76198937 232.03416148 51.22485181 232.67312399 48.6875 233.3125 C47.80642578 233.52583984 46.92535156 233.73917969 46.01757812 233.95898438 C45.17001953 234.17490234 44.32246094 234.39082031 43.44921875 234.61328125 C42.66893311 234.80704346 41.88864746 235.00080566 41.0847168 235.20043945 C38.94964741 235.84686876 38.94964741 235.84686876 37.6496582 237.42895508 C35.16291527 239.79719406 32.39832792 240.44791631 29.15625 241.5234375 C28.47870667 241.75017654 27.80116333 241.97691559 27.10308838 242.21052551 C24.90525152 242.9421188 22.70308922 243.65939302 20.5 244.375 C18.99381122 244.87018675 17.48762633 245.36538534 15.98144531 245.8605957 C7.95538616 248.4826698 -0.08643709 251.02291893 -8.25 253.1875 C-8.98541016 253.38327637 -9.72082031 253.57905273 -10.47851562 253.78076172 C-14.05242213 254.67937819 -17.31292371 255.2072194 -21 255 C-18.07503073 251.56824186 -15.14187659 248.14667019 -12.140625 244.78125 C18.12520782 210.60981424 29.66544234 171.22601211 28 126 C27.56174822 119.86447514 26.5051398 113.95835216 25 108 C24.80132324 107.21012695 24.60264648 106.42025391 24.39794922 105.60644531 C18.46219136 82.79712859 8.49904483 61.88351327 -7 44 C-7.68449219 43.19433594 -8.36898438 42.38867188 -9.07421875 41.55859375 C-30.6571898 16.79823737 -60.58508673 -0.93056324 -93 -7 C-93.92804443 -7.17587646 -94.85608887 -7.35175293 -95.81225586 -7.53295898 C-104.45129935 -9.02464488 -112.93437796 -9.36099878 -121.6875 -9.3125 C-122.74173157 -9.30926727 -122.74173157 -9.30926727 -123.81726074 -9.30596924 C-134.79109347 -9.25208739 -145.32724694 -8.6986286 -156 -6 C-156.76038574 -5.81727539 -157.52077148 -5.63455078 -158.30419922 -5.44628906 C-185.39570316 1.23741598 -208.97719021 14.95166875 -228.60546875 34.609375 C-229.92512413 35.92687759 -231.25629003 37.2342172 -232.6328125 38.4921875 C-258.14141737 62.13105169 -271.43410779 100.17184262 -273.109375 134.22314453 C-274.45437939 172.95086461 -261.71129883 211.54190675 -235.70703125 240.55859375 C-232.62751492 243.70958822 -229.35157001 246.58097227 -226 249.4375 C-225.01 250.283125 -224.02 251.12875 -223 252 C-223 252.33 -223 252.66 -223 253 C-229.85421426 252.38742106 -236.31379629 251.12184766 -242.984375 249.453125 C-244.00299622 249.20004578 -245.02161743 248.94696655 -246.07110596 248.68621826 C-248.20986907 248.15159926 -250.34778011 247.61356098 -252.48486328 247.07226562 C-255.75026482 246.24993331 -259.02123638 245.45296515 -262.29296875 244.65625 C-264.37799526 244.1317606 -266.46264491 243.60577033 -268.546875 243.078125 C-269.52090271 242.84458313 -270.49493042 242.61104126 -271.49847412 242.37042236 C-278.20938422 240.62822817 -281.86029025 238.50312338 -285.57397461 232.4230957 C-286.01233643 231.51648193 -286.45069824 230.60986816 -286.90234375 229.67578125 C-287.39734375 228.65621338 -287.89234375 227.63664551 -288.40234375 226.58618164 C-289.16224609 224.96570923 -289.16224609 224.96570923 -289.9375 223.3125 C-290.46601563 222.19415771 -290.99453125 221.07581543 -291.5390625 219.92358398 C-298.40491144 205.13340107 -303.14053387 190.05408555 -306 174 C-306.17805176 173.00468262 -306.35610352 172.00936523 -306.53955078 170.98388672 C-308.1241147 161.17488382 -308.39944323 151.53438241 -308.375 141.625 C-308.37445618 140.79228577 -308.37391235 139.95957153 -308.37335205 139.10162354 C-308.22157461 88.3654622 -287.44105319 42.77832643 -252.125 6.8125 C-237.36194281 -7.85141135 -219.82581548 -19.30004535 -201 -28 C-199.86046875 -28.53367187 -198.7209375 -29.06734375 -197.546875 -29.6171875 C-131.82786416 -59.11432492 -54.4897592 -46.08062533 0 0 Z " fill="#1997AA" transform="translate(462,113)"/>
<path d="M0 0 C27.58678225 1.29820152 55.53160944 15.39491193 77 32 C78.37478516 33.04027344 78.37478516 33.04027344 79.77734375 34.1015625 C85.47337479 38.5680538 90.6737847 43.47653456 95.8125 48.5625 C96.43503662 49.17569092 97.05757324 49.78888184 97.69897461 50.4206543 C101.90582498 54.65684035 105.53843323 59.13817724 109 64 C105.54312335 67.59032226 101.9871607 70.67220972 98 73.6875 C96.85016725 74.5610753 95.7004305 75.43477698 94.55078125 76.30859375 C93.96506348 76.75187012 93.3793457 77.19514648 92.77587891 77.65185547 C90.45821087 79.41129497 88.15418426 81.18804983 85.85131836 82.96679688 C84.22205936 84.22334644 82.58785256 85.47323405 80.953125 86.72265625 C79.13409327 88.12542808 77.32864067 89.54628124 75.546875 90.99609375 C74.50273437 91.83333984 74.50273437 91.83333984 73.4375 92.6875 C72.85871094 93.16574219 72.27992188 93.64398438 71.68359375 94.13671875 C70 95 70 95 68.0390625 94.921875 C65.24940059 93.66064854 63.89623611 91.90932214 61.9375 89.5625 C44.18888468 69.27010919 19.77845344 55.22154442 -7 51 C-8.60652049 45.87929942 -7.4623284 41.11897254 -6.6015625 35.95703125 C-6.44714691 34.99222336 -6.29273132 34.02741547 -6.13363647 33.03337097 C-5.80641943 30.9995274 -5.47499555 28.96635677 -5.13964844 26.93383789 C-4.6253726 23.81475984 -4.12409269 20.69380551 -3.625 17.57226562 C-3.30544385 15.5962317 -2.98515659 13.62031585 -2.6640625 11.64453125 C-2.51297028 10.7080928 -2.36187805 9.77165436 -2.20620728 8.80683899 C-1.99126114 7.50990364 -1.99126114 7.50990364 -1.77197266 6.18676758 C-1.64682281 5.42463455 -1.52167297 4.66250153 -1.39273071 3.87727356 C-1 2 -1 2 0 0 Z " fill="#1997AA" transform="translate(411,0)"/>
<path d="M0 0 C2.81253562 1.88195544 4.93744358 3.81514529 7.11328125 6.4140625 C7.5928125 6.96578125 8.07234375 7.5175 8.56640625 8.0859375 C14.1929614 14.96283823 19.16393612 24.38736439 19.11328125 33.4140625 C17.07267667 35.72757468 15.42444604 37.25599721 12.98828125 39.0390625 C11.81734061 39.94576432 10.64804815 40.85459892 9.48046875 41.765625 C8.91295898 42.20036133 8.34544922 42.63509766 7.76074219 43.08300781 C5.35466815 45.02697871 3.25033954 47.18023176 1.11328125 49.4140625 C1.97179687 49.67960937 2.8303125 49.94515625 3.71484375 50.21875 C7.14238933 51.42430051 10.25501923 52.88650636 13.48828125 54.5390625 C14.54789062 55.07789063 15.6075 55.61671875 16.69921875 56.171875 C17.49585938 56.58179688 18.2925 56.99171875 19.11328125 57.4140625 C17.91747106 69.37216436 13.10058114 80.71528528 4.09765625 88.86328125 C-3.09721368 94.48604377 -9.82384898 96.34837897 -18.88671875 95.4140625 C-29.12519596 92.61408356 -36.00251101 85.30458901 -41.34765625 76.45703125 C-49.45527402 60.4269951 -50.35488705 40.42181728 -44.88671875 23.4140625 C-40.69879443 12.76833618 -35.01550861 3.30822212 -24.57421875 -2.1484375 C-16.01689013 -5.36861691 -7.8552183 -4.48511667 0 0 Z " fill="#4F4F50" transform="translate(437.88671875,233.5859375)"/>
<path d="M0 0 C10.2295318 6.31940188 15.24117296 16.07340828 19.0234375 27.25 C19.4565625 28.44625 19.8896875 29.6425 20.3359375 30.875 C19.95458003 34.99366068 19.07290486 35.58817977 16.0859375 38.3125 C14.42141306 39.65401813 12.73338827 40.96688626 11.0234375 42.25 C9.86134766 43.12591797 9.86134766 43.12591797 8.67578125 44.01953125 C7.31319707 45.03590529 5.94054736 46.03903704 4.5546875 47.0234375 C2.87880359 48.19052329 2.87880359 48.19052329 2.0234375 50.25 C2.88195312 50.51554687 3.74046875 50.78109375 4.625 51.0546875 C8.05254558 52.26023801 11.16517548 53.72244386 14.3984375 55.375 C15.45804687 55.91382813 16.51765625 56.45265625 17.609375 57.0078125 C18.40601563 57.41773438 19.20265625 57.82765625 20.0234375 58.25 C19.29324496 70.90667074 13.25229151 81.51093459 4.1484375 90.0625 C-1.85840685 95.04545042 -7.65943412 96.8806257 -15.46484375 96.59375 C-24.32908349 95.38060366 -30.95229894 89.92915551 -36.6328125 83.32421875 C-46.51918 69.93222604 -48.73504898 51.61112553 -46.4453125 35.515625 C-43.55373063 21.12057615 -38.32442898 8.94646578 -25.9765625 0.25 C-17.92755043 -4.48471298 -8.21168227 -4.26888898 0 0 Z " fill="#4F4F50" transform="translate(327.9765625,232.75)"/>
</svg>
