<?xml version="1.0" encoding="UTF-8"?>
<svg version="1.1" xmlns="http://www.w3.org/2000/svg" width="200" height="200">
<path d="M0 0 C2.0917151 0.77020517 4.0728888 1.16819803 6.265625 1.5546875 C18.63054581 4.16341007 31.49416498 12.59611784 40.015625 21.7421875 C40.469375 22.5259375 40.923125 23.3096875 41.390625 24.1171875 C43.28930415 27.18428459 45.56705615 29.35705088 48.19921875 31.80078125 C50.49959797 34.25946614 52.2045922 36.90364273 54.015625 39.7421875 C54.37712646 40.30655518 54.73862793 40.87092285 55.11108398 41.45239258 C61.83816399 52.05401334 66.44204458 61.90738458 68.828125 74.3046875 C69.03284424 75.33118408 69.03284424 75.33118408 69.24169922 76.37841797 C70.05995096 81.10272739 69.88613355 85.28793022 69.30688477 90.03540039 C68.65251369 96.1167182 68.65110751 102.26572741 68.49804688 108.37695312 C67.78514203 130.23488478 59.74984976 149.51151804 45.015625 165.7421875 C44.57089844 166.23605957 44.12617188 166.72993164 43.66796875 167.23876953 C36.33250782 175.28683269 28.49554422 181.40521008 19.015625 186.7421875 C18.42458984 187.07621582 17.83355469 187.41024414 17.22460938 187.75439453 C3.60543687 195.31191895 -8.83468109 197.26379623 -24.26538086 197.18823242 C-26.91403805 197.17971271 -29.56053825 197.20859137 -32.20898438 197.24023438 C-42.31813982 197.28105483 -50.45642903 196.29265909 -59.984375 192.7421875 C-61.8972904 192.22802238 -63.81360575 191.72618812 -65.734375 191.2421875 C-74.51418499 188.30007899 -81.70584066 182.30122674 -88.984375 176.7421875 C-89.55704102 176.31147949 -90.12970703 175.88077148 -90.71972656 175.43701172 C-96.12659041 171.34771697 -100.83468111 167.28781991 -104.66796875 161.6640625 C-106.01655134 159.63152309 -106.01655134 159.63152309 -107.88671875 157.453125 C-110.30722318 154.32494981 -112.19752475 151.07014897 -114.109375 147.6171875 C-115.9860099 144.26156896 -117.8496475 140.94427875 -119.984375 137.7421875 C-120.54269409 135.57094658 -120.92768793 133.39734954 -121.32421875 131.19140625 C-121.92647335 128.6015893 -121.92647335 128.6015893 -123.47265625 125.91015625 C-128.02664454 116.36678544 -127.16660776 104.6090437 -126.26953125 94.31640625 C-126.03489624 91.37543313 -125.96305737 88.56066549 -126.046875 85.6171875 C-125.98439212 81.74324873 -125.21352599 79.37153516 -123.984375 75.7421875 C-123.54672324 73.53791706 -123.13101279 71.32920596 -122.734375 69.1171875 C-120.9905979 60.78580804 -117.9599924 52.91404247 -112.296875 46.4296875 C-109.58793659 43.28146178 -108.50675454 40.58438348 -106.984375 36.7421875 C-106.324375 35.7521875 -105.664375 34.7621875 -104.984375 33.7421875 C-104.324375 33.7421875 -103.664375 33.7421875 -102.984375 33.7421875 C-102.654375 32.7521875 -102.324375 31.7621875 -101.984375 30.7421875 C-101.324375 30.7421875 -100.664375 30.7421875 -99.984375 30.7421875 C-99.984375 30.0821875 -99.984375 29.4221875 -99.984375 28.7421875 C-99.324375 28.7421875 -98.664375 28.7421875 -97.984375 28.7421875 C-97.71625 28.1853125 -97.448125 27.6284375 -97.171875 27.0546875 C-96.78 26.2915625 -96.388125 25.5284375 -95.984375 24.7421875 C-95.5925 23.9378125 -95.200625 23.1334375 -94.796875 22.3046875 C-90.29424394 15.93889876 -83.63823848 13.59158329 -76.57910156 10.97290039 C-73.34156556 9.75903506 -70.35628131 8.44779404 -67.375 6.6875 C-53.96460442 -1.00648272 -35.91992275 -2.80506065 -20.671875 -2.265625 C-5.37307182 -2.22115173 -5.37307182 -2.22115173 0 0 Z " fill="#F0A81F" transform="translate(127.984375,3.2578125)"/>
<path d="M0 0 C0.78503906 0.07863281 1.57007812 0.15726563 2.37890625 0.23828125 C4.4375 0.6875 4.4375 0.6875 6.4375 2.6875 C5.365 2.666875 4.2925 2.64625 3.1875 2.625 C-0.279507 2.51528047 -0.279507 2.51528047 -2.3828125 3.2265625 C-5.41863073 3.86854557 -8.10455167 3.44404149 -11.1875 3.125 C-20.1468299 2.42161787 -28.68844428 3.45753351 -37.5625 4.6875 C-37.5625 5.3475 -37.5625 6.0075 -37.5625 6.6875 C-39.8725 7.0175 -42.1825 7.3475 -44.5625 7.6875 C-43.93490135 10.61629371 -42.97627341 13.04845629 -41.5625 15.6875 C-43.5425 16.3475 -45.5225 17.0075 -47.5625 17.6875 C-47.5625 18.3475 -47.5625 19.0075 -47.5625 19.6875 C-48.5525 19.6875 -49.5425 19.6875 -50.5625 19.6875 C-50.5625 20.3475 -50.5625 21.0075 -50.5625 21.6875 C-46.6025 21.1925 -46.6025 21.1925 -42.5625 20.6875 C-42.0675 19.2025 -42.0675 19.2025 -41.5625 17.6875 C-36.6125 17.3575 -31.6625 17.0275 -26.5625 16.6875 C-26.5625 17.3475 -26.5625 18.0075 -26.5625 18.6875 C-27.63628906 18.94144531 -28.71007812 19.19539063 -29.81640625 19.45703125 C-31.25268198 19.8043659 -32.68887556 20.15204033 -34.125 20.5 C-34.82947266 20.66564453 -35.53394531 20.83128906 -36.25976562 21.00195312 C-39.81221473 21.86960199 -43.07808516 22.85009093 -46.40234375 24.38671875 C-49.5625 25.6875 -49.5625 25.6875 -52.5625 24.6875 C-53.25 22.625 -53.25 22.625 -53.5625 20.6875 C-54.67625 21.368125 -55.79 22.04875 -56.9375 22.75 C-58.8359375 23.91015625 -58.8359375 23.91015625 -60.5625 24.6875 C-61.2225 24.3575 -61.8825 24.0275 -62.5625 23.6875 C-60.96339132 22.67943149 -59.35801738 21.68129615 -57.75 20.6875 C-56.41001953 19.8521875 -56.41001953 19.8521875 -55.04296875 19 C-52.5625 17.6875 -52.5625 17.6875 -49.5625 17.6875 C-49.2325 16.3675 -48.9025 15.0475 -48.5625 13.6875 C-56.25729711 13.16971926 -61.78132953 13.9369267 -68.5625 17.6875 C-68.5625 18.3475 -68.5625 19.0075 -68.5625 19.6875 C-66.5825 18.3675 -64.6025 17.0475 -62.5625 15.6875 C-61.9025 16.0175 -61.2425 16.3475 -60.5625 16.6875 C-63.13654971 20.54857457 -65.17270259 20.63069692 -69.5625 21.6875 C-69.5625 22.3475 -69.5625 23.0075 -69.5625 23.6875 C-71.18589805 25.39634005 -72.85569053 27.06196717 -74.5625 28.6875 C-75.2225 29.3475 -75.8825 30.0075 -76.5625 30.6875 C-77.305 30.935 -78.0475 31.1825 -78.8125 31.4375 C-82.06777114 32.9171687 -83.85525735 34.82568621 -86.23046875 37.4453125 C-87.5625 38.6875 -87.5625 38.6875 -89.5625 38.6875 C-89.69011719 39.24566406 -89.81773438 39.80382813 -89.94921875 40.37890625 C-91.68774217 46.92328422 -94.1431266 52.53156436 -98.5625 57.6875 C-99.80266669 60.3669645 -99.80266669 60.3669645 -100.5625 62.6875 C-101.2225 62.6875 -101.8825 62.6875 -102.5625 62.6875 C-102.67207031 63.30496094 -102.78164062 63.92242187 -102.89453125 64.55859375 C-103.72587201 68.99917001 -104.67369999 73.23840186 -106.1875 77.5 C-107.3107692 80.68353683 -107.89314528 83.27083209 -107.5625 86.6875 C-108.2225 86.6875 -108.8825 86.6875 -109.5625 86.6875 C-109.61220693 90.70764331 -109.64836387 94.72766578 -109.67236328 98.74804688 C-109.6823759 100.1136385 -109.69599005 101.47920894 -109.71337891 102.84472656 C-109.73783573 104.81565912 -109.7479572 106.78675284 -109.7578125 108.7578125 C-109.76828613 109.94133301 -109.77875977 111.12485352 -109.78955078 112.34423828 C-109.5557872 115.78634423 -108.72079703 118.45574334 -107.5625 121.6875 C-107.4375 125.0625 -107.4375 125.0625 -107.5625 127.6875 C-112.35159734 122.89840266 -112.81273903 113.28539657 -113.5625 106.6875 C-113.67709026 114.09767023 -113.47410286 121.32956267 -112.5625 128.6875 C-118.18467484 120.25423773 -116.69623792 107.01554508 -115.84765625 97.26171875 C-115.61302124 94.32074563 -115.54118237 91.50597799 -115.625 88.5625 C-115.56251712 84.68856123 -114.79165099 82.31684766 -113.5625 78.6875 C-113.12484824 76.48322956 -112.70913779 74.27451846 -112.3125 72.0625 C-110.5687229 63.73112054 -107.5381174 55.85935497 -101.875 49.375 C-99.16606159 46.22677428 -98.08487954 43.52969598 -96.5625 39.6875 C-95.9025 38.6975 -95.2425 37.7075 -94.5625 36.6875 C-93.9025 36.6875 -93.2425 36.6875 -92.5625 36.6875 C-92.2325 35.6975 -91.9025 34.7075 -91.5625 33.6875 C-90.9025 33.6875 -90.2425 33.6875 -89.5625 33.6875 C-89.5625 33.0275 -89.5625 32.3675 -89.5625 31.6875 C-88.9025 31.6875 -88.2425 31.6875 -87.5625 31.6875 C-87.294375 31.130625 -87.02625 30.57375 -86.75 30 C-86.358125 29.236875 -85.96625 28.47375 -85.5625 27.6875 C-85.170625 26.883125 -84.77875 26.07875 -84.375 25.25 C-79.87236894 18.88421126 -73.21636348 16.53689579 -66.15722656 13.91821289 C-62.91969056 12.70434756 -59.93440631 11.39310654 -56.953125 9.6328125 C-43.54272942 1.93882978 -25.49804775 0.14025185 -10.25 0.6796875 C-6.58227856 0.69034948 -3.7406456 -0.41288839 0 0 Z " fill="#F6D999" transform="translate(117.5625,0.3125)"/>
<path d="M0 0 C-0.66 0.33 -1.32 0.66 -2 1 C-2.08121094 1.61359375 -2.16242188 2.2271875 -2.24609375 2.859375 C-3 5 -3 5 -5.72265625 6.703125 C-6.82480469 7.21359375 -7.92695312 7.7240625 -9.0625 8.25 C-10.16722656 8.77078125 -11.27195313 9.2915625 -12.41015625 9.828125 C-13.26480469 10.21484375 -14.11945312 10.6015625 -15 11 C-12.03 9.68 -9.06 8.36 -6 7 C-5.505 9.475 -5.505 9.475 -5 12 C-1.7 11.01 1.6 10.02 5 9 C5 9.66 5 10.32 5 11 C3.0848421 11.81604999 1.16781166 12.62770632 -0.75 13.4375 C-1.81734375 13.88996094 -2.8846875 14.34242187 -3.984375 14.80859375 C-7 16 -7 16 -9.328125 16.47265625 C-9.87984375 16.64667969 -10.4315625 16.82070313 -11 17 C-11.495 18.485 -11.495 18.485 -12 20 C-14.73949919 21.09579968 -17.33910582 21.88985097 -20.25 22.375 C-22.20832971 22.85869612 -22.20832971 22.85869612 -23.125 25 C-23.558125 25.99 -23.558125 25.99 -24 27 C-24.99 27.495 -24.99 27.495 -26 28 C-26.65213292 30.02463255 -26.65213292 30.02463255 -27 32 C-28.98 32.495 -28.98 32.495 -31 33 C-31 33.99 -31 34.98 -31 36 C-32.32 36 -33.64 36 -35 36 C-35.66 37.32 -36.32 38.64 -37 40 C-37 36.70776216 -36.49481868 34.91489643 -35 32 C-32.875 30.6875 -32.875 30.6875 -31 30 C-31 28.68 -31 27.36 -31 26 C-31.66 25.67 -32.32 25.34 -33 25 C-33.625 22.9375 -33.625 22.9375 -34 21 C-34.5775 21.804375 -35.155 22.60875 -35.75 23.4375 C-38.08763854 26.09981056 -38.71368968 26.39935085 -42 27 C-42.02578125 27.67546875 -42.0515625 28.3509375 -42.078125 29.046875 C-42.55197657 36.49926794 -42.55197657 36.49926794 -45.125 39.375 C-45.74375 39.91125 -46.3625 40.4475 -47 41 C-46.81446109 42.99427359 -46.81446109 42.99427359 -46 45 C-45.96213099 46.66623639 -45.95372155 48.33397597 -46 50 C-46.804375 50.20625 -47.60875 50.4125 -48.4375 50.625 C-49.7059375 51.305625 -49.7059375 51.305625 -51 52 C-51.79653753 54.67775809 -51.79653753 54.67775809 -52 58 C-52.3348536 59.62908934 -52.68983058 61.25414327 -53.0625 62.875 C-53.32740234 64.04675781 -53.32740234 64.04675781 -53.59765625 65.2421875 C-53.73042969 65.82226562 -53.86320312 66.40234375 -54 67 C-53.34 67 -52.68 67 -52 67 C-51.81824219 66.41992188 -51.63648438 65.83984375 -51.44921875 65.2421875 C-47.24864865 52.18810811 -47.24864865 52.18810811 -40 48 C-40.309375 48.886875 -40.61875 49.77375 -40.9375 50.6875 C-41.82992462 53.469765 -42.44399824 56.14056236 -43 59 C-43.33 59.66 -43.66 60.32 -44 61 C-45.32 61 -46.64 61 -48 61 C-48.66 65.29 -49.32 69.58 -50 74 C-51.98 73.67 -53.96 73.34 -56 73 C-58.76864953 73.36858988 -58.76864953 73.36858988 -61 74 C-62.07181184 69.22556546 -62.08720705 66.38656307 -59.90234375 61.9765625 C-58.15498158 58.14900727 -57.14625959 54.0403618 -56 50 C-55.34 50 -54.68 50 -54 50 C-53.62875 48.700625 -53.62875 48.700625 -53.25 47.375 C-52 44 -52 44 -50.0625 41.125 C-48.05232325 38.07927765 -46.87886654 35.35103256 -45.7109375 31.9296875 C-42.71263236 23.79143068 -36.53907689 19.76953844 -29 16 C-27.62986661 14.36345179 -26.2879728 12.70196405 -25 11 C-24.34 11 -23.68 11 -23 11 C-23 10.34 -23 9.68 -23 9 C-19.535 7.515 -19.535 7.515 -16 6 C-16 5.34 -16 4.68 -16 4 C-19.465 5.98 -19.465 5.98 -23 8 C-22.64277621 5.4994335 -22.41389186 4.32548777 -20.390625 2.734375 C-13.58504945 -0.39519624 -7.40483101 -0.41201533 0 0 Z " fill="#ECAC31" transform="translate(71,13)"/>
<path d="M0 0 C0 1.32 0 2.64 0 4 C-0.66 4 -1.32 4 -2 4 C-2 4.66 -2 5.32 -2 6 C-1.401875 5.814375 -0.80375 5.62875 -0.1875 5.4375 C2 5 2 5 5 6 C5.433125 5.071875 5.433125 5.071875 5.875 4.125 C7 2 7 2 9 0 C11.09375 -0.1171875 11.09375 -0.1171875 13.5 0.125 C14.69109375 0.22167969 14.69109375 0.22167969 15.90625 0.3203125 C18 1 18 1 19.28125 2.8046875 C20 5 20 5 20 9 C20.66 8.67 21.32 8.34 22 8 C22.185625 6.5459375 22.185625 6.5459375 22.375 5.0625 C23 2 23 2 24.7421875 0.78515625 C27.3688164 -0.12825622 29.01369574 -0.02739769 31.75 0.375 C32.54921875 0.48585938 33.3484375 0.59671875 34.171875 0.7109375 C34.77515625 0.80632812 35.3784375 0.90171875 36 1 C36 1.66 36 2.32 36 3 C32.7 3 29.4 3 26 3 C26 4.32 26 5.64 26 7 C27.6396875 7.4021875 27.6396875 7.4021875 29.3125 7.8125 C34.39370079 9.4488189 34.39370079 9.4488189 36 12 C36.375 14.5625 36.375 14.5625 36 17 C32.85388747 19.09740836 32.08811922 19.25328219 28.5 19.1875 C27.7265625 19.18105469 26.953125 19.17460938 26.15625 19.16796875 C24 19 24 19 21 18 C20.34 18.66 19.68 19.32 19 20 C16.50390625 20.3359375 16.50390625 20.3359375 13.5625 20.375 C12.11037109 20.41753906 12.11037109 20.41753906 10.62890625 20.4609375 C8 20 8 20 6.15234375 18.1640625 C5 16 5 16 5 13 C4.34 13 3.68 13 3 13 C2.34 14.98 1.68 16.96 1 19 C-7.8404908 19.60736196 -7.8404908 19.60736196 -11.625 17.625 C-13.79982686 13.47305781 -13.70259483 9.57795997 -13 5 C-10.18459446 -1.12044683 -5.99325697 -0.57627471 0 0 Z " fill="#EAA92F" transform="translate(138,78)"/>
<path d="M0 0 C0 2.95274099 -0.43891831 4.49058403 -1.5 7.1875 C-1.7784375 7.90292969 -2.056875 8.61835937 -2.34375 9.35546875 C-2.5603125 9.89816406 -2.776875 10.44085938 -3 11 C-2.67 11 -2.34 11 -2 11 C-1.68436818 16.26053037 -2.33409063 19.44573816 -5 24 C-5.66 24 -6.32 24 -7 24 C-7.10957031 24.61746094 -7.21914062 25.23492187 -7.33203125 25.87109375 C-8.16337201 30.31167001 -9.11119999 34.55090186 -10.625 38.8125 C-11.7482692 41.99603683 -12.33064528 44.58333209 -12 48 C-12.66 48 -13.32 48 -14 48 C-14.04970693 52.02014331 -14.08586387 56.04016578 -14.10986328 60.06054688 C-14.1198759 61.4261385 -14.13349005 62.79170894 -14.15087891 64.15722656 C-14.17533573 66.12815912 -14.1854572 68.09925284 -14.1953125 70.0703125 C-14.20578613 71.25383301 -14.21625977 72.43735352 -14.22705078 73.65673828 C-13.9932872 77.09884423 -13.15829703 79.76824334 -12 83 C-11.875 86.375 -11.875 86.375 -12 89 C-16.78909734 84.21090266 -17.25023903 74.59789657 -18 68 C-18.11459026 75.41017023 -17.91160286 82.64206267 -17 90 C-22.62217484 81.56673773 -21.13373792 68.32804508 -20.28515625 58.57421875 C-20.05052124 55.63324563 -19.97868237 52.81847799 -20.0625 49.875 C-20.00001712 46.00106123 -19.22915099 43.62934766 -18 40 C-17.56234824 37.79572956 -17.14663779 35.58701846 -16.75 33.375 C-15.0062229 25.04362054 -11.9756174 17.17185497 -6.3125 10.6875 C-3.61551789 7.55316944 -2.50017696 4.82545126 -1 1 C-0.67 0.67 -0.34 0.34 0 0 Z " fill="#FBE9BA" transform="translate(22,39)"/>
<path d="M0 0 C12 0 12 0 15.1875 1.875 C18.58229539 5.85510494 18.33177107 9.20920073 18.28515625 14.296875 C17.90033774 17.94474364 16.76015463 19.62320018 14 22 C10 24 10 24 0 24 C0 16.08 0 8.16 0 0 Z " fill="#EEA927" transform="translate(62,73)"/>
<path d="M0 0 C0.495 0.99 0.495 0.99 1 2 C3.64 2 6.28 2 9 2 C9 3.32 9 4.64 9 6 C7.02 6 5.04 6 3 6 C3.495 7.485 3.495 7.485 4 9 C4.66 9.33 5.32 9.66 6 10 C6 10.66 6 11.32 6 12 C4.68 12 3.36 12 2 12 C2 17.28 2 22.56 2 28 C1.01 28 0.02 28 -1 28 C-1.03738281 27.01257813 -1.07476562 26.02515625 -1.11328125 25.0078125 C-1.17902344 23.72648437 -1.24476562 22.44515625 -1.3125 21.125 C-1.37050781 19.84882812 -1.42851563 18.57265625 -1.48828125 17.2578125 C-1.65714844 16.18273437 -1.82601562 15.10765625 -2 14 C-2.99 13.34 -3.98 12.68 -5 12 C-5 11.34 -5 10.68 -5 10 C-4.01 10 -3.02 10 -2 10 C-2 9.34 -2 8.68 -2 8 C-3.98 8.99 -3.98 8.99 -6 10 C-6.33 15.94 -6.66 21.88 -7 28 C-8.65 28 -10.3 28 -12 28 C-12.33 23.05 -12.66 18.1 -13 13 C-13.66 13.66 -14.32 14.32 -15 15 C-15.33 14.01 -15.66 13.02 -16 12 C-16.66 12 -17.32 12 -18 12 C-18 13.32 -18 14.64 -18 16 C-18.64453125 16.22429687 -19.2890625 16.44859375 -19.953125 16.6796875 C-22.24388852 17.82889456 -22.24388852 17.82889456 -22.609375 20.3828125 C-22.67898437 21.74019531 -22.67898437 21.74019531 -22.75 23.125 C-22.80671875 24.03507812 -22.8634375 24.94515625 -22.921875 25.8828125 C-22.94765625 26.58148438 -22.9734375 27.28015625 -23 28 C-23.66 28 -24.32 28 -25 28 C-25.00257812 27.40574219 -25.00515625 26.81148437 -25.0078125 26.19921875 C-25.3198907 19.51034276 -27.24315687 15.03766111 -30.72265625 9.34765625 C-32 7 -32 7 -32 4 C-31.34 4 -30.68 4 -30 4 C-28.02 7.96 -26.04 11.92 -24 16 C-23.21625 14.576875 -22.4325 13.15375 -21.625 11.6875 C-20.16468006 9.03586642 -18.68156755 6.52235132 -17 4 C-16.01 4 -15.02 4 -14 4 C-14 5.32 -14 6.64 -14 8 C-13.34 8 -12.68 8 -12 8 C-12 6.02 -12 4.04 -12 2 C-9.08482708 3.07401108 -7.22189824 3.77810176 -5 6 C-4.01 6 -3.02 6 -2 6 C-2 5.34 -2 4.68 -2 4 C-1.34 4 -0.68 4 0 4 C0 2.68 0 1.36 0 0 Z " fill="#EAAF42" transform="translate(129,102)"/>
<path d="M0 0 C1.49080078 0.02707031 1.49080078 0.02707031 3.01171875 0.0546875 C3.77097656 0.07789062 4.53023437 0.10109375 5.3125 0.125 C5.3125 0.785 5.3125 1.445 5.3125 2.125 C5.9725 2.125 6.6325 2.125 7.3125 2.125 C7.36636629 4.24972576 7.40523071 6.37483652 7.4375 8.5 C7.46070312 9.68335937 7.48390625 10.86671875 7.5078125 12.0859375 C7.3125 15.125 7.3125 15.125 5.3125 17.125 C5.3125 15.805 5.3125 14.485 5.3125 13.125 C1.56462088 13.62952219 -2.01386934 14.20659233 -5.6875 15.125 C-2.7175 15.125 0.2525 15.125 3.3125 15.125 C3.9725 16.445 4.6325 17.765 5.3125 19.125 C3.45925781 21.05546061 2.09151634 22.09208382 -0.62890625 22.20703125 C-3.72328727 21.90500143 -6.02738851 21.5721723 -8.625 19.8125 C-11.23276818 15.67075054 -11.0792311 10.88453282 -10.6875 6.125 C-8.81126147 0.64061045 -5.43150702 -0.12780017 0 0 Z " fill="#EEA821" transform="translate(96.6875,77.875)"/>
<path d="M0 0 C0 1.32 0 2.64 0 4 C-0.66 4 -1.32 4 -2 4 C-2 4.66 -2 5.32 -2 6 C-1.38125 5.814375 -0.7625 5.62875 -0.125 5.4375 C2 5 2 5 4 6 C4.25 12.625 4.25 12.625 2 16 C1.67 16.99 1.34 17.98 1 19 C-7.8404908 19.60736196 -7.8404908 19.60736196 -11.625 17.625 C-13.79982686 13.47305781 -13.70259483 9.57795997 -13 5 C-10.18459446 -1.12044683 -5.99325697 -0.57627471 0 0 Z " fill="#EFA923" transform="translate(138,78)"/>
<path d="M0 0 C10.65581129 9.04129443 15.27332775 23.27270595 17.8125 36.5625 C17.94881836 37.24658936 18.08513672 37.93067871 18.22558594 38.63549805 C19.04470426 43.36001542 18.87054285 47.54546156 18.29125977 52.29321289 C17.63688869 58.3745307 17.63548251 64.52353991 17.48242188 70.63476562 C17.1872144 79.6859382 16.22538749 88.47576164 13 97 C11.93903991 94.24150376 11.96277188 93.10889224 12.9375 90.2578125 C16.25275126 80.09266709 15.16231004 67.84169741 15.28509521 57.24511719 C15.30333826 55.87538561 15.3281 54.50572507 15.35943604 53.13623047 C15.40137392 51.18880253 15.41410412 49.2408132 15.42578125 47.29296875 C15.44765503 45.58403442 15.44765503 45.58403442 15.4699707 43.84057617 C15.29506183 40.87344197 15.29506183 40.87344197 12.97338867 39.29418945 C12.32217041 38.86710693 11.67095215 38.44002441 11 38 C11 37.01 11 36.02 11 35 C10.34 35 9.68 35 9 35 C8.67 32.69 8.34 30.38 8 28 C8.99 28 9.98 28 11 28 C10.67 25.69 10.34 23.38 10 21 C9.01 20.67 8.02 20.34 7 20 C7 19.34 7 18.68 7 18 C6.01 18 5.02 18 4 18 C4 17.01 4 16.02 4 15 C4.66 15 5.32 15 6 15 C4.76217638 9.84240159 3.07291897 6.40451719 0 2 C0 1.34 0 0.68 0 0 Z M13 32 C13 34.31 13 36.62 13 39 C13.66 39 14.32 39 15 39 C14.67 36.69 14.34 34.38 14 32 C13.67 32 13.34 32 13 32 Z " fill="#F4C975" transform="translate(179,41)"/>
<path d="M0 0 C0.33 0 0.66 0 1 0 C1 8.25 1 16.5 1 25 C0.01 25 -0.98 25 -2 25 C-3.11375 25.268125 -4.2275 25.53625 -5.375 25.8125 C-9 26 -9 26 -11.9375 24.0625 C-14.54946712 20.18412458 -14.86313031 17.54520747 -14 13 C-11.86111111 8.43055556 -11.86111111 8.43055556 -9 7 C-4.94857881 6.74139865 -3.45662331 6.69558446 0 9 C0 6.03 0 3.06 0 0 Z " fill="#EEAB2F" transform="translate(60,105)"/>
<path d="M0 0 C0.78503906 0.07863281 1.57007812 0.15726563 2.37890625 0.23828125 C4.4375 0.6875 4.4375 0.6875 6.4375 2.6875 C5.365 2.666875 4.2925 2.64625 3.1875 2.625 C-0.279507 2.51528047 -0.279507 2.51528047 -2.3828125 3.2265625 C-5.41863073 3.86854557 -8.10455167 3.44404149 -11.1875 3.125 C-20.1468299 2.42161787 -28.68844428 3.45753351 -37.5625 4.6875 C-37.5625 5.3475 -37.5625 6.0075 -37.5625 6.6875 C-39.8725 7.0175 -42.1825 7.3475 -44.5625 7.6875 C-43.93490135 10.61629371 -42.97627341 13.04845629 -41.5625 15.6875 C-43.5425 16.3475 -45.5225 17.0075 -47.5625 17.6875 C-47.5625 18.3475 -47.5625 19.0075 -47.5625 19.6875 C-48.5525 19.6875 -49.5425 19.6875 -50.5625 19.6875 C-50.5625 20.3475 -50.5625 21.0075 -50.5625 21.6875 C-46.6025 21.1925 -46.6025 21.1925 -42.5625 20.6875 C-42.2325 19.6975 -41.9025 18.7075 -41.5625 17.6875 C-36.6125 17.3575 -31.6625 17.0275 -26.5625 16.6875 C-26.5625 17.3475 -26.5625 18.0075 -26.5625 18.6875 C-27.63628906 18.94144531 -28.71007812 19.19539063 -29.81640625 19.45703125 C-31.25268198 19.8043659 -32.68887556 20.15204033 -34.125 20.5 C-34.82947266 20.66564453 -35.53394531 20.83128906 -36.25976562 21.00195312 C-39.81221473 21.86960199 -43.07808516 22.85009093 -46.40234375 24.38671875 C-49.5625 25.6875 -49.5625 25.6875 -52.5625 24.6875 C-53.25 22.625 -53.25 22.625 -53.5625 20.6875 C-55.233125 21.7084375 -55.233125 21.7084375 -56.9375 22.75 C-58.8359375 23.91015625 -58.8359375 23.91015625 -60.5625 24.6875 C-61.2225 24.3575 -61.8825 24.0275 -62.5625 23.6875 C-60.96339132 22.67943149 -59.35801738 21.68129615 -57.75 20.6875 C-56.85667969 20.130625 -55.96335937 19.57375 -55.04296875 19 C-52.5625 17.6875 -52.5625 17.6875 -49.5625 17.6875 C-49.2325 16.3675 -48.9025 15.0475 -48.5625 13.6875 C-49.8825 13.0275 -51.2025 12.3675 -52.5625 11.6875 C-50.5825 11.3575 -48.6025 11.0275 -46.5625 10.6875 C-46.2325 8.7075 -45.9025 6.7275 -45.5625 4.6875 C-33.92447348 1.82903735 -22.38048138 0.40004158 -10.390625 0.71484375 C-6.66376283 0.67881055 -3.7887093 -0.41819361 0 0 Z " fill="#F2B235" transform="translate(117.5625,0.3125)"/>
<path d="M0 0 C4.10697526 3.31207682 4.4209152 5.88475093 5 11 C5.66 11.33 6.32 11.66 7 12 C7 11.01 7 10.02 7 9 C10.75376152 10.25125384 11.24073289 11.5652404 13 15 C13 15.66 13 16.32 13 17 C12.01 17 11.02 17 10 17 C13.17840405 24.01592415 16.83087862 30.24726815 22 36 C22.33 36 22.66 36 23 36 C23.33 35.34 23.66 34.68 24 34 C25.20205464 35.06716072 26.38632333 36.15438337 27.5625 37.25 C28.22378906 37.85328125 28.88507812 38.4565625 29.56640625 39.078125 C30.03949219 39.71234375 30.51257813 40.3465625 31 41 C30.67 42.32 30.34 43.64 30 45 C32.31 46.98 34.62 48.96 37 51 C31.30752797 51 27.01945461 45.70849394 23 42 C21.29553249 40.03812311 19.77867697 38.06714991 18.31640625 35.921875 C16.96782366 33.88933559 16.96782366 33.88933559 15.09765625 31.7109375 C12.67715182 28.58276231 10.78685025 25.32796147 8.875 21.875 C6.9983651 18.51938146 5.1347275 15.20209125 3 12 C2.40234375 9.84375 2.40234375 9.84375 1.9375 7.5 C1.41299975 4.89917232 0.84203525 2.52610575 0 0 Z " fill="#F5D285" transform="translate(5,129)"/>
<path d="M0 0 C2.1796875 1.03515625 2.1796875 1.03515625 4 3 C4.29642569 5.71229503 4.38061189 7.99739732 4.25 10.6875 C4.23195312 11.38939453 4.21390625 12.09128906 4.1953125 12.81445312 C4.14826213 14.54355436 4.07651873 16.27195205 4 18 C2.68 18 1.36 18 0 18 C-1.7634375 18.3403125 -1.7634375 18.3403125 -3.5625 18.6875 C-7 19 -7 19 -8.9375 17.875 C-10.37604008 15.33639987 -10.50262362 13.87213496 -10 11 C-8.5 9.1875 -8.5 9.1875 -6 8 C-3.27920155 7.76115128 -0.74185932 7.86290703 2 8 C1.34 6.35 0.68 4.7 0 3 C-2.64 3 -5.28 3 -8 3 C-8 2.34 -8 1.68 -8 1 C-5.19084526 -0.40457737 -3.11189466 -0.24895157 0 0 Z " fill="#FDE8A4" transform="translate(148,112)"/>
<path d="M0 0 C3.375 1.125 3.375 1.125 5.3125 3.4375 C6.375 6.125 6.375 6.125 6.375 10.125 C2.085 10.125 -2.205 10.125 -6.625 10.125 C-5.635 12.105 -4.645 14.085 -3.625 16.125 C-0.655 16.125 2.315 16.125 5.375 16.125 C5.375 16.785 5.375 17.445 5.375 18.125 C2.33223746 18.85420235 -0.49173877 19.31886399 -3.625 19.125 C-6.85044981 16.55780525 -8.16725649 15.06946415 -9.09765625 11.1171875 C-9.38177881 7.2851756 -8.69320339 5.22627171 -6.5625 2.0625 C-3.625 0.125 -3.625 0.125 0 0 Z " fill="#FDE7A4" transform="translate(76.625,111.875)"/>
<path d="M0 0 C2.00401011 0.30830925 4.00291344 0.64963394 6 1 C6.65355469 1.09925781 7.30710938 1.19851562 7.98046875 1.30078125 C21.21241354 3.68686965 34.96931217 12.1908046 44 22 C45.8125 25.3125 45.8125 25.3125 47 28 C44.53199953 26.84826645 42.95216435 25.95216435 41 24 C38.42938689 23.35232207 38.42938689 23.35232207 36 23 C35.505 20.03 35.505 20.03 35 17 C33.02 17 31.04 17 29 17 C28.67 15.35 28.34 13.7 28 12 C24.7 11.67 21.4 11.34 18 11 C18 10.01 18 9.02 18 8 C17.41992188 7.86335937 16.83984375 7.72671875 16.2421875 7.5859375 C10.53789938 6.09526987 5.21158131 3.73608019 0 1 C0 0.67 0 0.34 0 0 Z " fill="#F5D998" transform="translate(124,3)"/>
<path d="M0 0 C3.375 1.1875 3.375 1.1875 5.3125 3.5 C6.375 6.1875 6.375 6.1875 6.375 10.1875 C2.085 10.1875 -2.205 10.1875 -6.625 10.1875 C-5.17211014 14.7716963 -5.17211014 14.7716963 -3.625 16.1875 C-2.11030552 16.41942865 -0.58745438 16.59965238 0.9375 16.75 C1.76378906 16.83378906 2.59007812 16.91757813 3.44140625 17.00390625 C4.39853516 17.09478516 4.39853516 17.09478516 5.375 17.1875 C3.375 19.1875 3.375 19.1875 0 19.5 C-3.73967234 19.17761445 -5.06627084 18.84464182 -7.625 16.1875 C-8.97953812 12.12388564 -9.67048943 8.37693302 -7.75390625 4.36328125 C-5.39239493 1.04168008 -4.0737266 0.21071 0 0 Z " fill="#FCE5A0" transform="translate(150.625,77.8125)"/>
<path d="M0 0 C3.4375 0.8125 3.4375 0.8125 5.4375 3.8125 C5.4375 5.7925 5.4375 7.7725 5.4375 9.8125 C1.4775 9.8125 -2.4825 9.8125 -6.5625 9.8125 C-5.72497221 12.90998698 -5.72497221 12.90998698 -3.5625 15.8125 C-0.56857883 16.65653097 2.33660366 16.79949834 5.4375 16.8125 C3.4375 18.8125 3.4375 18.8125 0.125 19.25 C-3.5625 18.8125 -3.5625 18.8125 -6.5 16.8125 C-9.32988497 12.69630367 -9.1105297 10.7447673 -8.5625 5.8125 C-7.01743293 1.29615012 -4.89562275 -0.25766436 0 0 Z " fill="#FEEBAB" transform="translate(94.5625,78.1875)"/>
<path d="M0 0 C0.66 0.33 1.32 0.66 2 1 C1.67 1.66 1.34 2.32 1 3 C0.34 3 -0.32 3 -1 3 C-1.33 3.99 -1.66 4.98 -2 6 C-4.73949919 7.09579968 -7.33910582 7.88985097 -10.25 8.375 C-12.20832971 8.85869612 -12.20832971 8.85869612 -13.125 11 C-13.558125 11.99 -13.558125 11.99 -14 13 C-14.99 13.495 -14.99 13.495 -16 14 C-16.65213292 16.02463255 -16.65213292 16.02463255 -17 18 C-18.32 18.33 -19.64 18.66 -21 19 C-21 19.99 -21 20.98 -21 22 C-22.32 22 -23.64 22 -25 22 C-25.66 23.32 -26.32 24.64 -27 26 C-27 22.70776216 -26.49481868 20.91489643 -25 18 C-23.67062462 17.32547549 -22.3367124 16.65986528 -21 16 C-19.08183157 14.39551051 -19.08183157 14.39551051 -17.3125 12.5625 C-16.40951172 11.66724609 -16.40951172 11.66724609 -15.48828125 10.75390625 C-13.7802312 8.96183786 -13.7802312 8.96183786 -13 6 C-13.66 6 -14.32 6 -15 6 C-15.33 6.99 -15.66 7.98 -16 9 C-17.98 9.33 -19.96 9.66 -22 10 C-19.12111605 6.01385299 -16.36552692 3.31116131 -12 1 C-8.125 0.75 -8.125 0.75 -5 1 C-5 1.66 -5 2.32 -5 3 C-4.21625 2.484375 -3.4325 1.96875 -2.625 1.4375 C-1.325625 0.7259375 -1.325625 0.7259375 0 0 Z " fill="#F6C45C" transform="translate(61,27)"/>
<path d="M0 0 C0 3 0 3 -1 6 C-1.165 6.845625 -1.33 7.69125 -1.5 8.5625 C-2 11 -2 11 -3 13 C-4.32 13 -5.64 13 -7 13 C-7.66 17.29 -8.32 21.58 -9 26 C-10.98 25.67 -12.96 25.34 -15 25 C-17.76864953 25.36858988 -17.76864953 25.36858988 -20 26 C-20.33 23.69 -20.66 21.38 -21 19 C-20.01 19.33 -19.02 19.66 -18 20 C-17.34 19.01 -16.68 18.02 -16 17 C-15.01 17 -14.02 17 -13 17 C-13 17.66 -13 18.32 -13 19 C-12.34 19 -11.68 19 -11 19 C-10.81824219 18.41992188 -10.63648438 17.83984375 -10.44921875 17.2421875 C-6.33298755 4.45020747 -6.33298755 4.45020747 0 0 Z " fill="#F2B33B" transform="translate(30,61)"/>
<path d="M0 0 C2.475 0.495 2.475 0.495 5 1 C5 9.25 5 17.5 5 26 C3.35 26.33 1.7 26.66 0 27 C0 18.09 0 9.18 0 0 Z " fill="#EEC263" transform="translate(106,71)"/>
<path d="M0 0 C0.66 0.33 1.32 0.66 2 1 C2.625 3.5625 2.625 3.5625 3 6 C3.99 6 4.98 6 6 6 C6.33 8.97 6.66 11.94 7 15 C7.66 15 8.32 15 9 15 C9 13.02 9 11.04 9 9 C9.66 9 10.32 9 11 9 C11.33 11.31 11.66 13.62 12 16 C10.68 16 9.36 16 8 16 C6.78306124 18.43387753 6.68040104 20.41838846 6.4375 23.125 C6.31181641 24.49011719 6.31181641 24.49011719 6.18359375 25.8828125 C6.12300781 26.58148438 6.06242188 27.28015625 6 28 C3.00371461 25.00371461 3.2750714 21.41506529 2.875 17.375 C2.78863281 16.57320312 2.70226562 15.77140625 2.61328125 14.9453125 C2.40103673 12.96436365 2.19950069 10.98227282 2 9 C1.34 9 0.68 9 0 9 C0.09539063 10.27617188 0.19078125 11.55234375 0.2890625 12.8671875 C0.4015951 14.53642112 0.51354407 16.20569415 0.625 17.875 C0.68945312 18.71675781 0.75390625 19.55851562 0.8203125 20.42578125 C0.871875 21.23144531 0.9234375 22.03710938 0.9765625 22.8671875 C1.02893066 23.61081543 1.08129883 24.35444336 1.13525391 25.12060547 C1 27 1 27 -1 29 C-1.02937438 25.66668561 -1.04692334 22.33340517 -1.0625 19 C-1.07087891 18.06542969 -1.07925781 17.13085938 -1.08789062 16.16796875 C-1.10708892 10.67725599 -0.8134193 5.43133519 0 0 Z " fill="#F1BD57" transform="translate(8,87)"/>
<path d="M0 0 C12 0 12 0 15.1875 1.875 C18.58229539 5.85510494 18.33177107 9.20920073 18.28515625 14.296875 C17.90033774 17.94474364 16.76015463 19.62320018 14 22 C10 24 10 24 0 24 C0 16.08 0 8.16 0 0 Z M2 1 C2 7.93 2 14.86 2 22 C9.5214072 22.34926826 9.5214072 22.34926826 15 19 C16.97468493 15.05063013 16.4267863 10.3060827 16 6 C14.83333333 3.16666667 14.83333333 3.16666667 12 2 C8.7 1.67 5.4 1.34 2 1 Z " fill="#FEEBAB" transform="translate(62,73)"/>
<path d="M0 0 C-0.234375 1.89453125 -0.234375 1.89453125 -1 4 C-2.890625 5.01171875 -2.890625 5.01171875 -5.25 5.6875 C-6.47976562 6.05101562 -6.47976562 6.05101562 -7.734375 6.421875 C-10 7 -10 7 -12.5 7.4375 C-18.0504543 8.68635222 -23.05272682 10.89313356 -27 15 C-29.2730505 16.55924177 -31.52762693 17.74133735 -34 19 C-34.66 18.67 -35.32 18.34 -36 18 C-36 17.01 -36 16.02 -36 15 C-28.88234658 10.84343754 -21.52895295 7.34523083 -14 4 C-12.86820313 3.49597656 -11.73640625 2.99195313 -10.5703125 2.47265625 C-9.49523437 2.00730469 -8.42015625 1.54195312 -7.3125 1.0625 C-6.33925781 0.64097656 -5.36601563 0.21945312 -4.36328125 -0.21484375 C-2 -1 -2 -1 0 0 Z " fill="#FBEECC" transform="translate(72,7)"/>
<path d="M0 0 C2.83686988 2.83686988 2.88525371 6.05816864 3.5 9.875 C4.46123926 16.1905824 4.46123926 16.1905824 7 22 C8.40973372 24.65361642 9.36943753 27.05737515 10 30 C9.01 29.67 8.02 29.34 7 29 C7 30.98 7 32.96 7 35 C6.67 35 6.34 35 6 35 C5.87882813 34.37351563 5.75765625 33.74703125 5.6328125 33.1015625 C5.46523437 32.28429687 5.29765625 31.46703125 5.125 30.625 C4.96257813 29.81289062 4.80015625 29.00078125 4.6328125 28.1640625 C4.13341068 25.81326077 4.13341068 25.81326077 2 24 C-0.59355708 16.25134797 -0.20901833 8.05881799 0 0 Z " fill="#EEB343" transform="translate(3,105)"/>
<path d="M0 0 C0.33 0 0.66 0 1 0 C1 8.25 1 16.5 1 25 C0.01 25 -0.98 25 -2 25 C-3.11375 25.268125 -4.2275 25.53625 -5.375 25.8125 C-9 26 -9 26 -11.9375 24.0625 C-14.54946712 20.18412458 -14.86313031 17.54520747 -14 13 C-11.86111111 8.43055556 -11.86111111 8.43055556 -9 7 C-4.94857881 6.74139865 -3.45662331 6.69558446 0 9 C0 6.03 0 3.06 0 0 Z M-10.875 10.5625 C-12.42190908 13.91413635 -12.39126176 16.34822358 -12 20 C-11.04826062 22.52040427 -11.04826062 22.52040427 -9 24 C-6 24.66666667 -6 24.66666667 -3 24 C-0.7711723 22.21693784 -0.12617512 20.8709588 0.28125 18.05859375 C0.41375481 15.06067237 0.36447879 12.6479623 -1.125 10 C-4.63032478 8.13049345 -7.77407969 7.97839974 -10.875 10.5625 Z " fill="#FCECAB" transform="translate(60,105)"/>
<path d="M0 0 C4 1 4 1 6 3 C6.99 3 7.98 3 9 3 C9 3.66 9 4.32 9 5 C7.02 5.99 7.02 5.99 5 7 C4.67 12.94 4.34 18.88 4 25 C3.01 25 2.02 25 1 25 C0.67 16.75 0.34 8.5 0 0 Z " fill="#F2C45F" transform="translate(118,105)"/>
<path d="M0 0 C2.05005433 3.02398043 1.6475149 6.1377159 1.51953125 9.65234375 C1.50599609 10.35423828 1.49246094 11.05613281 1.47851562 11.77929688 C1.44323307 13.50814204 1.38942708 15.2365914 1.33203125 16.96484375 C0.67203125 16.96484375 0.01203125 16.96484375 -0.66796875 16.96484375 C-0.66796875 12.01484375 -0.66796875 7.06484375 -0.66796875 1.96484375 C-6.99714836 1.44309456 -6.99714836 1.44309456 -9.66796875 2.96484375 C-10.13797908 6.24039983 -10.13797908 6.24039983 -10.29296875 10.02734375 C-10.36773437 11.31769531 -10.4425 12.60804687 -10.51953125 13.9375 C-10.56851563 14.93652344 -10.6175 15.93554688 -10.66796875 16.96484375 C-11.32796875 16.96484375 -11.98796875 16.96484375 -12.66796875 16.96484375 C-12.66796875 11.35484375 -12.66796875 5.74484375 -12.66796875 -0.03515625 C-3.13029752 -1.9426905 -3.13029752 -1.9426905 0 0 Z " fill="#FEE89F" transform="translate(171.66796875,113.03515625)"/>
<path d="M0 0 C0.80050781 0.12761719 1.60101563 0.25523438 2.42578125 0.38671875 C3.23402344 0.50660156 4.04226562 0.62648438 4.875 0.75 C5.48988281 0.85699219 6.10476562 0.96398437 6.73828125 1.07421875 C6.73828125 1.73421875 6.73828125 2.39421875 6.73828125 3.07421875 C3.43828125 3.07421875 0.13828125 3.07421875 -3.26171875 3.07421875 C-3.26171875 4.39421875 -3.26171875 5.71421875 -3.26171875 7.07421875 C-1.62203125 7.47640625 -1.62203125 7.47640625 0.05078125 7.88671875 C5.13198204 9.52303765 5.13198204 9.52303765 6.73828125 12.07421875 C7.11328125 14.63671875 7.11328125 14.63671875 6.73828125 17.07421875 C3.53448108 19.21008553 2.71888158 19.3055405 -0.94921875 19.19921875 C-2.16158203 19.17214844 -2.16158203 19.17214844 -3.3984375 19.14453125 C-4.01332031 19.12132813 -4.62820312 19.098125 -5.26171875 19.07421875 C-4.76671875 17.58921875 -4.76671875 17.58921875 -4.26171875 16.07421875 C-1.62171875 16.07421875 1.01828125 16.07421875 3.73828125 16.07421875 C3.73828125 14.75421875 3.73828125 13.43421875 3.73828125 12.07421875 C3.17238281 11.84347656 2.60648438 11.61273438 2.0234375 11.375 C-3.96628629 8.7117309 -3.96628629 8.7117309 -5.44921875 5.51171875 C-5.26171875 3.07421875 -5.26171875 3.07421875 -4.04296875 1.40234375 C-2.26171875 0.07421875 -2.26171875 0.07421875 0 0 Z " fill="#FCE7A2" transform="translate(167.26171875,77.92578125)"/>
<path d="M0 0 C0.66 0 1.32 0 2 0 C3.98 3.96 5.96 7.92 8 12 C8.78375 10.576875 9.5675 9.15375 10.375 7.6875 C11.83531994 5.03586642 13.31843245 2.52235132 15 0 C15.66 0 16.32 0 17 0 C15.8152731 3.3387758 14.28019828 6.18379528 12.4375 9.1875 C9.66527381 14.03074223 9.12665899 18.48457665 9 24 C8.34 24 7.68 24 7 24 C6.99742188 23.40574219 6.99484375 22.81148437 6.9921875 22.19921875 C6.6801093 15.51034276 4.75684313 11.03766111 1.27734375 5.34765625 C0 3 0 3 0 0 Z " fill="#FDEBAC" transform="translate(97,106)"/>
<path d="M0 0 C1.17755859 0.11794922 1.17755859 0.11794922 2.37890625 0.23828125 C4.4375 0.6875 4.4375 0.6875 6.4375 2.6875 C5.365 2.666875 4.2925 2.64625 3.1875 2.625 C-0.28108258 2.51482446 -0.28108258 2.51482446 -2.390625 3.23046875 C-5.39324098 3.8623142 -8.01621754 3.40621771 -11.0625 3.0625 C-19.30549996 2.2989707 -27.0182172 3.58222963 -35.12890625 4.99609375 C-38.64627904 5.59734769 -41.98432353 5.83248284 -45.5625 5.6875 C-45.5625 5.3575 -45.5625 5.0275 -45.5625 4.6875 C-33.92447348 1.82903735 -22.38048138 0.40004158 -10.390625 0.71484375 C-6.66376283 0.67881055 -3.7887093 -0.41819361 0 0 Z " fill="#FEEEC8" transform="translate(117.5625,0.3125)"/>
<path d="M0 0 C0.33 0.66 0.66 1.32 1 2 C-0.11375 2.12375 -1.2275 2.2475 -2.375 2.375 C-6.03103677 2.6465813 -6.03103677 2.6465813 -8 5 C-8.24315656 7.66949409 -8.24315656 7.66949409 -8.125 10.625 C-8.10695313 11.62789062 -8.08890625 12.63078125 -8.0703125 13.6640625 C-8.04710938 14.43492188 -8.02390625 15.20578125 -8 16 C-5.03 16.33 -2.06 16.66 1 17 C1 17.66 1 18.32 1 19 C-6.13513514 19.47567568 -6.13513514 19.47567568 -9.5 17.625 C-11.85005771 13.51239902 -11.72338324 9.61622913 -11 5 C-8.31911682 -0.36176637 -5.74437492 -0.55234374 0 0 Z " fill="#FBE7A2" transform="translate(136,78)"/>
<path d="M0 0 C0 2.95274099 -0.43891831 4.49058403 -1.5 7.1875 C-1.7784375 7.90292969 -2.056875 8.61835937 -2.34375 9.35546875 C-2.5603125 9.89816406 -2.776875 10.44085938 -3 11 C-2.67 11 -2.34 11 -2 11 C-2 13.31 -2 15.62 -2 18 C-3.98 18.99 -3.98 18.99 -6 20 C-6 18.35 -6 16.7 -6 15 C-6.2475 15.61875 -6.495 16.2375 -6.75 16.875 C-8.20628639 19.35068687 -9.37812506 19.95125002 -12 21 C-10.90756523 17.50420873 -9.29521506 14.97268125 -7.0625 12.125 C-4.28674811 8.55714331 -2.62896584 5.20101715 -1 1 C-0.67 0.67 -0.34 0.34 0 0 Z " fill="#FCF2D5" transform="translate(22,39)"/>
<path d="M0 0 C3.96 0 7.92 0 12 0 C11.01 0.495 11.01 0.495 10 1 C9.89816406 1.64453125 9.79632813 2.2890625 9.69140625 2.953125 C9.46324219 3.62859375 9.23507813 4.3040625 9 5 C6.71484375 6.046875 6.71484375 6.046875 3.9375 6.75 C2.55884766 7.11351562 2.55884766 7.11351562 1.15234375 7.484375 C0.44207031 7.65453125 -0.26820312 7.8246875 -1 8 C-2 5 -2 5 0 0 Z " fill="#EFA71E" transform="translate(59,13)"/>
<path d="M0 0 C1.2065625 0.0309375 1.2065625 0.0309375 2.4375 0.0625 C1.798125 0.289375 1.15875 0.51625 0.5 0.75 C-1.83443661 1.91500896 -1.83443661 1.91500896 -2.3125 4.6875 C-2.395 5.47125 -2.4775 6.255 -2.5625 7.0625 C-1.2425 7.0625 0.0775 7.0625 1.4375 7.0625 C1.4375 7.7225 1.4375 8.3825 1.4375 9.0625 C0.1175 9.0625 -1.2025 9.0625 -2.5625 9.0625 C-2.5625 14.3425 -2.5625 19.6225 -2.5625 25.0625 C-3.2225 25.0625 -3.8825 25.0625 -4.5625 25.0625 C-4.5625 19.7825 -4.5625 14.5025 -4.5625 9.0625 C-5.5525 8.7325 -6.5425 8.4025 -7.5625 8.0625 C-6.9025 7.7325 -6.2425 7.4025 -5.5625 7.0625 C-4.85868843 5.07526732 -4.1913189 3.07472047 -3.5625 1.0625 C-2.5625 0.0625 -2.5625 0.0625 0 0 Z " fill="#FDE8A2" transform="translate(133.5625,104.9375)"/>
<path d="M0 0 C3.63161261 2.20490766 5.12181889 4.73299508 7.05859375 8.37109375 C7.96197811 10.10796943 7.96197811 10.10796943 9.625 11.5625 C11.67922135 13.71009505 12.1882608 16.19013356 13 19 C9.13066436 17.47990386 7.41623885 15.34009488 5 12 C4.46503906 11.26652344 3.93007813 10.53304687 3.37890625 9.77734375 C2.82074219 8.98457031 2.26257813 8.19179687 1.6875 7.375 C1.15511719 6.61960938 0.62273438 5.86421875 0.07421875 5.0859375 C-0.28027344 4.39757812 -0.63476562 3.70921875 -1 3 C-0.67 2.01 -0.34 1.02 0 0 Z " fill="#EDB84F" transform="translate(17,148)"/>
<path d="M0 0 C2.01822917 0.06510417 4.03645833 0.13020833 6.0546875 0.1953125 C5.3046875 4.9453125 5.3046875 4.9453125 3.0546875 7.1953125 C-0.0703125 7.3203125 -0.0703125 7.3203125 -2.9453125 7.1953125 C-3.5703125 4.8203125 -3.5703125 4.8203125 -3.9453125 2.1953125 C-1.9453125 0.1953125 -1.9453125 0.1953125 0 0 Z " fill="#E6AF43" transform="translate(143.9453125,121.8046875)"/>
<path d="M0 0 C4.10697526 3.31207682 4.4209152 5.88475093 5 11 C5.66 11.33 6.32 11.66 7 12 C7 11.01 7 10.02 7 9 C10.75376152 10.25125384 11.24073289 11.5652404 13 15 C13 15.66 13 16.32 13 17 C12.01 17 11.02 17 10 17 C9.67 17.66 9.34 18.32 9 19 C3.89576997 14.00812724 2.12131478 9.9710654 1 3 C0.67 2.01 0.34 1.02 0 0 Z " fill="#F5D488" transform="translate(5,129)"/>
<path d="M0 0 C0.99 0.33 1.98 0.66 3 1 C2.34 1 1.68 1 1 1 C1 1.66 1 2.32 1 3 C1.66 2.67 2.32 2.34 3 2 C6 1.8125 6 1.8125 9 2 C11 4 11 4 11 8 C10.30132812 8.13277344 9.60265625 8.26554687 8.8828125 8.40234375 C7.97273437 8.57894531 7.06265625 8.75554687 6.125 8.9375 C5.22007812 9.11152344 4.31515625 9.28554687 3.3828125 9.46484375 C1.00043683 9.89963701 1.00043683 9.89963701 -1 11 C-1 9.68 -1 8.36 -1 7 C-0.195625 6.87625 0.60875 6.7525 1.4375 6.625 C2.283125 6.41875 3.12875 6.2125 4 6 C4.33 5.34 4.66 4.68 5 4 C3.35 4 1.7 4 0 4 C0 2.68 0 1.36 0 0 Z " fill="#EAA82A" transform="translate(139,112)"/>
<path d="M0 0 C4.74457124 4.74457124 5.82146835 14.31120515 6.2578125 20.8828125 C6.25110972 23.93257641 6.18478362 26.95620321 6 30 C5.34 30.33 4.68 30.66 4 31 C3.92652344 29.95199219 3.92652344 29.95199219 3.8515625 28.8828125 C3.77679688 27.97273438 3.70203125 27.06265625 3.625 26.125 C3.55539063 25.22007813 3.48578125 24.31515625 3.4140625 23.3828125 C3.20431868 20.82058097 3.20431868 20.82058097 1 19 C1.66 19 2.32 19 3 19 C2.60404619 13.63378388 2.191526 8.96745894 0 4 C0 2.68 0 1.36 0 0 Z " fill="#F5D287" transform="translate(191,61)"/>
<path d="M0 0 C0 4.95 0 9.9 0 15 C-0.33 15 -0.66 15 -1 15 C-1.33 10.71 -1.66 6.42 -2 2 C-2.99 3.32 -3.98 4.64 -5 6 C-5.66 6 -6.32 6 -7 6 C-6.67 4.35 -6.34 2.7 -6 1 C-6.66 1 -7.32 1 -8 1 C-8.33 5.62 -8.66 10.24 -9 15 C-9.33 15 -9.66 15 -10 15 C-10.08075665 12.70890403 -10.13907731 10.41700733 -10.1875 8.125 C-10.22230469 6.84882812 -10.25710937 5.57265625 -10.29296875 4.2578125 C-10.19628906 3.18273437 -10.09960938 2.10765625 -10 1 C-7 -1 -7 -1 0 0 Z " fill="#E3A839" transform="translate(171,115)"/>
<path d="M0 0 C1.32 0.33 2.64 0.66 4 1 C3.67 6.94 3.34 12.88 3 19 C2.01 19 1.02 19 0 19 C0 12.73 0 6.46 0 0 Z " fill="#F7D383" transform="translate(116,78)"/>
<path d="M0 0 C1.32 0 2.64 0 4 0 C4 8.58 4 17.16 4 26 C3.67 26 3.34 26 3 26 C2.67 20.72 2.34 15.44 2 10 C0.535625 9.87625 -0.92875 9.7525 -2.4375 9.625 C-4.93359375 9.4140625 -4.93359375 9.4140625 -7 9 C-7.33 8.34 -7.66 7.68 -8 7 C-5.36 7 -2.72 7 0 7 C0 4.69 0 2.38 0 0 Z " fill="#ECBB5F" transform="translate(58,104)"/>
<path d="M0 0 C0.33 0 0.66 0 1 0 C1.32382475 5.3970791 0.42131037 8.25423168 -2 13 C-2.25982646 14.85126356 -2.51303676 16.70479489 -2.68359375 18.56640625 C-3.36201446 23.78438284 -4.76171086 28.89108381 -6 34 C-6.33 34 -6.66 34 -7 34 C-7.05498128 32.62546802 -7.09322822 31.25026422 -7.125 29.875 C-7.14820313 29.10929687 -7.17140625 28.34359375 -7.1953125 27.5546875 C-6.95870646 24.45988053 -6.0146395 21.93077526 -5 19 C-4.20281509 15.45651308 -3.49278788 11.9014002 -2.78125 8.33984375 C-2.09036662 5.38631732 -1.21534139 2.7711879 0 0 Z " fill="#FDF2D8" transform="translate(9,60)"/>
<path d="M0 0 C3.64211265 3.32993156 6.14604401 6.65053728 8.671875 10.87890625 C10.48775743 13.77897731 12.55991891 16.4485508 14.66796875 19.140625 C16.01453819 21.02029378 17.02337489 22.90789314 18 25 C17.01 25 16.02 25 15 25 C13.94410931 23.36816893 12.9563874 21.69207001 12 20 C11.2575 19.154375 10.515 18.30875 9.75 17.4375 C6.04768669 13.1237955 0 5.78993575 0 0 Z " fill="#FCF0C8" transform="translate(11,144)"/>
<path d="M0 0 C0.33 0 0.66 0 1 0 C0.03644647 17.85649203 0.03644647 17.85649203 -1 26 C-4.13224464 21.30163304 -3.45013275 16.50597158 -3 11 C-2.21717678 7.25330852 -1.20139528 3.63279048 0 0 Z " fill="#ECCD94" transform="translate(6,78)"/>
<path d="M0 0 C2.625 0.3125 2.625 0.3125 4.4375 2.1875 C5.625 4.3125 5.625 4.3125 5.625 6.3125 C1.995 6.3125 -1.635 6.3125 -5.375 6.3125 C-3.00833333 0.39583333 -3.00833333 0.39583333 0 0 Z " fill="#E4AA3D" transform="translate(93.375,79.6875)"/>
<path d="M0 0 C0.33 0 0.66 0 1 0 C0.85866501 1.77119803 0.71176792 3.54195287 0.5625 5.3125 C0.48128906 6.29863281 0.40007813 7.28476563 0.31640625 8.30078125 C0 11 0 11 -1 14 C-1.34227417 15.33106622 -1.67751743 16.66400079 -2 18 C-2.33 18 -2.66 18 -3 18 C-3.33 19.65 -3.66 21.3 -4 23 C-4.33 23 -4.66 23 -5 23 C-4.73559871 14.56559869 -3.70088212 7.62553851 0 0 Z " fill="#FEF6D7" transform="translate(11,68)"/>
<path d="M0 0 C2.5 0.25 2.5 0.25 4.5 2.25 C4.5 3.57 4.5 4.89 4.5 6.25 C1.2 6.25 -2.1 6.25 -5.5 6.25 C-4.03846154 0.40384615 -4.03846154 0.40384615 0 0 Z " fill="#E8A831" transform="translate(75.5,113.75)"/>
<path d="M0 0 C0 0.66 0 1.32 0 2 C-1.07378906 2.25394531 -2.14757812 2.50789063 -3.25390625 2.76953125 C-4.69018198 3.1168659 -6.12637556 3.46454033 -7.5625 3.8125 C-8.26697266 3.97814453 -8.97144531 4.14378906 -9.69726562 4.31445312 C-13.24971473 5.18210199 -16.51558516 6.16259093 -19.83984375 7.69921875 C-23 9 -23 9 -26 8 C-24.71086513 7.32845067 -23.41859796 6.66291141 -22.125 6 C-21.40570313 5.62875 -20.68640625 5.2575 -19.9453125 4.875 C-18 4 -18 4 -16 4 C-15.67 3.01 -15.34 2.02 -15 1 C-12.8750734 0.83240016 -10.75005624 0.66594799 -8.625 0.5 C-7.44164063 0.4071875 -6.25828125 0.314375 -5.0390625 0.21875 C-3.36213157 0.09804546 -1.68126944 0 0 0 Z " fill="#FBCE69" transform="translate(91,17)"/>
<path d="M0 0 C2.97 0 5.94 0 9 0 C6.9469392 4.10612161 1.08697472 5.40532766 -3 7 C-9.34337631 8.99655215 -15.33602053 10.45436224 -22 10 C-22 9.67 -22 9.34 -22 9 C-21.0821875 8.80664062 -20.164375 8.61328125 -19.21875 8.4140625 C-12.7816914 7.04821603 -6.3689126 5.65591728 0 4 C0 2.68 0 1.36 0 0 Z " fill="#FCE5A4" transform="translate(136,190)"/>
<path d="M0 0 C0.33 0.66 0.66 1.32 1 2 C1.66 2 2.32 2 3 2 C3 2.66 3 3.32 3 4 C2.34 4.66 1.68 5.32 1 6 C1.40929986 8.05396726 1.40929986 8.05396726 2 10 C0.18884044 11.81115956 -2.61278227 11.38199448 -5.0625 11.5625 C-6.16722656 11.64628906 -7.27195312 11.73007813 -8.41015625 11.81640625 C-9.26480469 11.87699219 -10.11945313 11.93757813 -11 12 C-11.33 12.99 -11.66 13.98 -12 15 C-12.33 13.35 -12.66 11.7 -13 10 C-9.04 10 -5.08 10 -1 10 C-1.66 7.03 -2.32 4.06 -3 1 C-2.01 0.67 -1.02 0.34 0 0 Z " fill="#E2A838" transform="translate(101,78)"/>
<path d="M0 0 C0.33 1.65 0.66 3.3 1 5 C-2.3 5 -5.6 5 -9 5 C-6.96456769 -0.67013285 -5.87860125 -1.3923003 0 0 Z " fill="#E4A836" transform="translate(153,81)"/>
<path d="M0 0 C0.6875 1.6875 0.6875 1.6875 1 4 C-0.4375 6.75 -0.4375 6.75 -2 9 C-1.34 9.66 -0.68 10.32 0 11 C-1.0625 12.5 -1.0625 12.5 -3 14 C-6.6875 14.1875 -6.6875 14.1875 -10 14 C-10 13.34 -10 12.68 -10 12 C-9.34 12 -8.68 12 -8 12 C-7.67 11.01 -7.34 10.02 -7 9 C-6.34 9 -5.68 9 -5 9 C-5 8.34 -5 7.68 -5 7 C-4.34 7 -3.68 7 -3 7 C-1.79371992 4.66785852 -0.8345262 2.50357861 0 0 Z " fill="#FAE9BF" transform="translate(33,25)"/>
<path d="M0 0 C-0.2265625 1.8828125 -0.2265625 1.8828125 -1 4 C-2.9609375 5.1171875 -2.9609375 5.1171875 -5.375 5.875 C-6.16648437 6.14054688 -6.95796875 6.40609375 -7.7734375 6.6796875 C-10 7 -10 7 -13 5 C-4.68085106 -2.34042553 -4.68085106 -2.34042553 0 0 Z " fill="#F1BD5A" transform="translate(72,7)"/>
<path d="M0 0 C0.7734375 0.495 0.7734375 0.495 1.5625 1 C4.78026512 2.32010877 7.5570528 2.13242105 11 2 C8.69 1.67 6.38 1.34 4 1 C4 0.67 4 0.34 4 0 C7.3 0 10.6 0 14 0 C14.33 0.99 14.66 1.98 15 3 C13.14675781 4.93046061 11.77901634 5.96708382 9.05859375 6.08203125 C5.86995563 5.77080138 3.63002612 5.45283128 1 3.5625 C0 2 0 2 0 0 Z " fill="#E8AA38" transform="translate(87,94)"/>
<path d="M0 0 C0.33 0 0.66 0 1 0 C0.67 3.63 0.34 7.26 0 11 C-0.66 10.01 -1.32 9.02 -2 8 C-2.99 10.64 -3.98 13.28 -5 16 C-7 13 -7 13 -6.3125 9.375 C-5.879375 8.26125 -5.44625 7.1475 -5 6 C-4.01 5.67 -3.02 5.34 -2 5 C-0.78130071 2.49552484 -0.78130071 2.49552484 0 0 Z " fill="#FCF0CB" transform="translate(13,62)"/>
<path d="M0 0 C5.38567718 4.56966549 9.06910459 10.61028393 12 17 C11.67 17.99 11.34 18.98 11 20 C10.731875 19.360625 10.46375 18.72125 10.1875 18.0625 C9.11332248 15.66868314 9.11332248 15.66868314 6 15 C5.31526605 12.67190457 4.65146849 10.33762223 4 8 C2.70211044 5.97681922 1.37535339 3.97133986 0 2 C0 1.34 0 0.68 0 0 Z M4 15 C4.99 15.495 4.99 15.495 6 16 C5.01 16.495 5.01 16.495 4 17 C4 16.34 4 15.68 4 15 Z " fill="#F9DFA2" transform="translate(179,41)"/>
<path d="M0 0 C0.66 0.33 1.32 0.66 2 1 C-0.57404971 4.86107457 -2.61020259 4.94319692 -7 6 C-7 6.66 -7 7.32 -7 8 C-9.64 8.66 -12.28 9.32 -15 10 C-13.90537324 6.8255824 -13.01822665 6.01085843 -10.0625 4.25 C-7 3 -7 3 -4 3 C-1.82967524 1.56009377 -1.82967524 1.56009377 0 0 Z " fill="#F3C86E" transform="translate(55,16)"/>
<path d="M0 0 C3.63 0.33 7.26 0.66 11 1 C5.77468437 4.48354375 0.1868663 5.30934332 -6 5 C-6 4.34 -6 3.68 -6 3 C-5.195625 2.87625 -4.39125 2.7525 -3.5625 2.625 C-2.716875 2.41875 -1.87125 2.2125 -1 2 C-0.67 1.34 -0.34 0.68 0 0 Z " fill="#EBA92F" transform="translate(120,194)"/>
<path d="M0 0 C4.71403788 0.47939368 8.66579301 0.96834048 13 3 C12.01 3.66 11.02 4.32 10 5 C9.01 4.34 8.02 3.68 7 3 C4.90440488 3.01301215 4.90440488 3.01301215 2.6875 3.4375 C-2.29101023 4.12558678 -6.22642816 3.59119061 -11 2 C-11 1.67 -11 1.34 -11 1 C-7.37 1 -3.74 1 0 1 C0 0.67 0 0.34 0 0 Z " fill="#E8AC3C" transform="translate(116,2)"/>
<path d="M0 0 C1.32 0.33 2.64 0.66 4 1 C2.53025751 6.73199571 -0.44486902 11.33583399 -4 16 C-4.33 16 -4.66 16 -5 16 C-5 14.35 -5 12.7 -5 11 C-4.01 10.67 -3.02 10.34 -2 10 C-1.34 6.7 -0.68 3.4 0 0 Z " fill="#F1C369" transform="translate(184,144)"/>
<path d="M0 0 C0 3.3 0 6.6 0 10 C-0.66 10 -1.32 10 -2 10 C-2.33 9.01 -2.66 8.02 -3 7 C-3.33 11.29 -3.66 15.58 -4 20 C-4.33 20 -4.66 20 -5 20 C-5 14.72 -5 9.44 -5 4 C-3.68 4 -2.36 4 -1 4 C-1 3.34 -1 2.68 -1 2 C-1.66 1.67 -2.32 1.34 -3 1 C-1 0 -1 0 0 0 Z " fill="#E6A832" transform="translate(136,110)"/>
<path d="M0 0 C0.33 0 0.66 0 1 0 C1.33 2.64 1.66 5.28 2 8 C3.98 7.67 5.96 7.34 8 7 C7.01 8.485 7.01 8.485 6 10 C7.65 10.33 9.3 10.66 11 11 C10.67 11.99 10.34 12.98 10 14 C10 13.34 10 12.68 10 12 C8.906875 12.061875 7.81375 12.12375 6.6875 12.1875 C3 12 3 12 1.28125 10.78125 C-0.3746715 8.47911524 -0.3094704 7.11781917 -0.1875 4.3125 C-0.16042969 3.50425781 -0.13335937 2.69601563 -0.10546875 1.86328125 C-0.07066406 1.24839844 -0.03585938 0.63351563 0 0 Z " fill="#E8AA37" transform="translate(127,83)"/>
<path d="M0 0 C0 0.66 0 1.32 0 2 C-2.31 2.66 -4.62 3.32 -7 4 C-6.01 4 -5.02 4 -4 4 C-4 4.66 -4 5.32 -4 6 C-5.98 5.34 -7.96 4.68 -10 4 C-10 2.68 -10 1.36 -10 0 C-6.7169902 -1.6415049 -3.57454967 -0.51888624 0 0 Z " fill="#E9AA34" transform="translate(174,81)"/>
<path d="M0 0 C2.81484045 2.81484045 2.62757042 5.2166247 3.125 9.125 C3.29257813 10.40632813 3.46015625 11.68765625 3.6328125 13.0078125 C3.81457031 14.48894531 3.81457031 14.48894531 4 16 C2.68 15.34 1.36 14.68 0 14 C0 9.38 0 4.76 0 0 Z " fill="#E6C072" transform="translate(3,105)"/>
<path d="M0 0 C3.96 0 7.92 0 12 0 C12 0.33 12 0.66 12 1 C8.7 1.66 5.4 2.32 2 3 C1.67 8.28 1.34 13.56 1 19 C0.67 19 0.34 19 0 19 C0 12.73 0 6.46 0 0 Z " fill="#E3AD47" transform="translate(158,111)"/>
<path d="M0 0 C0.99 0.33 1.98 0.66 3 1 C2.67 6.28 2.34 11.56 2 17 C1.34 17 0.68 17 0 17 C0 11.39 0 5.78 0 0 Z " fill="#FEEFAC" transform="translate(159,113)"/>
<path d="M0 0 C2.97 0 5.94 0 9 0 C8.67 1.32 8.34 2.64 8 4 C5.03 4 2.06 4 -1 4 C-0.67 2.68 -0.34 1.36 0 0 Z " fill="#F0A81D" transform="translate(148,89)"/>
<path d="M0 0 C0.66 0 1.32 0 2 0 C1.67 2.64 1.34 5.28 1 8 C-0.65 8.33 -2.3 8.66 -4 9 C-4.33 6.69 -4.66 4.38 -5 2 C-4.01 2.33 -3.02 2.66 -2 3 C-1.34 2.01 -0.68 1.02 0 0 Z " fill="#F4C461" transform="translate(14,78)"/>
<path d="M0 0 C5.38554376 2.891052 8.77462676 5.01930942 11 11 C8.53199953 9.84826645 6.95216435 8.95216435 5 7 C2.42938689 6.35232207 2.42938689 6.35232207 0 6 C0 4.02 0 2.04 0 0 Z " fill="#F2C66B" transform="translate(160,20)"/>
<path d="M0 0 C0.33 0 0.66 0 1 0 C1.33 2.97 1.66 5.94 2 9 C4.97 9.33 7.94 9.66 11 10 C11 10.66 11 11.32 11 12 C3.81795511 12.47880299 3.81795511 12.47880299 0.4375 10.5 C-1.7310621 6.72858765 -0.84157098 4.20785488 0 0 Z " fill="#FDE295" transform="translate(126,85)"/>
<path d="M0 0 C0 4.39101117 -1.13821266 7.03375359 -4.0625 10.3125 C-6 12 -6 12 -7 12 C-6.7589852 5.85412262 -6.7589852 5.85412262 -4.59765625 3.421875 C-3.11953029 2.21155069 -1.56352047 1.09779097 0 0 Z " fill="#FBD37A" transform="translate(30,61)"/>
<path d="M0 0 C0.33 0 0.66 0 1 0 C1.17942163 3.94727588 1.09350689 6.5980513 -1 10 C-1.66 10 -2.32 10 -3 10 C-3 11.65 -3 13.3 -3 15 C-3.33 15 -3.66 15 -4 15 C-4.29268781 9.34136895 -4.03522952 5.97777642 -1 1 C-0.67 0.67 -0.34 0.34 0 0 Z " fill="#EFA725" transform="translate(19,59)"/>
<path d="M0 0 C0.66 0.33 1.32 0.66 2 1 C1.814375 1.61875 1.62875 2.2375 1.4375 2.875 C0.76313824 5.04160178 0.76313824 5.04160178 2 7 C0.68 8.65 -0.64 10.3 -2 12 C-2.59732819 9.23735711 -3 6.83967231 -3 4 C-1.5 1.8125 -1.5 1.8125 0 0 Z " fill="#F2CC84" transform="translate(22,44)"/>
<path d="M0 0 C1.1446875 0.2475 1.1446875 0.2475 2.3125 0.5 C5.03596236 1.09145396 5.03596236 1.09145396 8 1 C3.545 4.465 3.545 4.465 -1 8 C-1.66 7.67 -2.32 7.34 -3 7 C-2.34 5.68 -1.68 4.36 -1 3 C-0.34 3.33 0.32 3.66 1 4 C0.67 2.68 0.34 1.36 0 0 Z " fill="#F3CC76" transform="translate(155,178)"/>
<path d="M0 0 C0.66 0.33 1.32 0.66 2 1 C1.67 1.66 1.34 2.32 1 3 C0.34 3 -0.32 3 -1 3 C-1.33 3.99 -1.66 4.98 -2 6 C-5.26202163 7.30480865 -8.57956185 8.21066812 -12 9 C-8.63378119 5.21300384 -4.58358196 2.1727369 0 0 Z " fill="#FCDF93" transform="translate(61,27)"/>
<path d="M0 0 C2 2 2 2 2 5 C-0.64 5.33 -3.28 5.66 -6 6 C-6.33 5.34 -6.66 4.68 -7 4 C-4.69 2.68 -2.38 1.36 0 0 Z " fill="#EDA723" transform="translate(64,20)"/>
<path d="M0 0 C0.66 0.33 1.32 0.66 2 1 C-0.44463241 4.66694861 -1.93225609 4.67175709 -6 6 C-7.0194119 6.98020375 -8.02246356 7.97803008 -9 9 C-11.1875 9.6875 -11.1875 9.6875 -13 10 C-11.5404114 6.1519937 -9.66100886 4.78793456 -6 3 C-4.33480481 2.65939189 -2.66842534 2.32441604 -1 2 C-0.67 1.34 -0.34 0.68 0 0 Z " fill="#ECB146" transform="translate(60,30)"/>
<path d="M0 0 C1.32 0.33 2.64 0.66 4 1 C4.33 3.97 4.66 6.94 5 10 C2 10 2 10 0 9 C0 8.01 0 7.02 0 6 C0.99 6 1.98 6 3 6 C2.01 4.02 1.02 2.04 0 0 Z " fill="#E9A831" transform="translate(15,140)"/>
<path d="M0 0 C1.65 0 3.3 0 5 0 C5 0.99 5 1.98 5 3 C5.66 3.33 6.32 3.66 7 4 C6.01 5.32 5.02 6.64 4 8 C2.68 5.36 1.36 2.72 0 0 Z " fill="#E9AC3A" transform="translate(101,111)"/>
<path d="M0 0 C0.33 0.66 0.66 1.32 1 2 C0.67 2.99 0.34 3.98 0 5 C-0.99 4.67 -1.98 4.34 -3 4 C-4.8802101 4.7460698 -4.8802101 4.7460698 -6.6875 5.9375 C-7.780625 6.618125 -8.87375 7.29875 -10 8 C-9.78515625 6.140625 -9.78515625 6.140625 -9 4 C-6.93359375 2.734375 -6.93359375 2.734375 -4.4375 1.75 C-3.61121094 1.41484375 -2.78492188 1.0796875 -1.93359375 0.734375 C-1.29550781 0.49203125 -0.65742187 0.2496875 0 0 Z " fill="#E8AE44" transform="translate(58,13)"/>
<path d="M0 0 C3.625 0.375 3.625 0.375 7 1 C7 1.99 7 2.98 7 4 C6.071875 3.773125 5.14375 3.54625 4.1875 3.3125 C1.03682848 2.62434952 1.03682848 2.62434952 -0.75 4.4375 C-1.1625 4.953125 -1.575 5.46875 -2 6 C-2.66 6 -3.32 6 -4 6 C-2.84826645 3.53199953 -1.95216435 1.95216435 0 0 Z " fill="#FBE6A0" transform="translate(147,78)"/>
<path d="M0 0 C1.42944945 2.35438733 2.08661261 3.48032433 1.625 6.25 C1.41875 6.8275 1.2125 7.405 1 8 C-0.32 8.33 -1.64 8.66 -3 9 C-2.44271087 5.65626525 -1.64826111 2.96687001 0 0 Z " fill="#F7C25A" transform="translate(23,56)"/>
<path d="M0 0 C0.7940625 0.07863281 1.588125 0.15726563 2.40625 0.23828125 C4.5 0.6875 4.5 0.6875 6.5 2.6875 C5.4275 2.666875 4.355 2.64625 3.25 2.625 C0.3070768 2.67404872 -1.72776061 2.96877127 -4.5 3.6875 C-5.16 3.3575 -5.82 3.0275 -6.5 2.6875 C-6.5 2.0275 -6.5 1.3675 -6.5 0.6875 C-4.02756353 -0.54871824 -2.72682061 -0.29658601 0 0 Z " fill="#F5DA8E" transform="translate(117.5,0.3125)"/>
<path d="M0 0 C0.66 0 1.32 0 2 0 C0.31326082 4.49797113 -1.81673892 8.72886302 -4 13 C-4.66 12.34 -5.32 11.68 -6 11 C-4.02 7.37 -2.04 3.74 0 0 Z " fill="#FDE79F" transform="translate(112,106)"/>
<path d="M0 0 C1.0725 0.2475 2.145 0.495 3.25 0.75 C3.25 1.74 3.25 2.73 3.25 3.75 C2.156875 3.523125 1.06375 3.29625 -0.0625 3.0625 C-3.65531273 2.34853617 -3.65531273 2.34853617 -5.6875 4.1875 C-6.038125 4.703125 -6.38875 5.21875 -6.75 5.75 C-7.08 5.09 -7.41 4.43 -7.75 3.75 C-5.15187156 0.32047046 -4.43092205 -0.2953948 0 0 Z " fill="#FBE5A1" transform="translate(94.75,78.25)"/>
<path d="M0 0 C1.32 0 2.64 0 4 0 C3.42655063 2.86724686 3.1385485 3.8614515 1 6 C-1.125 5.625 -1.125 5.625 -3 5 C-1.75 2.5 -1.75 2.5 0 0 Z " fill="#F2C86B" transform="translate(95,70)"/>
<path d="M0 0 C0.66 0.33 1.32 0.66 2 1 C1.67 1.99 1.34 2.98 1 4 C0.65772583 5.33106622 0.32248257 6.66400079 0 8 C-2.97 7.505 -2.97 7.505 -6 7 C-5.01 6.01 -4.02 5.02 -3 4 C-2.34 4.33 -1.68 4.66 -1 5 C-0.67 3.35 -0.34 1.7 0 0 Z " fill="#EDAA2D" transform="translate(45,40)"/>
<path d="M0 0 C-0.33 1.32 -0.66 2.64 -1 4 C-2.98 4 -4.96 4 -7 4 C-7 3.01 -7 2.02 -7 1 C-4.53721199 -0.231394 -2.7204945 -0.07159196 0 0 Z " fill="#F1A71D" transform="translate(148,123)"/>
<path d="M0 0 C0.66 0.33 1.32 0.66 2 1 C2 2.32 2 3.64 2 5 C1.30132812 5.13277344 0.60265625 5.26554687 -0.1171875 5.40234375 C-1.02726563 5.57894531 -1.93734375 5.75554687 -2.875 5.9375 C-3.77992188 6.11152344 -4.68484375 6.28554687 -5.6171875 6.46484375 C-7.99956317 6.89963701 -7.99956317 6.89963701 -10 8 C-10 6.68 -10 5.36 -10 4 C-6.37 4 -2.74 4 1 4 C0.67 2.68 0.34 1.36 0 0 Z " fill="#E6AB3B" transform="translate(148,115)"/>
<path d="M0 0 C3.37462715 0.54723683 5.08235 1.0549 8 3 C8.6875 5.125 8.6875 5.125 9 7 C5.18315774 5.44499019 2.80804268 2.96404505 0 0 Z " fill="#F2D28B" transform="translate(44,182)"/>
<path d="M0 0 C2 0 2 0 4.375 2.1875 C6.72570111 4.70610834 8.89676626 7.27358589 11 10 C7.96147295 8.59023295 5.4060405 6.91129772 2.75 4.875 C2.04359375 4.33617187 1.3371875 3.79734375 0.609375 3.2421875 C0.07828125 2.83226562 -0.4528125 2.42234375 -1 2 C-0.67 1.34 -0.34 0.68 0 0 Z " fill="#FEF5CA" transform="translate(31,171)"/>
<path d="M0 0 C3.4375 0.8125 3.4375 0.8125 7 2 C7.33 2.99 7.66 3.98 8 5 C4.7 4.67 1.4 4.34 -2 4 C-1.34 2.68 -0.68 1.36 0 0 Z " fill="#EEBD5F" transform="translate(144,10)"/>
<path d="M0 0 C0.33 0 0.66 0 1 0 C1.98248524 4.0527516 2.08159574 7.83861737 2 12 C1.01 12.33 0.02 12.66 -1 13 C-0.67 8.71 -0.34 4.42 0 0 Z " fill="#E9A628" transform="translate(10,100)"/>
<path d="M0 0 C0.33 0.66 0.66 1.32 1 2 C1.66 2 2.32 2 3 2 C3 2.66 3 3.32 3 4 C2.01 4.495 2.01 4.495 1 5 C0.34444881 7.52733235 0.34444881 7.52733235 0 10 C-0.33 10 -0.66 10 -1 10 C-1.66 7.03 -2.32 4.06 -3 1 C-2.01 0.67 -1.02 0.34 0 0 Z " fill="#F0B137" transform="translate(101,78)"/>
<path d="M0 0 C2.97 0 5.94 0 9 0 C9.33 0.66 9.66 1.32 10 2 C6.7 2.33 3.4 2.66 0 3 C0 2.01 0 1.02 0 0 Z " fill="#E8A92B" transform="translate(65,75)"/>
<path d="M0 0 C1.4540625 0.0309375 1.4540625 0.0309375 2.9375 0.0625 C3.2675 0.7225 3.5975 1.3825 3.9375 2.0625 C1.6275 2.3925 -0.6825 2.7225 -3.0625 3.0625 C-3.3925 4.0525 -3.7225 5.0425 -4.0625 6.0625 C-4.105221 4.39638095 -4.10313832 2.72867115 -4.0625 1.0625 C-3.0625 0.0625 -3.0625 0.0625 0 0 Z " fill="#E8A932" transform="translate(54.0625,113.9375)"/>
<path d="M0 0 C0.66 0 1.32 0 2 0 C2 0.99 2 1.98 2 3 C3.98 3 5.96 3 8 3 C8 3.33 8 3.66 8 4 C6.02 4 4.04 4 2 4 C1.67 5.32 1.34 6.64 1 8 C0 7 0 7 -0.0625 3.4375 C-0.041875 2.303125 -0.02125 1.16875 0 0 Z " fill="#FDF2B8" transform="translate(142,84)"/>
<path d="M0 0 C1.1875 1.5625 1.1875 1.5625 2 4 C0.625 7.75 0.625 7.75 -1 11 C-1.66 11 -2.32 11 -3 11 C-2.690625 9.9275 -2.38125 8.855 -2.0625 7.75 C-1.33187904 5.17133778 -0.62517096 2.60487898 0 0 Z " fill="#F0A71C" transform="translate(20,69)"/>
<path d="M0 0 C0.33 0 0.66 0 1 0 C0.53199289 4.05606165 0.12046792 7.46588679 -2 11 C-3.14947895 7.44706507 -3.0868937 6.20023331 -1.5625 2.6875 C-1.046875 1.800625 -0.53125 0.91375 0 0 Z " fill="#F0D2A0" transform="translate(9,67)"/>
<path d="M0 0 C2.97 0 5.94 0 9 0 C8 2 8 2 5.625 3.125 C3 4 3 4 0 4 C0 2.68 0 1.36 0 0 Z " fill="#F1C773" transform="translate(136,190)"/>
<path d="M0 0 C0.66 0 1.32 0 2 0 C2.33 2.31 2.66 4.62 3 7 C1.68 6.67 0.36 6.34 -1 6 C-0.67 4.02 -0.34 2.04 0 0 Z " fill="#F1BA47" transform="translate(17,96)"/>
<path d="M0 0 C2 1 2 1 3.1875 3.3125 C4.03624754 6.11989571 3.99928333 7.301935 3 10 C2.67 8.68 2.34 7.36 2 6 C1.34 6 0.68 6 0 6 C0 4.02 0 2.04 0 0 Z " fill="#F7BA42" transform="translate(188,70)"/>
<path d="M0 0 C-0.33 0.99 -0.66 1.98 -1 3 C-3.97 3 -6.94 3 -10 3 C-7.28464405 0.28464405 -3.67870689 -1.83935344 0 0 Z " fill="#FBEFCB" transform="translate(72,7)"/>
<path d="M0 0 C0.33 0.66 0.66 1.32 1 2 C0.19152271 3.16945792 -0.62189112 4.33550461 -1.4375 5.5 C-1.88996094 6.1496875 -2.34242188 6.799375 -2.80859375 7.46875 C-3.20175781 7.9740625 -3.59492188 8.479375 -4 9 C-4.33 9 -4.66 9 -5 9 C-5 7.35 -5 5.7 -5 4 C-4.01 3.67 -3.02 3.34 -2 3 C-1.34 2.01 -0.68 1.02 0 0 Z " fill="#F6D785" transform="translate(184,151)"/>
<path d="M0 0 C3 1 3 1 4 3 C4.06950541 4.54023996 4.08452357 6.08334988 4.0625 7.625 C4.05347656 8.44226563 4.04445313 9.25953125 4.03515625 10.1015625 C4.02355469 10.72804688 4.01195313 11.35453125 4 12 C3.67 12 3.34 12 3 12 C2.86722656 11.38511719 2.73445313 10.77023438 2.59765625 10.13671875 C2.42105469 9.32847656 2.24445313 8.52023438 2.0625 7.6875 C1.88847656 6.88699219 1.71445313 6.08648437 1.53515625 5.26171875 C1.00113841 2.854599 1.00113841 2.854599 0 0 Z " fill="#FDF2BB" transform="translate(76,76)"/>
<path d="M0 0 C0.6875 1.8125 0.6875 1.8125 1 4 C-0.3125 5.75 -0.3125 5.75 -2 7 C-2.66 7 -3.32 7 -4 7 C-3.43628586 3.73045798 -2.50037734 2.17424117 0 0 Z " fill="#EBBC65" transform="translate(35,27)"/>
<path d="M0 0 C0.99 0.33 1.98 0.66 3 1 C3.6875 3.0625 3.6875 3.0625 4 5 C3.34 5 2.68 5 2 5 C1.67 6.32 1.34 7.64 1 9 C0.67 6.03 0.34 3.06 0 0 Z " fill="#E6B34F" transform="translate(4,120)"/>
<path d="M0 0 C1.258125 0.226875 2.51625 0.45375 3.8125 0.6875 C3.8125 1.0175 3.8125 1.3475 3.8125 1.6875 C-3.8125 2.6875 -3.8125 2.6875 -7.1875 2.6875 C-5.15110924 -0.49436057 -3.4972064 -0.45804119 0 0 Z " fill="#FBDF99" transform="translate(146.1875,120.3125)"/>
<path d="M0 0 C0.99 0.33 1.98 0.66 3 1 C2.67 2.32 2.34 3.64 2 5 C1.34 5 0.68 5 0 5 C-0.33 5.66 -0.66 6.32 -1 7 C-1.625 5.1875 -1.625 5.1875 -2 3 C-1.34 2.01 -0.68 1.02 0 0 Z " fill="#FBE4A9" transform="translate(15,58)"/>
<path d="M0 0 C-0.625 1.875 -0.625 1.875 -2 4 C-5.125 5.25 -5.125 5.25 -8 6 C-3.38461538 0 -3.38461538 0 0 0 Z " fill="#FEEEBC" transform="translate(45,24)"/>
<path d="M0 0 C0.66 0 1.32 0 2 0 C1.25 5.75 1.25 5.75 -1 8 C-1.33 6.02 -1.66 4.04 -2 2 C-1.34 2 -0.68 2 0 2 C0 1.34 0 0.68 0 0 Z " fill="#EAA92D" transform="translate(84,114)"/>
<path d="M0 0 C0.66 0.33 1.32 0.66 2 1 C1.67 1.66 1.34 2.32 1 3 C2.32 2.67 3.64 2.34 5 2 C5 2.66 5 3.32 5 4 C2.69 4 0.38 4 -2 4 C-2 3.01 -2 2.02 -2 1 C-1.34 0.67 -0.68 0.34 0 0 Z " fill="#F2A81A" transform="translate(92,81)"/>
<path d="M0 0 C0.99 0 1.98 0 3 0 C3.33 1.32 3.66 2.64 4 4 C2.02 4 0.04 4 -2 4 C-2 2 -2 2 0 0 Z " fill="#F3A71C" transform="translate(149,81)"/>
<path d="M0 0 C0 0.66 0 1.32 0 2 C-2.31 2.33 -4.62 2.66 -7 3 C-7 3.66 -7 4.32 -7 5 C-7.66 4.67 -8.32 4.34 -9 4 C-8.67 3.01 -8.34 2.02 -8 1 C-2.25 0 -2.25 0 0 0 Z " fill="#F2CA79" transform="translate(80,5)"/>
</svg>
