<?xml version="1.0" standalone="no"?>
<!DOCTYPE svg PUBLIC "-//W3C//DTD SVG 20010904//EN"
 "http://www.w3.org/TR/2001/REC-SVG-20010904/DTD/svg10.dtd">
<svg version="1.0" xmlns="http://www.w3.org/2000/svg"
 width="48.000000pt" height="48.000000pt" viewBox="0 0 48.000000 48.000000"
 preserveAspectRatio="xMidYMid meet">

<g transform="translate(0.000000,48.000000) scale(0.100000,-0.100000)"
fill="#000000" stroke="none">
<path d="M0 240 l0 -240 65 0 65 0 0 68 0 67 170 165 c94 91 170 168 170 173
0 4 -37 7 -82 7 l-83 0 -80 -95 c-44 -52 -83 -95 -87 -95 -5 0 -8 43 -8 95 l0
95 -65 0 -65 0 0 -240z"/>
<path d="M320 146 c0 -78 17 -112 67 -132 18 -8 37 -14 43 -14 6 0 10 29 10
71 0 65 -2 73 -29 100 -16 16 -36 29 -44 29 -9 0 -22 3 -31 6 -14 5 -16 -4
-16 -60z"/>
</g>
</svg>
