<?xml version="1.0" encoding="UTF-8"?>
<svg version="1.1" xmlns="http://www.w3.org/2000/svg" width="1024" height="1024">
<path d="M0 0 C337.92 0 675.84 0 1024 0 C1024 337.92 1024 675.84 1024 1024 C686.08 1024 348.16 1024 0 1024 C0 686.08 0 348.16 0 0 Z " fill="#2F2F2F" transform="translate(0,0)"/>
<path d="M0 0 C1.61520035 -0.01268921 1.61520035 -0.01268921 3.26303101 -0.02563477 C4.44442657 -0.01956207 5.62582214 -0.01348938 6.84301758 -0.00723267 C8.70913193 -0.0151181 8.70913193 -0.0151181 10.61294556 -0.02316284 C14.0262752 -0.03411622 17.43906045 -0.03153227 20.85235977 -0.02202559 C24.42241403 -0.01443632 27.99244484 -0.02147255 31.5625 -0.02618408 C37.55806664 -0.03164379 43.55352245 -0.02444445 49.54907227 -0.01016235 C56.483196 0.00616466 63.41705512 0.0008763 70.35117245 -0.01564157 C76.30199672 -0.02925038 82.25274128 -0.03117909 88.20357609 -0.02332556 C91.7589203 -0.01864568 95.31414008 -0.01803274 98.86947632 -0.02793503 C102.83211575 -0.03820057 106.79445818 -0.02397709 110.75708008 -0.00723267 C111.93847565 -0.01330536 113.11987122 -0.01937805 114.33706665 -0.02563477 C115.41386688 -0.01717529 116.49066711 -0.00871582 117.60009766 0 C119.00597893 0.00169662 119.00597893 0.00169662 120.44026184 0.00342751 C122.80004883 0.38095093 122.80004883 0.38095093 124.60054588 1.54137897 C126.30151794 4.15000991 126.18232164 6.09084626 126.19204712 9.1950531 C126.20314011 10.40792496 126.21423309 11.62079681 126.22566223 12.87042236 C126.2228933 14.21646176 126.21984748 15.56250061 126.21655273 16.90853882 C126.22393099 18.32444479 126.23263545 19.74034439 126.24256897 21.15623474 C126.26592285 25.00320918 126.27104314 28.85002235 126.27322817 32.69705892 C126.2788819 36.71873355 126.30215 40.74030254 126.32382202 44.76191711 C126.36237302 52.38093653 126.38657457 59.99992578 126.40494668 67.61901802 C126.43833447 81.27075786 126.49601193 94.92240731 126.55893838 108.5740394 C126.58046695 113.36792744 126.59571561 118.16178415 126.60577798 122.95570958 C126.61278171 125.93308829 126.62365981 128.91044452 126.63541985 131.88780785 C126.63998871 133.27215234 126.64282788 134.65650375 126.6438427 136.04085541 C126.64540798 137.92519016 126.65352578 139.80951613 126.66201782 141.6938324 C126.66585196 143.27808061 126.66585196 143.27808061 126.66976357 144.89433384 C126.63395267 147.381927 126.63395267 147.381927 127.80004883 149.38095093 C128.65280301 149.38333928 129.50555719 149.38572763 130.38415241 149.38818836 C151.11476612 149.44727385 171.84526295 149.52278235 192.5757494 149.61666584 C202.60078189 149.66166905 212.6257785 149.7010732 222.65087891 149.72738647 C231.3867578 149.75032999 240.12252356 149.78368694 248.85831279 149.82965249 C253.48567088 149.85363407 258.11291659 149.87233042 262.74033546 149.87856483 C267.09305039 149.88459347 271.44547756 149.90451222 275.79808617 149.93522644 C277.39807516 149.94404247 278.9981017 149.94772191 280.59811401 149.94595909 C282.778173 149.94431512 284.95734558 149.96092873 287.13728333 149.98222351 C288.35865903 149.98683248 289.58003473 149.99144144 290.83842182 149.99619007 C293.80004883 150.38095093 293.80004883 150.38095093 295.69308281 151.58366776 C297.18754785 154.01009894 297.17478476 155.69009895 297.17427063 158.53620911 C297.18128494 159.60315002 297.18829926 160.67009094 297.19552612 161.7693634 C297.18788239 162.93983719 297.18023865 164.11031097 297.17236328 165.31625366 C297.17601395 166.54897003 297.17966461 167.7816864 297.1834259 169.05175781 C297.19015047 172.43417303 297.18340636 175.81603968 297.17009377 179.19840121 C297.15878267 182.73728403 297.16288658 186.27615252 297.1648407 189.81504822 C297.1657239 195.75934578 297.15463887 201.70352935 297.13623047 207.64779663 C297.11507212 214.51937308 297.11155073 221.39078241 297.11779243 228.26238483 C297.12348874 234.87199321 297.11783665 241.48154276 297.10661888 248.09114265 C297.10197543 250.90405427 297.10109796 253.71692988 297.10320473 256.52984428 C297.1054394 260.45871063 297.09097315 264.38741828 297.07470703 268.31625366 C297.07842316 270.06892799 297.07842316 270.06892799 297.08221436 271.85700989 C297.07512955 272.92677063 297.06804474 273.99653137 297.06074524 275.09870911 C297.05869237 276.02766715 297.0566395 276.95662519 297.05452442 277.91373348 C296.78095874 280.56603511 296.29133593 282.17515203 294.80004883 284.38095093 C291.41366159 285.50974667 288.83585054 285.51420671 285.26463318 285.52571106 C284.597862 285.52923791 283.93109082 285.53276475 283.24411446 285.53639847 C281.00550942 285.54708986 278.76694692 285.55076714 276.52832031 285.55453491 C274.9252301 285.56083966 273.32214165 285.56760537 271.71905518 285.57479858 C268.26505841 285.58947114 264.81106843 285.60119461 261.35705376 285.61074638 C255.89962959 285.62618245 250.44226368 285.65012975 244.98487854 285.67564392 C229.4657051 285.74689582 213.94649872 285.80671085 198.42724609 285.85775757 C189.85765305 285.88602032 181.28811839 285.92137603 172.7185865 285.96441132 C167.28911263 285.99124556 161.85970481 286.00911226 156.43017757 286.02044857 C153.05834895 286.02954794 149.68660094 286.04689643 146.31481934 286.0666275 C144.74665145 286.07412643 143.17846293 286.07818546 141.61027718 286.07862282 C139.47618361 286.07969898 137.34250409 286.09288839 135.20848083 286.10920715 C134.01220283 286.11343909 132.81592482 286.11767103 131.58339596 286.12203121 C128.66010765 286.0951778 128.66010765 286.0951778 126.80004883 288.38095093 C126.49233804 291.43128512 126.49233804 291.43128512 126.54176331 295.08636475 C126.53624975 296.13212581 126.53624975 296.13212581 126.53062481 297.19901335 C126.52060532 299.5466792 126.52480337 301.89411002 126.52880859 304.24179077 C126.52442379 305.92030592 126.51912253 307.59881889 126.51296997 309.27732849 C126.50144938 312.89778348 126.49600905 316.51817978 126.49508858 320.1386528 C126.49315233 325.86120712 126.4751236 331.58363962 126.45433044 337.30615234 C126.40507903 351.52198956 126.37424767 365.73785998 126.35302734 379.95376587 C126.33651754 390.99633588 126.31373589 402.03880196 126.2700066 413.08130229 C126.24819086 418.77202637 126.24017608 424.46255322 126.24239933 430.15331626 C126.24073495 433.69242271 126.22670076 437.23139997 126.20918655 440.77046013 C126.2035775 442.41358058 126.20311058 444.05672771 126.20812416 445.69985008 C126.21424547 447.94072015 126.20207115 450.18077115 126.18531799 452.42156982 C126.18330667 453.67629782 126.18129534 454.93102581 126.17922306 456.22377586 C125.76757423 459.651349 125.3760004 461.09343401 122.80004883 463.38095093 C120.45867252 463.88431549 120.45867252 463.88431549 117.64479065 463.8888855 C116.04437927 463.90580444 116.04437927 463.90580444 114.41163635 463.92306519 C113.24116257 463.91496826 112.07068878 463.90687134 110.86474609 463.89852905 C109.63202972 463.90553833 108.39931335 463.91254761 107.12924194 463.91976929 C103.74668382 463.93437481 100.36510229 463.93092826 96.98259854 463.91825294 C93.44370276 463.90813196 89.90484895 463.91751631 86.36595154 463.92379761 C80.42162578 463.93107764 74.47749872 463.92147815 68.53320312 463.9024353 C61.66151158 463.88067565 54.79029491 463.88770951 47.91861492 463.90974092 C42.01956098 463.9278969 36.12064996 463.93045205 30.22157711 463.91998625 C26.69802407 463.91375102 23.17469416 463.912916 19.65115547 463.9261322 C15.72216486 463.93983926 11.79370531 463.92083757 7.86474609 463.89852905 C6.69629654 463.90662598 5.52784698 463.9147229 4.32398987 463.92306519 C3.25422913 463.91178589 2.18446838 463.90050659 1.08229065 463.8888855 C0.15333261 463.8873774 -0.77562544 463.88586929 -1.73273373 463.88431549 C-5.09151578 463.19905288 -6.22361307 462.1698688 -8.19995117 459.38095093 C-8.69937992 456.24218655 -8.69937992 456.24218655 -8.69874573 452.46626282 C-8.70682256 451.42300546 -8.70682256 451.42300546 -8.71506256 450.3586722 C-8.72833617 448.02841887 -8.71318712 445.69921847 -8.69824219 443.36898804 C-8.70206508 441.69840511 -8.70768386 440.02782546 -8.71496582 438.35725403 C-8.72692263 434.76021367 -8.72642248 431.16346517 -8.71637154 427.5664196 C-8.70083 421.88173256 -8.71447466 416.19734626 -8.73240662 410.51268005 C-8.76324051 399.47458291 -8.7647268 388.43657738 -8.76275635 377.39844513 C-8.76136382 363.34430178 -8.77164055 349.29022862 -8.81133407 335.23613745 C-8.82629945 329.58189656 -8.82597437 323.92792089 -8.81385624 318.2736758 C-8.80915709 314.76085952 -8.81664657 311.24814551 -8.82740021 307.73534584 C-8.82981343 306.10308128 -8.82704614 304.47079986 -8.81879234 302.83855438 C-8.80821832 300.61498276 -8.81588555 298.39220089 -8.82814026 296.1686554 C-8.82755395 294.92297759 -8.82696764 293.67729979 -8.82636356 292.39387417 C-8.98909998 289.45274592 -8.98909998 289.45274592 -10.31556702 287.47953701 C-13.13956627 285.83316025 -15.46660617 286.0107298 -18.72190857 286.01586914 C-19.38726862 286.01275014 -20.05262866 286.00963115 -20.73815113 286.00641763 C-22.97230761 285.99946184 -25.20582601 286.01381795 -27.43994141 286.02792358 C-29.03978602 286.02709298 -30.63963043 286.02487741 -32.23947144 286.02137756 C-35.68698084 286.01642318 -39.13432029 286.02053514 -42.58181572 286.03139114 C-48.0314272 286.04772307 -53.4808244 286.03930024 -58.93043518 286.02655029 C-73.44834356 285.9963991 -87.96621376 285.99790415 -102.48413759 286.01680315 C-112.02059384 286.0291264 -121.55680822 286.02730494 -131.09323651 285.99841535 C-136.51234643 285.98315402 -141.93080126 285.99070353 -147.34987056 286.01512551 C-150.71968127 286.02518091 -154.08918991 286.01452249 -157.4589653 285.99801064 C-159.02308606 285.99455257 -160.58725262 285.99968345 -162.15131187 286.01397896 C-164.28532864 286.03227827 -166.41705841 286.01996293 -168.55101013 286 C-169.74544456 286.00113108 -170.93987898 286.00226215 -172.17050838 286.00342751 C-175.19995117 285.38095093 -175.19995117 285.38095093 -177.58418465 283.17991638 C-179.35362565 280.11474319 -179.70036609 278.48390798 -179.70115662 274.97845459 C-179.71590782 273.37175148 -179.71590782 273.37175148 -179.73095703 271.73258972 C-179.72128906 270.56773544 -179.71162109 269.40288116 -179.70166016 268.20272827 C-179.70706314 266.96811356 -179.71246613 265.73349884 -179.71803284 264.46147156 C-179.72838645 261.08321874 -179.72083198 257.70594763 -179.70432162 254.3277812 C-179.69045451 250.79110804 -179.69693285 247.25446399 -179.70045471 243.71777344 C-179.70315483 237.78119699 -179.68969608 231.84482296 -179.66650391 225.90829468 C-179.63987075 219.0434188 -179.63815548 212.1788808 -179.64989227 205.31397092 C-179.66066639 198.70860491 -179.6544875 192.10336121 -179.64033699 185.49800491 C-179.63457642 182.68703955 -179.63466032 179.87616367 -179.63940239 177.06519699 C-179.64505515 173.14346243 -179.62586669 169.22206693 -179.60400391 165.30038452 C-179.60850555 164.13148178 -179.6130072 162.96257904 -179.61764526 161.758255 C-179.60774063 160.69275925 -179.597836 159.62726349 -179.58763123 158.52947998 C-179.58520133 157.60219778 -179.58277143 156.67491558 -179.58026791 155.71953392 C-179.19995117 153.38095093 -179.19995117 153.38095093 -178.08655739 151.58366776 C-175.26561138 149.78530665 -172.95412647 149.99810083 -169.62657166 149.98895264 C-168.95571693 149.98301138 -168.2848622 149.97707011 -167.59367853 149.97094882 C-165.34109335 149.95461107 -163.0890577 149.95961187 -160.83642578 149.96444702 C-159.22347887 149.95706961 -157.61053756 149.94836542 -155.99760437 149.93843079 C-151.61346105 149.91506732 -147.22945922 149.90995606 -142.84526134 149.90777159 C-138.26304908 149.90211991 -133.68092966 149.8788532 -129.09877014 149.85717773 C-120.41726998 149.81861984 -111.73579629 149.79442259 -103.05423218 149.77605307 C-87.49860407 149.7426697 -71.94305529 149.68499923 -56.3875218 149.62206137 C-50.92460237 149.60052749 -45.46171047 149.58528185 -39.9987582 149.57522178 C-36.60620209 149.56821981 -33.21366573 149.55734195 -29.82112312 149.54557991 C-28.24327118 149.54100961 -26.66541317 149.53817155 -25.08755493 149.53715706 C-22.94044459 149.53559268 -20.79343689 149.52803257 -18.64634705 149.51898193 C-17.44269469 149.51642584 -16.23904234 149.51386974 -14.99891567 149.51123619 C-12.24537303 149.57247078 -12.24537303 149.57247078 -10.19995117 148.38095093 C-9.14454346 145.2147278 -9.07009009 142.97519129 -9.06192017 139.64950562 C-9.05646683 138.45490723 -9.05101349 137.26030884 -9.0453949 136.0295105 C-9.04435257 134.71720459 -9.04331024 133.40489868 -9.04223633 132.05282593 C-9.03756768 130.65825236 -9.03242403 129.26368031 -9.02684021 127.86911011 C-9.01556287 124.86528669 -9.00712707 121.86147318 -9.00072098 118.8576355 C-8.99004421 114.1098358 -8.96980156 109.36210743 -8.94760132 104.61434937 C-8.88566187 91.11340592 -8.83162111 77.61246708 -8.79858398 64.11141968 C-8.7802592 56.65550551 -8.75135343 49.19971117 -8.71057928 41.74388504 C-8.68947889 37.79731489 -8.67404769 33.8508959 -8.671772 29.90426636 C-8.66963009 26.1941735 -8.6538081 22.48439576 -8.62738228 18.7743988 C-8.61672675 16.76042442 -8.62095106 14.74638865 -8.62556458 12.73239136 C-8.60892509 10.94049377 -8.60892509 10.94049377 -8.59194946 9.11239624 C-8.58863932 8.07190125 -8.58532917 7.03140625 -8.58191872 5.9593811 C-8.19995117 3.38095093 -8.19995117 3.38095093 -7.00044823 1.54654503 C-4.56341186 -0.03112776 -2.89725504 0.0034964 0 0 Z " fill="#F5F5F5" transform="translate(457.199951171875,276.6190490722656)"/>
</svg>
