<?xml version="1.0" encoding="UTF-8"?>
<svg version="1.1" xmlns="http://www.w3.org/2000/svg" width="512" height="512">
<path d="M0 0 C2 3 2 3 2.0625 6.25 C3.47521411 11.90085643 7.3923669 13.79579276 12 17 C12.99 17.99 12.99 17.99 14 19 C16.07346793 19.27342893 16.07346793 19.27342893 18.375 19.3125 C21.66459229 19.63882756 22.71124168 19.75806736 25.3125 21.9375 C27.62825224 26.14016148 29.35632894 30.49739043 31 35 C31.46148437 34.61328125 31.92296875 34.2265625 32.3984375 33.828125 C41.16079115 26.83209561 50.48194851 23.32434719 61.7578125 24.21875 C70.50498338 25.48574968 77.40260827 29.17265084 84 35 C85.984375 37.7265625 85.984375 37.7265625 87.75 40.625 C88.34296875 41.58664063 88.9359375 42.54828125 89.546875 43.5390625 C90.40971148 45.00031784 91.24108578 46.48217156 92 48 C93.49962983 48.61680681 95.02607406 49.16910285 96.5625 49.6875 C105.28954678 53.09104825 110.12506497 58.15691754 114.08984375 66.5703125 C115 69 115 69 115.28515625 71.65625 C115.77676739 74.24051798 115.77676739 74.24051798 118.40625 75.3359375 C119.4271875 75.67882812 120.448125 76.02171875 121.5 76.375 C131.98972583 80.37405225 139.51485045 86.83135906 144.44140625 96.96484375 C151.05817833 112.21546658 149.24220272 124.59248243 144 140 C145.03060547 140.72703125 145.03060547 140.72703125 146.08203125 141.46875 C146.98308594 142.1390625 147.88414062 142.809375 148.8125 143.5 C149.70582031 144.1496875 150.59914063 144.799375 151.51953125 145.46875 C154.96852844 148.98835658 156.84110801 153.09981037 157.11120319 158.02974582 C156.97864393 160.23396514 156.72525571 162.39044112 156.42346191 164.57797241 C156.32218066 165.43035 156.2208994 166.28272759 156.11654902 167.16093481 C155.88706237 169.06879005 155.64837675 170.9755544 155.40199471 172.8813014 C154.97741035 176.17525186 154.5797588 179.4716943 154.18644714 182.76951981 C153.31443172 190.03336698 152.40965817 197.2929347 151.50001025 204.55213475 C151.02516106 208.34592743 150.5531644 212.14007526 150.08076477 215.93417358 C149.15871153 223.33590589 148.23401157 230.73730511 147.30826437 238.13857622 C146.55572991 244.15526785 145.80407415 250.17206865 145.05302429 256.18894577 C144.94563363 257.04926145 144.83824297 257.90957713 144.72759804 258.79596298 C144.50936902 260.54421892 144.29114055 262.29247492 144.07291263 264.040731 C142.03371718 280.37596856 139.99133566 296.71080658 137.94796747 313.04552262 C136.0805184 327.97475637 134.21712618 342.90449323 132.35562366 357.83446951 C130.4396016 373.20141146 128.52083984 388.56800906 126.59912157 403.93423975 C125.52206033 412.54691039 124.44607586 421.15971222 123.37297058 429.77287674 C122.46059973 437.0956823 121.54563822 444.4181585 120.6273545 451.74022503 C120.15942288 455.47191521 119.69266296 459.20374173 119.22913551 462.93598175 C118.7259875 466.98693482 118.21708482 471.03714458 117.7076416 475.08731079 C117.56308454 476.25851585 117.41852748 477.42972091 117.2695899 478.63641703 C114.73861343 498.62103341 114.73861343 498.62103341 110 504 C104.19087367 508.12397459 99.76303048 508.57423936 92.74559021 508.50793457 C91.72703809 508.51417453 90.70848598 508.5204145 89.65906864 508.52684355 C86.25351385 508.54277055 82.84867507 508.53016996 79.44311523 508.51757812 C76.99864281 508.52299931 74.55417366 508.53012195 72.10971069 508.53881836 C66.16424826 508.55516081 60.2189711 508.55277391 54.27351385 508.5411678 C49.44104929 508.53212568 44.60864133 508.53091282 39.77617073 508.53526306 C39.08778655 508.53587599 38.39940237 508.53648893 37.69015806 508.53712043 C36.29163017 508.53839936 34.89310229 508.53969621 33.49457444 508.5410108 C20.3888216 508.55240978 7.28318078 508.5393132 -5.82255369 508.51780933 C-17.06429432 508.49993495 -28.30586976 508.50304651 -39.54760742 508.52148438 C-52.60875112 508.54289632 -65.66979674 508.5513154 -78.73095554 508.53903532 C-80.12396584 508.53776115 -81.51697616 508.53650366 -82.9099865 508.53526306 C-83.59534077 508.53464596 -84.28069504 508.53402886 -84.98681762 508.53339306 C-89.81316629 508.52994141 -94.63945267 508.53576438 -99.4657917 508.54518127 C-105.96243265 508.55757882 -112.45883494 508.54873715 -118.95544815 508.52560425 C-121.34112593 508.52031052 -123.72682995 508.52184221 -126.11249733 508.53065491 C-129.36621233 508.54156706 -132.61892304 508.52789801 -135.87257385 508.50793457 C-136.81916809 508.51685746 -137.76576233 508.52578034 -138.74104124 508.53497362 C-144.33915146 508.46823743 -147.56031715 507.74057631 -152 504 C-158.62954925 497.18629661 -158.68963818 487.77220765 -159.79702759 478.77336121 C-159.96740294 477.42145322 -160.13826034 476.06960591 -160.30955637 474.71781427 C-160.77748414 471.01383205 -161.23851839 467.30901988 -161.69839382 463.60403049 C-162.19609405 459.60410742 -162.70016986 455.60498719 -163.20341492 451.60575867 C-164.18778856 443.77463344 -165.16615689 435.94276921 -166.14234616 428.11061998 C-166.93605453 421.74335497 -167.73188108 415.37635806 -168.52921677 409.00954628 C-168.6427356 408.10306345 -168.75625443 407.19658062 -168.87321322 406.26262862 C-169.10384302 404.42104015 -169.33447696 402.5794522 -169.56511502 400.73786477 C-171.72746466 383.46990195 -173.88292838 366.2010849 -176.0361027 348.93197594 C-177.8827349 334.12281164 -179.73552983 319.3144289 -181.59277344 304.5065918 C-183.75029046 287.30465732 -185.90376956 270.10222496 -188.05098951 252.8990019 C-188.28012523 251.06330085 -188.50926696 249.22760055 -188.73841476 247.39190102 C-188.85115331 246.48874488 -188.96389186 245.58558875 -189.08004672 244.65506425 C-189.8737512 238.298954 -190.67035213 231.94321063 -191.46809769 225.58760643 C-192.44084124 217.83723962 -193.40920221 210.08634024 -194.37198783 202.33472987 C-194.86307963 198.38175247 -195.35611547 194.42904418 -195.85452461 190.47698212 C-196.31126575 186.85487384 -196.76225844 183.23209647 -197.20879476 179.60871641 C-197.44718116 177.68628593 -197.69157605 175.76460341 -197.93622649 173.84296006 C-200.34807282 154.1144774 -200.34807282 154.1144774 -196 148 C-193.4808215 145.47051811 -190.90300747 143.08326226 -188 141 C-187.34 141 -186.68 141 -186 141 C-186.49371094 140.03578125 -186.98742187 139.0715625 -187.49609375 138.078125 C-188.14344237 136.80219148 -188.79056599 135.52614379 -189.4375 134.25 C-189.76298828 133.61578125 -190.08847656 132.9815625 -190.42382812 132.328125 C-194.92304498 123.42245865 -195.57952273 113.93954526 -192.5625 104.3125 C-189.20830784 96.19369566 -182.81474316 89.34411876 -175.23828125 84.92578125 C-172.49209722 83.78992503 -169.79181679 83.30746807 -166.875 82.75 C-162.47747056 81.80234922 -162.47747056 81.80234922 -159.14453125 78.95703125 C-158.18469214 77.37960129 -157.25765906 75.78166468 -156.3671875 74.1640625 C-154.18207004 70.70533372 -151.70941006 69.60974399 -148 68 C-147.01 68 -146.02 68 -145 68 C-145.05220703 67.01773438 -145.05220703 67.01773438 -145.10546875 66.015625 C-145.51285085 52.28102857 -141.70117602 41.07762357 -132.5 30.8125 C-122.9538371 21.72795039 -111.37451677 18.65560399 -98.5625 18.7890625 C-89.25182562 19.34035243 -81.93028825 23.34133257 -74 28 C-73.67128906 27.39414062 -73.34257812 26.78828125 -73.00390625 26.1640625 C-64.86234614 11.82256095 -53.8479128 2.03022488 -38 -3 C-26.64320165 -6.05996918 -10.40726748 -5.83822322 0 0 Z " fill="#020201" transform="translate(279,4)"/>
<path d="M0 0 C4.10853938 1.16201114 6.7117931 3.25568914 9.8125 6.125 C10.60269531 6.84945313 11.39289063 7.57390625 12.20703125 8.3203125 C12.79871094 8.87460937 13.39039063 9.42890625 14 10 C13.50371094 10.75925781 13.00742187 11.51851562 12.49609375 12.30078125 C10.41372625 16.05774193 10.97947059 17.84984705 12 22 C12.65964678 23.44073482 13.32707745 24.87791785 14 26.3125 C16.46742675 32.01401824 16.50614777 37.62908964 16.49609375 43.75512695 C16.55309743 47.43305196 16.59508455 49.41144943 18.72265625 52.50390625 C22.66533879 55.09403903 26.46452684 54.82463148 31 54 C35.6789724 50.91386927 36.62094549 47.37743094 38.1328125 42.28125 C40.00651568 37.35222901 43.48272966 34.09384606 47.6875 31.0625 C53.19124428 29.29714806 58.83782976 28.75008812 64.3125 30.9140625 C71.31678746 35.02642824 75.17224761 40.28393617 77.32421875 48.046875 C77.91057359 50.20192529 77.91057359 50.20192529 80 52 C82.2283985 52.53368226 82.2283985 52.53368226 84.75 52.875 C90.32776084 53.91328448 94.01396907 55.74003377 97.8125 60.0625 C99.04268691 63.10559393 99.23845601 65.30856342 99.4375 68.5625 C99.75102095 72.75753608 99.75102095 72.75753608 101.4375 76.5625 C104.02284589 78.01281599 105.73619996 78.38975415 108.625 78.875 C116.38057073 80.20191181 122.64842133 83.8331672 127.5 90.0625 C132.74709005 97.52129952 132.93619732 105.09249156 132 114 C130.72875576 117.63212641 129.11434901 120.79072025 127 124 C125.96875 123.835 124.9375 123.67 123.875 123.5 C107.82103167 121.60297023 95.73624536 124.45386084 81.77734375 132.51171875 C77.34519684 134.88675106 77.34519684 134.88675106 75 135 C72.625 133.70703125 72.625 133.70703125 70 131.8125 C58.75977998 124.26377315 45.16726536 121.06043662 31.78515625 123.61328125 C23.19801552 125.97604603 16.32392568 130.06144455 9 135 C8.33355469 134.62488281 7.66710937 134.24976563 6.98046875 133.86328125 C-6.70389804 126.26510836 -18.93352785 120.18307224 -35.0078125 123.6484375 C-41.09038357 125.67596119 -45.78025299 128.73151334 -50.7109375 132.8046875 C-53 134 -53 134 -55.28515625 133.44921875 C-56.18105469 132.97097656 -57.07695312 132.49273437 -58 132 C-59.28182689 131.36182258 -60.5644471 130.72523724 -61.84765625 130.08984375 C-63.9696246 129.0099667 -66.08838636 127.92416746 -68.20507812 126.83398438 C-68.89150391 126.48529297 -69.57792969 126.13660156 -70.28515625 125.77734375 C-70.90269775 125.46015381 -71.52023926 125.14296387 -72.15649414 124.81616211 C-76.65482814 122.82464701 -81.02337985 122.84829383 -85.875 122.875 C-86.91720703 122.86919922 -86.91720703 122.86919922 -87.98046875 122.86328125 C-92.09187906 122.87102402 -95.9674223 123.20359751 -100 124 C-100.64834654 122.730447 -101.29357815 121.45930294 -101.9375 120.1875 C-102.29714844 119.47980469 -102.65679687 118.77210938 -103.02734375 118.04296875 C-105.88518074 112.04036334 -106.06832518 106.21313068 -103.9765625 99.921875 C-100.31677945 91.87439624 -95.57237777 86.57656966 -87.5078125 82.84765625 C-85.05062291 82.01711086 -83.01557297 81.71045897 -80.4375 81.5625 C-77.77627187 81.28750643 -75.93022693 80.9710697 -73.4375 79.9375 C-71.0156019 76.67320256 -71.55751878 73.98233096 -72 70 C-76.84531244 66.76979171 -82.18480225 67.74698793 -87.75 68.5625 C-97.62329811 70.73797246 -106.36966902 76.62977533 -112 85 C-117.96141308 95.13759016 -121.14229569 105.82268168 -118.39453125 117.59375 C-117.66317414 119.76183401 -116.84603556 121.87459358 -116 124 C-115.28893988 126.32279639 -114.64765654 128.65847252 -114 131 C-118.22006745 134.97892074 -118.22006745 134.97892074 -121.3125 135.0625 C-123.67993581 134.12653701 -125.39549272 133.13976896 -127.5 131.75 C-135.56062291 126.4683728 -145.41059005 122.62484217 -155.125 123.11328125 C-156.07890625 123.14357422 -157.0328125 123.17386719 -158.015625 123.20507812 C-160.00600603 123.27672142 -161.99577948 123.36789349 -163.984375 123.47851562 C-171.06800289 123.65560632 -171.06800289 123.65560632 -173.73046875 121.78271484 C-175.0625 120.23046875 -175.0625 120.23046875 -177 117 C-177.42539063 116.34773438 -177.85078125 115.69546875 -178.2890625 115.0234375 C-180.3414791 109.18194411 -179.94299886 102.03107447 -177.375 96.5 C-170.05051775 88.79001869 -164.45501127 86.81325634 -153.86328125 86.44140625 C-152.91839844 86.29574219 -151.97351563 86.15007812 -151 86 C-148.86820176 82.80230264 -148.36753633 80.52783506 -147.66015625 76.83984375 C-147 75 -147 75 -144 73 C-140.67338624 72.69991886 -137.36985822 72.62177577 -134.03125 72.5390625 C-130.93982038 72.27497368 -130.93982038 72.27497368 -129.078125 70.1875 C-127.46570917 66.91593166 -128.22724365 64.4774036 -129 61 C-129.33 60.34 -129.66 59.68 -130 59 C-130.82083311 49.74207899 -130.20939884 41.54148708 -124.45703125 33.96875 C-119.56008219 28.67959678 -114.7272294 25.441931 -107.5078125 24.5859375 C-99.27231512 24.27109957 -92.68769767 24.95382812 -86 30 C-81.60009481 34.1365904 -78.22094725 38.92081395 -75 44 C-74.67 44.33 -74.34 44.66 -74 45 C-69.20891667 44.76825585 -69.20891667 44.76825585 -65.125 42.5 C-64.02122175 40.04715944 -63.78170634 38.51480405 -63.5625 35.875 C-62.67221603 25.62833543 -57.5985541 17.13010366 -50.0859375 10.24609375 C-39.77974911 2.0545217 -28.94803969 0.22347879 -16 1 C-12.625 2 -12.625 2 -10 3 C-5.61478079 3.48176531 -5.61478079 3.48176531 -1.9375 1.375 C-0.9784375 0.694375 -0.9784375 0.694375 0 0 Z " fill="#FAD69E" transform="translate(280,14)"/>
<path d="M0 0 C1.31121826 0.49597435 1.31121826 0.49597435 2.64892578 1.00196838 C6.57932416 2.8434746 10.06904855 4.63310873 11.73504066 8.86879921 C13.14006754 14.80620995 13.30231691 20.92057297 13.61328125 26.9921875 C13.7558903 29.02507573 13.90325031 31.05763553 14.05503845 33.08985901 C14.45046169 38.5486598 14.78323815 44.00965897 15.10517883 49.47321701 C15.45243609 55.17111001 15.85933229 60.86468834 16.26269531 66.55883789 C16.82793943 74.59974099 17.37721633 82.64137999 17.90348244 90.68492985 C18.71908983 103.13474105 19.63721265 115.57140614 20.68359375 128.00390625 C20.75035686 128.79843452 20.81711998 129.5929628 20.88590622 130.41156769 C21.21092824 134.26946919 21.53894696 138.12710643 21.8692627 141.98455811 C22.49074535 149.24265318 23.0986955 156.50186131 23.69921875 163.76171875 C23.75597401 164.44616814 23.81272926 165.13061752 23.87120438 165.8358078 C24.70360918 175.91233822 25.42235965 185.99282803 26.08203125 196.08203125 C26.25138757 198.59645173 26.42097733 201.11085649 26.59082031 203.62524414 C26.90119068 208.2287734 27.18197841 212.83272379 27.44433594 217.43920898 C27.57766776 219.45433796 27.71203959 221.4693985 27.84765625 223.484375 C27.91156303 224.83635735 27.91156303 224.83635735 27.97676086 226.21565247 C28.29548312 230.57185873 28.61032863 232.5044826 31.38452148 236.03222656 C33.90364533 238.14435779 33.90364533 238.14435779 37 239 C37.495 246.92 37.495 246.92 38 255 C35.525 256.485 35.525 256.485 33 258 C29.68952858 264.62094283 32.36366178 275.43809167 33 282.5625 C33.1910581 284.70932173 33.37862062 286.85645774 33.5625 289.00390625 C33.64628906 289.94049072 33.73007813 290.8770752 33.81640625 291.84204102 C34.05164434 295.88832382 34 299.94688497 34 304 C19.48 304 4.96 304 -10 304 C-12.1875 284.8125 -12.1875 284.8125 -12.84057617 279.03051758 C-14.18911908 267.24514839 -15.72588999 255.49066536 -17.33203125 243.73828125 C-19.96034216 224.50025025 -22.40270476 205.24091294 -24.80224609 185.97314453 C-25.3810936 181.32534847 -25.96327085 176.67797663 -26.54634571 172.03070927 C-29.06731154 151.92583782 -31.50475136 131.81388002 -33.81982994 111.68425179 C-35.36027818 98.30658155 -36.98312627 84.9412838 -38.67578125 71.58203125 C-38.78516399 70.71746811 -38.89454674 69.85290497 -39.00724411 68.96214294 C-40.00045178 61.11449043 -40.99812524 53.26741256 -42.00219727 45.42114258 C-42.56331814 41.03436506 -43.11960376 36.64699644 -43.67287254 32.25922203 C-43.88033038 30.62164557 -44.08961064 28.98429878 -44.30086708 27.34720802 C-44.59225662 25.0885503 -44.87747829 22.82918982 -45.16137695 20.56958008 C-45.32394485 19.29585037 -45.48651276 18.02212067 -45.65400696 16.70979309 C-46.67058453 5.8098847 -46.67058453 5.8098847 -44.3828125 3.046875 C-41.94124733 1.64445348 -39.51376848 0.27003549 -37 -1 C-35.84564453 -1.62261719 -35.84564453 -1.62261719 -34.66796875 -2.2578125 C-23.10874442 -7.74029701 -11.03795289 -5.72664603 0 0 Z " fill="#EDEBED" transform="translate(142,156)"/>
<path d="M0 0 C1.25328754 0.91216672 2.50388165 1.82806354 3.75 2.75 C3.16445901 11.17010706 2.36755781 19.52977977 1.30773926 27.90281677 C1.16466607 29.05308556 1.02159287 30.20335435 0.87418413 31.38847977 C0.39885387 35.20393661 -0.08083658 39.01883182 -0.56054688 42.83374023 C-0.90449718 45.58443319 -1.24752175 48.3352414 -1.59059143 51.08604431 C-2.42311486 57.75685529 -3.25889225 64.42725464 -4.09579289 71.09751772 C-5.0710522 78.87155724 -6.04301335 86.64600806 -7.01484317 94.42047692 C-8.74876194 108.29064216 -10.48560004 122.16044024 -12.22412109 136.0300293 C-13.91011814 149.4806162 -15.59412366 162.93145042 -17.27587891 176.38256836 C-17.37959562 177.2121193 -17.48331234 178.04167023 -17.59017199 178.89635908 C-17.69371157 179.72449671 -17.79725114 180.55263433 -17.90392828 181.40586704 C-18.1124116 183.07336814 -18.32089577 184.74086913 -18.5293808 186.40837002 C-18.63220473 187.23077593 -18.73502865 188.05318184 -18.84096846 188.90050915 C-20.44587616 201.73620035 -22.05261476 214.57166245 -23.65953395 227.40710197 C-24.24134148 232.05454539 -24.82287444 236.70202308 -25.40420711 241.34952592 C-26.32571686 248.71655355 -27.24801264 256.0834818 -28.17195451 263.45020484 C-28.5939468 266.81493076 -29.01555891 270.1797031 -29.43611336 273.54460907 C-29.89218245 277.19190623 -30.34976169 280.83901079 -30.80773926 284.48606873 C-30.94032749 285.54918964 -31.07291572 286.61231056 -31.20952177 287.70764726 C-31.33281497 288.68692723 -31.45610816 289.6662072 -31.58313751 290.67516232 C-31.74123736 291.93703473 -31.74123736 291.93703473 -31.90253115 293.22439951 C-32.29467089 296.07469333 -32.7770007 298.91200421 -33.25 301.75 C-47.44 301.75 -61.63 301.75 -76.25 301.75 C-76.25 285.66630191 -76.25 285.66630191 -75.62670898 278.05444336 C-75.55978851 277.18265064 -75.49286804 276.31085793 -75.42391968 275.41264725 C-75.20317996 272.55461358 -74.97474005 269.69725484 -74.74609375 266.83984375 C-74.58526926 264.78114615 -74.42488546 262.72241409 -74.26490784 260.66365051 C-73.83477276 255.1470977 -73.39769645 249.63111503 -72.95922852 244.11521912 C-72.59527143 239.52408273 -72.23579577 234.93259988 -71.87630272 230.34111214 C-70.02445141 206.69824907 -68.12438335 183.05957385 -66.16015625 159.42578125 C-66.03720593 157.9444209 -66.03720593 157.9444209 -65.91177177 156.43313408 C-65.13466559 147.07189252 -64.35448542 137.71094749 -63.55741787 128.35138226 C-63.26914384 124.95815126 -62.98432937 121.5646352 -62.70017815 118.17105675 C-62.56943146 116.620356 -62.43705317 115.06979172 -62.30282784 113.5193882 C-59.83991761 99.61528253 -59.83991761 99.61528253 -62.64160156 87.01971436 C-64.23704203 85.67181701 -64.23704203 85.67181701 -66.25 84.75 C-66.25 79.14 -66.25 73.53 -66.25 67.75 C-64.27 66.76 -62.29 65.77 -60.25 64.75 C-58.16812064 61.62718096 -57.93823113 60.53748227 -57.67163086 56.93066406 C-57.59492661 55.9524469 -57.51822235 54.97422974 -57.43919373 53.96636963 C-57.36515823 52.9101239 -57.29112274 51.85387817 -57.21484375 50.765625 C-57.13126114 49.67666931 -57.04767853 48.58771362 -56.96156311 47.46575928 C-56.69529777 43.97773792 -56.44093354 40.48897512 -56.1875 37 C-55.92828521 33.52551099 -55.66659348 30.05122604 -55.40272522 26.5770874 C-55.23923126 24.41477041 -55.07880514 22.25221866 -54.92185974 20.0894165 C-53.82929751 5.37142824 -53.82929751 5.37142824 -51.31640625 2.67578125 C-34.6586987 -8.05687588 -17.43821977 -11.53437107 0 0 Z " fill="#F7F5F6" transform="translate(416.25,158.25)"/>
<path d="M0 0 C0.6601967 0.27607369 1.32039339 0.55214739 2.00059605 0.83658695 C4.7000061 2.28356367 6.17356095 3.51506654 8 6 C9.32204723 12.03247172 9.23729059 18.04858422 9.25952148 24.20288086 C9.2951015 26.08814067 9.33415734 27.97333761 9.37641907 29.85845947 C9.4815338 34.98701622 9.53793499 40.11510318 9.58593631 45.2444694 C9.64504647 50.65888103 9.74929889 56.07242546 9.84864807 61.48622131 C10.03098651 71.79242397 10.17329942 82.09877603 10.30114084 92.40578324 C10.44600616 103.94471936 10.63274013 115.48283814 10.82439315 127.02107799 C11.05929377 141.17658714 11.28899311 155.33211747 11.48204041 169.48826599 C11.50257711 170.99003399 11.50257711 170.99003399 11.5235287 172.52214074 C11.54391091 174.01333511 11.54391091 174.01333511 11.5647049 175.53465462 C11.59185837 177.52041787 11.61903661 179.50618079 11.64624023 181.49194336 C11.65949876 182.46047107 11.67275728 183.42899879 11.68641758 184.42687583 C11.9261979 201.7281043 12.27222152 219.02622751 12.67102718 236.32449245 C13.01021683 251.19828415 13.12313293 266.05955172 13.0625 280.9375 C13.05744113 283.22851457 13.05288647 285.51953031 13.04882812 287.81054688 C13.03912561 293.20708832 13.01951343 298.60345151 13 304 C1.78 304 -9.44 304 -21 304 C-21.27714844 300.85855469 -21.55429688 297.71710938 -21.83984375 294.48046875 C-22.11037806 291.442223 -22.38215469 288.40409077 -22.65405273 285.3659668 C-22.84252829 283.25247565 -23.02970961 281.13886867 -23.21557617 279.02514648 C-23.48277042 275.98910735 -23.75459759 272.95351352 -24.02734375 269.91796875 C-24.10967758 268.97100632 -24.19201141 268.02404388 -24.27684021 267.04838562 C-24.35684769 266.16769913 -24.43685516 265.28701263 -24.51928711 264.37963867 C-24.58812607 263.60464523 -24.65696503 262.82965179 -24.72789001 262.03117371 C-24.96197293 259.80164635 -24.96197293 259.80164635 -26 257 C-28.64 256.67 -31.28 256.34 -34 256 C-33.34 255.67 -32.68 255.34 -32 255 C-32.16371094 254.46890625 -32.32742187 253.9378125 -32.49609375 253.390625 C-33.11356377 250.46123236 -33.09501925 247.74177064 -33.0625 244.75 C-33.05347656 243.67234375 -33.04445312 242.5946875 -33.03515625 241.484375 C-33.02355469 240.66453125 -33.01195312 239.8446875 -33 239 C-33.99 238.67 -34.98 238.34 -36 238 C-34.2984375 237.566875 -34.2984375 237.566875 -32.5625 237.125 C-31.386875 236.75375 -30.21125 236.3825 -29 236 C-27.52138573 233.04277145 -27.81950162 230.05321006 -27.82763672 226.8112793 C-27.83018117 225.68526448 -27.83018117 225.68526448 -27.83277702 224.53650188 C-27.93707249 214.33005105 -28.88469942 204.18289821 -29.7578125 194.01953125 C-29.94406044 191.78850294 -30.12962035 189.5574171 -30.31454468 187.32627869 C-30.70741703 182.60020528 -31.10432995 177.87449715 -31.50463867 173.14904785 C-32.44678104 162.02438491 -33.36833252 150.89800745 -34.29138947 139.77174759 C-34.6017383 136.03303839 -34.91288953 132.2943965 -35.22406006 128.55575562 C-37.27726903 103.84536015 -39.18682811 79.12471023 -41.05596352 54.39981174 C-41.28577793 51.36123739 -41.51623762 48.32271205 -41.74663162 45.28418159 C-41.89946704 43.26163715 -42.05064782 41.23896788 -42.20175171 39.21629333 C-42.80731577 31.19395505 -43.46511363 23.18850538 -44.484375 15.20703125 C-44.76964607 11.56143473 -44.8070572 8.57535018 -44 5 C-40.85062477 1.48768562 -37.32174634 -0.21851678 -33 -2 C-32.15179688 -2.35578125 -31.30359375 -2.7115625 -30.4296875 -3.078125 C-19.59661568 -6.90975812 -9.96298426 -5.54215166 0 0 Z " fill="#E23D53" transform="translate(212,156)"/>
<path d="M0 0 C3.70350638 2.08973861 6.27700176 3.67537915 9.19140625 6.80078125 C9.55303108 9.73252543 9.54940354 11.69256162 9.19140625 14.55078125 C9.12252197 15.32083496 9.0536377 16.09088867 8.98266602 16.88427734 C8.82834172 18.59106051 8.66037662 20.29664873 8.48095703 22.00097656 C7.9499553 27.13548572 7.54657354 32.28102081 7.12890625 37.42578125 C7.04092773 38.48974121 6.95294922 39.55370117 6.86230469 40.64990234 C4.83495062 55.30040575 4.83495062 55.30040575 8.19140625 68.80078125 C11.25697223 69.53421553 11.25697223 69.53421553 14.19140625 69.80078125 C13.20140625 70.13078125 12.21140625 70.46078125 11.19140625 70.80078125 C11.19140625 76.41078125 11.19140625 82.02078125 11.19140625 87.80078125 C8.22140625 88.79078125 8.22140625 88.79078125 5.19140625 89.80078125 C2.57945762 92.41272988 2.78957686 93.81085177 2.47607422 97.46362305 C2.36723907 98.68757278 2.25840393 99.91152252 2.14627075 101.17256165 C2.03339437 102.55251517 1.92084828 103.93249575 1.80859375 105.3125 C1.68298401 106.77834123 1.55681715 108.24413481 1.43014526 109.70988464 C1.00049872 114.73885378 0.59401803 119.76958422 0.19140625 124.80078125 C0.11833755 125.71243294 0.04526886 126.62408463 -0.03001404 127.56336212 C-1.19366327 142.11865299 -2.31125462 156.6774449 -3.42496872 171.23662567 C-4.21320079 181.52792744 -5.00843736 191.81869093 -5.8046875 202.109375 C-5.89133478 203.22972893 -5.97798206 204.35008286 -6.06725502 205.5043869 C-7.73738622 227.07819399 -9.49690333 248.64345714 -11.34912109 270.20239258 C-11.44261337 271.29841293 -11.53610565 272.39443329 -11.63243103 273.52366638 C-11.79858502 275.46815323 -11.96654452 277.41248765 -12.13722229 279.35658264 C-12.86226076 287.83613757 -13.30813747 296.29302449 -13.80859375 304.80078125 C-25.35859375 304.80078125 -36.90859375 304.80078125 -48.80859375 304.80078125 C-48.85193166 287.1930843 -48.69788051 269.60186899 -48.38476562 251.99731445 C-48.35036447 249.9997702 -48.31596585 248.00222589 -48.28171808 246.004679 C-47.85384745 221.09372237 -47.37179924 196.18372013 -46.87618256 171.27402973 C-46.81218524 168.05142271 -46.74831906 164.82881312 -46.68457031 161.60620117 C-46.66872511 160.80547474 -46.6528799 160.00474831 -46.63655454 159.17975744 C-46.37948188 146.14601002 -46.15180295 133.11190618 -45.93498367 120.07743392 C-45.71101397 106.64917504 -45.45732294 93.22172137 -45.17549944 79.7945506 C-45.00300129 71.53305747 -44.85339998 63.27181191 -44.73335284 55.0093874 C-44.64905303 49.36210646 -44.53578311 43.71587249 -44.39958602 38.06960658 C-44.32189889 34.813928 -44.26130967 31.55950356 -44.22649002 28.30304527 C-44.18673152 24.77287403 -44.09873441 21.24710931 -43.99841309 17.71821594 C-43.99837013 16.6905171 -43.99832717 15.66281826 -43.99828291 14.60397702 C-43.73469486 7.82263109 -43.73469486 7.82263109 -41.04537678 4.85526693 C-39.02825862 3.31747876 -37.02579898 2.0276162 -34.80859375 0.80078125 C-33.45701172 -0.03066406 -33.45701172 -0.03066406 -32.078125 -0.87890625 C-20.68330999 -6.42232977 -11.23996702 -5.04040236 0 0 Z " fill="#E23D53" transform="translate(338.80859375,155.19921875)"/>
<path d="M0 0 C2.03125 1.40234375 2.03125 1.40234375 4.03125 3.40234375 C4.22027086 5.94724052 4.28489333 8.38093948 4.25952148 10.92602539 C4.25930307 11.70035604 4.25908466 12.4746867 4.25885963 13.27248192 C4.25472858 15.84847396 4.2352512 18.42408893 4.21484375 21 C4.20702884 22.81453806 4.1995832 24.62907775 4.19248962 26.44361877 C4.09880415 44.70766866 3.6573381 62.96259349 3.1638298 81.21943283 C2.97002208 88.46625493 2.78959974 95.71343331 2.60752296 102.96055794 C2.56200799 104.77092983 2.51632285 106.58129746 2.47046471 108.39166069 C2.05350718 124.87335596 1.73302437 141.35496433 1.46875 157.83984375 C1.22323983 173.04315651 0.93695459 188.24071085 0.46847534 203.43884277 C0.16295219 213.4191661 -0.0509731 223.39918759 -0.21875 233.3828125 C-0.23973755 234.62966827 -0.2607251 235.87652405 -0.28234863 237.16116333 C-0.38540803 243.36453473 -0.48363269 249.56794748 -0.57617188 255.77148438 C-0.81351407 270.99640498 -1.30612188 286.18950651 -1.96875 301.40234375 C-13.51875 301.40234375 -25.06875 301.40234375 -36.96875 301.40234375 C-37.07944824 295.66545166 -37.19014648 289.92855957 -37.30419922 284.01782227 C-37.6766969 264.73584365 -38.05244715 245.45392933 -38.42973137 226.1720438 C-38.65766684 214.51910362 -38.88459377 202.86614567 -39.10888672 191.21313477 C-39.36882591 177.71494233 -39.63197357 164.21681522 -39.8984375 150.71875 C-39.92021781 149.61350747 -39.94199812 148.50826493 -39.96443844 147.3695302 C-40.62491096 113.91325261 -41.40249282 80.46264653 -42.42953479 47.01548821 C-42.56613144 42.51008989 -42.67782982 38.00454899 -42.78033447 33.4982605 C-42.88833504 28.78587788 -43.0829486 24.08843651 -43.33831787 19.38186646 C-43.42169314 17.21368154 -43.5041245 15.04546006 -43.58544922 12.87719727 C-43.65759706 11.91118308 -43.72974491 10.9451689 -43.80407906 9.94988155 C-43.91642678 5.82706189 -43.88124045 3.42445885 -41.06430435 0.2691021 C-27.37068673 -10.66386959 -14.34553965 -8.920565 0 0 Z " fill="#F7F5F6" transform="translate(276.96875,158.59765625)"/>
<path d="M0 0 C81.18 0 162.36 0 246 0 C244 21 244 21 243 22 C239.91548172 22.09804237 236.85333935 22.12990727 233.76841736 22.12025452 C232.78751037 22.12110894 231.80660338 22.12196337 230.79597193 22.12284368 C227.48237138 22.12450146 224.16882056 22.11897226 220.85522461 22.11352539 C218.49057517 22.11324356 216.12592564 22.11340118 213.76127625 22.1139679 C207.98951639 22.11422605 202.21777304 22.10987474 196.44601696 22.10353024 C189.73250885 22.09639628 183.01900312 22.09488634 176.30549175 22.09374207 C164.33215702 22.09155123 152.35882909 22.08489029 140.38549805 22.07543945 C128.75170933 22.06626615 117.11792246 22.05918492 105.48413086 22.05493164 C104.40920654 22.05453756 104.40920654 22.05453756 103.31256657 22.05413551 C99.71766012 22.05283051 96.12275365 22.05156679 92.52784717 22.05032361 C62.68522668 22.03995001 32.84261413 22.02225671 3 22 C-0.11726136 14.6503594 0 8.01514084 0 0 Z " fill="#E33D53" transform="translate(135,475)"/>
<path d="M0 0 C6.38849208 3.73448798 10.71699555 8.69750124 13.03515625 15.76171875 C14.12006757 20.83983307 14.27535311 25.86702003 12.4453125 30.75390625 C11.30541789 34.59280752 11.62737521 37.84548644 12.0625 41.75 C12.85581877 51.19662898 11.2932346 57.72198016 5.29296875 65.14453125 C0.4292321 70.0082679 -5.39570713 72.61075363 -12.24609375 73.00390625 C-19.6153279 72.78678843 -25.76229943 70.61218908 -31.5 65.9375 C-32.2425 64.926875 -32.985 63.91625 -33.75 62.875 C-36.10162378 59.73418723 -38.60025778 59.08718984 -42.3125 58 C-49.83711788 55.76019984 -54.91037934 51.96624759 -58.9375 45.1875 C-62.32239472 38.14691898 -62.87364015 30.0433444 -60.3125 22.5625 C-56.96490209 15.11139498 -51.89501216 11.11583571 -44.5 7.9375 C-41.34086633 7.14157519 -38.43896007 6.81989051 -35.1875 6.875 C-33.3621875 6.9059375 -33.3621875 6.9059375 -31.5 6.9375 C-31.17 5.9475 -30.84 4.9575 -30.5 3.9375 C-28.7578125 2.5859375 -28.7578125 2.5859375 -26.625 1.3125 C-25.92632812 0.88710938 -25.22765625 0.46171875 -24.5078125 0.0234375 C-17.30621532 -3.87158977 -7.29866001 -3.38826683 0 0 Z " fill="#010100" transform="translate(498.5,303.0625)"/>
<path d="M0 0 C5.29160798 3.80191523 9.25864487 8.37956683 11.26171875 14.625 C11.39909994 16.39246189 11.48093683 18.16497423 11.51171875 19.9375 C11.88906392 25.24881125 13.46162478 27.74910716 16.82421875 31.7421875 C20.83310289 36.99295422 20.68908224 43.49853324 19.91796875 49.81640625 C18.25551796 56.93129981 14.56656721 62.08181264 8.57421875 66.1875 C1.75799601 70.34315911 -4.90110732 70.29033891 -12.73828125 69.625 C-15.0625 68.73046875 -15.0625 68.73046875 -17.05078125 67.625 C-21.48207998 65.23060219 -25.33925264 65.46076911 -30.23828125 65.625 C-38.07902442 65.83519396 -43.65030272 65.26233523 -49.72265625 59.859375 C-55.12540196 54.18872455 -57.78466585 48.57230806 -58.17578125 40.75 C-57.94525505 33.94947723 -55.72831846 28.11254652 -51.48828125 22.8125 C-42.45256696 15.625 -42.45256696 15.625 -38.73828125 15.625 C-38.39796875 14.3565625 -38.39796875 14.3565625 -38.05078125 13.0625 C-35.09152085 5.31205609 -30.63418002 0.95638037 -23.11328125 -2.625 C-14.8200403 -4.46794243 -7.47693203 -4.23813216 0 0 Z " fill="#010100" transform="translate(57.73828125,204.375)"/>
<path d="M0 0 C6.92581419 0.93139612 12.29196858 2.61712266 17 8 C19.42198203 14.26543482 19.27400095 21.36770061 19.61328125 27.9921875 C19.7558903 30.02507573 19.90325031 32.05763553 20.05503845 34.08985901 C20.45046169 39.5486598 20.78323815 45.00965897 21.10517883 50.47321701 C21.45243609 56.17111001 21.85933229 61.86468834 22.26269531 67.55883789 C22.82793943 75.59974099 23.37721633 83.64137999 23.90348244 91.68492985 C24.71908983 104.13474105 25.63721265 116.57140614 26.68359375 129.00390625 C26.78373842 130.19569866 26.78373842 130.19569866 26.88590622 131.41156769 C27.21092824 135.26946919 27.53894696 139.12710643 27.8692627 142.98455811 C28.49074535 150.24265318 29.0986955 157.50186131 29.69921875 164.76171875 C29.75597401 165.44616814 29.81272926 166.13061752 29.87120438 166.8358078 C30.70360918 176.91233822 31.42235965 186.99282803 32.08203125 197.08203125 C32.25138757 199.59645173 32.42097733 202.11085649 32.59082031 204.62524414 C32.90119068 209.2287734 33.18197841 213.83272379 33.44433594 218.43920898 C33.57766776 220.45433796 33.71203959 222.4693985 33.84765625 224.484375 C33.91156303 225.83635735 33.91156303 225.83635735 33.97676086 227.21565247 C34.29548312 231.57185873 34.61032863 233.5044826 37.38452148 237.03222656 C39.90364533 239.14435779 39.90364533 239.14435779 43 240 C43.495 247.92 43.495 247.92 44 256 C42.35 256.99 40.7 257.98 39 259 C35.68952858 265.62094283 38.36366178 276.43809167 39 283.5625 C39.63857215 290.73780728 40.12098289 297.7939564 40 305 C38.02 305 36.04 305 34 305 C31.55340142 289.3359716 29.50414846 273.63435778 27.53833008 257.90356445 C27.20310804 255.23542392 26.86770127 252.56730715 26.53208923 249.8992157 C25.72220736 243.45688186 24.91499557 237.01421635 24.10892848 230.5714042 C23.45366825 225.3339858 22.79767302 220.09665999 22.14118004 214.85939598 C20.27510391 199.97163248 18.41120036 185.08359915 16.54992548 170.19523463 C16.45006384 169.39644441 16.3502022 168.59765419 16.24731445 167.7746582 C16.14733006 166.97488181 16.04734566 166.17510542 15.94433143 165.35109337 C14.31931661 152.3537116 12.68893916 139.3570087 11.0562096 126.36059401 C9.3749948 112.97770267 7.69792423 99.59429752 6.02510947 86.21035355 C5.08771092 78.71108594 4.14859544 71.21204261 3.20496559 63.71355629 C2.40300102 57.34058088 1.60487092 50.96713976 0.81168751 44.59306524 C0.40738293 41.34494834 0.00071324 38.09715905 -0.40961075 34.8497963 C-0.85467723 31.32510892 -1.29289193 27.79963404 -1.72941589 24.27388 C-1.85966178 23.25540004 -1.98990766 22.23692007 -2.12410039 21.18757707 C-4.01457273 5.73322842 -4.01457273 5.73322842 -1.5 1.4375 C-0.7575 0.7259375 -0.7575 0.7259375 0 0 Z " fill="#F5F3F4" transform="translate(136,155)"/>
<path d="M0 0 C4.10853938 1.16201114 6.7117931 3.25568914 9.8125 6.125 C10.60269531 6.84945313 11.39289063 7.57390625 12.20703125 8.3203125 C12.79871094 8.87460937 13.39039063 9.42890625 14 10 C13.525625 10.721875 13.05125 11.44375 12.5625 12.1875 C11.05847097 14.89475226 10.43400818 16.96194275 10 20 C9.05382812 19.6390625 8.10765625 19.278125 7.1328125 18.90625 C-6.65449411 13.94627924 -20.42792545 12.30035089 -34.16796875 18.453125 C-38.57573493 20.86067729 -42.33714122 23.56787249 -46 27 C-46.61359375 27.57234375 -47.2271875 28.1446875 -47.859375 28.734375 C-52.31222508 33.34484809 -54.93561273 38.45811127 -57.34033203 44.34008789 C-58.12890625 46.12109375 -58.12890625 46.12109375 -60 49 C-63.06640625 50.03125 -63.06640625 50.03125 -66 50 C-68.375 48.0625 -68.375 48.0625 -70 46 C-68.7934375 45.071875 -68.7934375 45.071875 -67.5625 44.125 C-64.60814913 41.70167551 -64.60814913 41.70167551 -63.82421875 38.1875 C-63.75654297 37.1046875 -63.75654297 37.1046875 -63.6875 36 C-62.58218682 25.70573995 -57.67561922 17.20072047 -50.0859375 10.24609375 C-39.77974911 2.0545217 -28.94803969 0.22347879 -16 1 C-12.625 2 -12.625 2 -10 3 C-5.61478079 3.48176531 -5.61478079 3.48176531 -1.9375 1.375 C-0.9784375 0.694375 -0.9784375 0.694375 0 0 Z " fill="#F8C572" transform="translate(280,14)"/>
<path d="M0 0 C5.57894737 3.15789474 5.57894737 3.15789474 7 6 C7.59325843 13.11910112 7.59325843 13.11910112 4.9375 17.0625 C2.64154978 19.92718172 2.64154978 19.92718172 3.125 23.6875 C3.83672629 27.10588021 3.83672629 27.10588021 6 30 C6.45971784 34.96495273 6.15065843 38.06167696 3 42 C-0.42094119 44.56570589 -3.84773484 44.43708054 -8 44 C-12.11657438 41.8481543 -13.37356186 39.49988707 -14.8125 35.25 C-15.22470957 33.83801142 -15.62610764 32.42261484 -16 31 C-16.94101562 30.98582031 -17.88203125 30.97164063 -18.8515625 30.95703125 C-30.29093291 30.51887731 -30.29093291 30.51887731 -33.8125 27.5625 C-36.99306502 23.83669527 -37.38300295 21.88328759 -37 17 C-35.33237678 13.50593231 -34.25993978 12.17329319 -31 10 C-28.60135364 10.08820645 -26.2048851 10.24313371 -23.8125 10.4375 C-19.67517874 10.6314912 -16.77544003 10.56416072 -13.3046875 8.0390625 C-11.36881955 5.77459704 -9.68361666 3.45353502 -8 1 C-5.13391871 -0.43304064 -3.18699217 -0.30644155 0 0 Z " fill="#F8D59C" transform="translate(489,316)"/>
<path d="M0 0 C3.18637361 0.64073817 4.95955678 2.09960721 7.15625 4.43359375 C8.57434645 7.26978664 8.06338199 9.59274045 7.90625 12.74609375 C7.77432563 18.04330926 7.77432563 18.04330926 10.46875 22.49609375 C11.355625 23.13546875 12.2425 23.77484375 13.15625 24.43359375 C15.70250937 27.06765517 16.12529251 28.1498168 16.53125 31.87109375 C16.13027403 35.6803655 15.58724248 37.49963731 13.15625 40.43359375 C9.50981212 42.50319363 6.3042648 42.9520956 2.15625 42.43359375 C-0.3822815 40.72156088 -2.34032681 39.04645676 -4.28125 36.68359375 C-5.89039095 35.17485924 -5.89039095 35.17485924 -8.71875 35.05859375 C-11.87060838 35.21550153 -11.87060838 35.21550153 -14.28125 36.93359375 C-17.72311877 38.9483462 -19.91361015 38.92486123 -23.84375 38.43359375 C-26.59704021 36.6379697 -28.37002461 35.38104453 -29.84375 32.43359375 C-30.48338856 27.78250766 -30.53287435 24.47839518 -27.90625 20.49609375 C-24.477772 18.18711877 -21.86041835 17.67106637 -17.8671875 16.94140625 C-15.68647672 16.55165166 -15.68647672 16.55165166 -13.84375 14.74609375 C-12.660542 12.32205106 -12.660542 12.32205106 -12.46875 8.99609375 C-11.84375 5.43359375 -11.84375 5.43359375 -9.84375 2.49609375 C-6.288827 0.05208419 -4.22614619 -0.23243804 0 0 Z " fill="#F8D59C" transform="translate(45.84375,216.56640625)"/>
<path d="M0 0 C0.33 0 0.66 0 1 0 C1.495 6.93 1.495 6.93 2 14 C-0.0728125 14.8353125 -0.0728125 14.8353125 -2.1875 15.6875 C-6.91260178 17.80233429 -10.43911472 20.19398105 -13.0234375 24.83984375 C-14.2125098 26.90174572 -15.20536457 28.42485236 -17 30 C-19.72205103 30.55588076 -22.31105382 30.62899635 -25.0859375 30.71875 C-31.65941376 31.35318739 -37.16042211 34.67653458 -41.5 39.5625 C-43.36261587 41.90701358 -44.72123133 44.29445703 -46 47 C-46.66 47 -47.32 47 -48 47 C-51.16927454 41.80238976 -50.58575995 35.87224349 -50 30 C-47.48318832 24.57917484 -43.11231467 20.52407162 -37.7265625 17.88671875 C-33.49757103 16.51138771 -29.28033215 16.59647825 -24.86328125 16.44140625 C-23.91839844 16.29574219 -22.97351563 16.15007812 -22 16 C-19.86820176 12.80230264 -19.36753633 10.52783506 -18.66015625 6.83984375 C-18 5 -18 5 -15 3 C-11.64327271 2.62370446 -8.30740018 2.49419845 -4.93359375 2.34375 C-1.87989158 2.29323029 -1.87989158 2.29323029 0 0 Z " fill="#F6C371" transform="translate(151,84)"/>
<path d="M0 0 C4.72366485 2.75678768 8.46649928 6.44974892 11.5 11 C11.5 11.66 11.5 12.32 11.5 13 C10.448125 12.67 9.39625 12.34 8.3125 12 C-2.43519524 9.4031142 -11.86945421 10.58973649 -21.5 16 C-29.17559463 20.82353293 -32.67579576 28.05282556 -36.5 36 C-40.38096871 31.73814046 -39.99270258 27.92669574 -39.84375 22.390625 C-39.0587959 14.64812324 -36.22588507 8.65819199 -30.390625 3.47265625 C-21.62333937 -3.35640714 -10.3403033 -4.66420409 0 0 Z " fill="#F8C572" transform="translate(189.5,41)"/>
<path d="M0 0 C3.26335991 2.28435194 4.65839348 3.6335739 5.625 7.5 C4.67733627 11.29065494 3.10786007 12.65324852 0 15 C-2.29879617 15.74479385 -4.53323771 16.23434091 -6.9140625 16.640625 C-9.18471963 16.97792544 -9.18471963 16.97792544 -12 18 C-13.54530608 20.91891148 -14.01734636 23.19427927 -14.3125 26.5 C-15.17624897 30.89726751 -16.33381469 32.44961022 -20 35 C-23.625 35.0625 -23.625 35.0625 -27 34 C-29.69911886 31.1631071 -30.43131226 29.1359 -30.4375 25.25 C-30.18408157 17.41706674 -26.4794933 11.4794933 -21 6 C-18.09263657 4.1324228 -15.09752904 2.5274652 -12 1 C-8.27729071 -0.86135465 -4.05366864 -0.56636815 0 0 Z " fill="#070604" transform="translate(333,87)"/>
<path d="M0 0 C7.37542808 3.36559444 11.54810772 7.53589482 15.34375 14.62109375 C16.57733102 18.45890136 16.98733669 21.12056788 16.46875 25.12109375 C14.5130277 28.58121782 13.24629999 29.82330865 9.53125 31.24609375 C6.46875 31.12109375 6.46875 31.12109375 3.71875 29.18359375 C1.63278741 26.34436689 1.12038994 25.26032715 0.46875 21.99609375 C-0.2103231 18.65647579 -0.2103231 18.65647579 -2.71875 16.24609375 C-5.62188281 15.01573755 -5.62188281 15.01573755 -9.15625 14.18359375 C-12.53125 13.12109375 -12.53125 13.12109375 -14.53125 11.43359375 C-16.02427187 7.98098068 -15.50688232 5.69841225 -14.53125 2.12109375 C-10.82509983 -2.47453246 -5.0747061 -1.76205073 0 0 Z " fill="#060504" transform="translate(259.53125,58.87890625)"/>
<path d="M0 0 C2.5 1.0625 2.5 1.0625 4 4.3125 C4.22945313 4.94027344 4.45890625 5.56804687 4.6953125 6.21484375 C6.3433993 9.99904304 9.2573955 12.33764737 12.75 14.375 C16.67608861 15.35652215 20.47515078 15.22033722 24.5 15.0625 C24.84611328 15.85914063 24.84611328 15.85914063 25.19921875 16.671875 C27.31938557 21.26417309 29.17767276 24.18094851 33.5 27.0625 C32.05813953 31.62839147 32.05813953 31.62839147 29.8125 33.375 C25.37409493 34.69452583 21.89172145 34.78999076 17.75 32.625 C14.68904144 29.1389083 13.66507857 25.49548187 12.5 21.0625 C11.55898438 21.04832031 10.61796875 21.03414063 9.6484375 21.01953125 C-1.79093291 20.58137731 -1.79093291 20.58137731 -5.3125 17.625 C-8.49306502 13.89919527 -8.88300295 11.94578759 -8.5 7.0625 C-6.59413807 3.06926547 -4.78645206 0.1196613 0 0 Z " fill="#F5C982" transform="translate(460.5,325.9375)"/>
<path d="M0 0 C2.51616834 0.56543109 3.4562812 1.51731443 5.0859375 3.46875 C4.53164063 3.92765625 3.97734375 4.3865625 3.40625 4.859375 C2.68179688 5.47296875 1.95734375 6.0865625 1.2109375 6.71875 C0.49164063 7.32203125 -0.22765625 7.9253125 -0.96875 8.546875 C-4.56761481 12.10237999 -5.24155493 15.53702783 -5.9140625 20.46875 C-6.56632812 20.60410156 -7.21859375 20.73945313 -7.890625 20.87890625 C-13.6041039 22.28620857 -17.21177927 23.80103578 -20.796875 28.55078125 C-22.49281286 31.46233891 -23.24144716 34.17293484 -23.9140625 37.46875 C-27.07522026 36.09891497 -27.9067717 35.4796862 -29.9140625 32.46875 C-30.73480265 27.85532641 -30.57708012 24.47397027 -27.9765625 20.53125 C-24.5480845 18.22227502 -21.93073085 17.70622262 -17.9375 16.9765625 C-15.75678922 16.58680791 -15.75678922 16.58680791 -13.9140625 14.78125 C-12.7308545 12.35720731 -12.7308545 12.35720731 -12.5390625 9.03125 C-11.9140625 5.46875 -11.9140625 5.46875 -9.9140625 2.53125 C-6.33267728 0.06904766 -4.23560497 -0.05782396 0 0 Z " fill="#F6CA82" transform="translate(45.9140625,216.53125)"/>
</svg>
