<?xml version="1.0" encoding="UTF-8"?>
<svg version="1.1" xmlns="http://www.w3.org/2000/svg" width="348" height="348">
<path d="M0 0 C0.73605469 0.13390137 1.47210938 0.26780273 2.23046875 0.40576172 C18.36481467 3.43646194 32.72190302 9.75511593 42.1875 23.5 C43.14878625 24.98486868 44.08378978 26.48690216 45 28 C45.99580078 29.63388672 45.99580078 29.63388672 47.01171875 31.30078125 C49.08470117 34.96002455 50.42261558 38.66839595 51.625 42.6875 C51.83664795 43.38665527 52.0482959 44.08581055 52.26635742 44.80615234 C56.66575584 59.76034533 59.14451811 77.22300696 51.640625 91.60546875 C47.8172984 97.64593062 43.82852087 101.60243045 37 104 C6.24009339 108.64096837 -33.98614961 86.15516245 -62 75 C-69.29030676 72.10074039 -76.5818069 69.20449145 -83.875 66.3125 C-84.78800873 65.9504245 -85.70101746 65.588349 -86.64169312 65.21530151 C-102.66521598 58.86707707 -118.74230258 52.72711608 -135 47 C-136.07749512 46.62020996 -137.15499023 46.24041992 -138.26513672 45.84912109 C-148.7628543 42.17900497 -159.31403361 38.7392617 -170.0625 35.875 C-170.86574707 35.65021973 -171.66899414 35.42543945 -172.49658203 35.19384766 C-178.58081242 33.66078256 -182.90716898 34.16904403 -188.44140625 37.4453125 C-197.10201251 44.30361948 -203.14201888 51.88529154 -205 63 C-206.46271151 85.14477193 -195.6577483 104.47116432 -181.69140625 120.88671875 C-179.86946334 123.16309546 -178.36479383 125.42299799 -177 128 C-177.3125 130.3125 -177.3125 130.3125 -178 132 C-181.39870327 133.15439826 -182.87147479 133.04813964 -186.28515625 131.76953125 C-187.55287183 131.13406361 -188.81153074 130.48033067 -190.0625 129.8125 C-190.75077881 129.45591309 -191.43905762 129.09932617 -192.14819336 128.73193359 C-213.71788805 117.35825493 -237.21662461 103.99888447 -254 86 C-254.804375 85.21625 -255.60875 84.4325 -256.4375 83.625 C-257.283125 82.75875 -258.12875 81.8925 -259 81 C-259.94552734 80.04867187 -259.94552734 80.04867187 -260.91015625 79.078125 C-268.75633774 70.80663648 -273.41371063 61.39918383 -273.27734375 49.9140625 C-272.84388597 45.35970325 -271.33903287 41.89345345 -269 38 C-268.45085937 37.07574219 -268.45085937 37.07574219 -267.890625 36.1328125 C-262.67897836 28.89441438 -252.4971379 24.51176265 -244 22.5625 C-226.91398741 20.30443666 -208.54333275 21.51765162 -191.9296875 26.1015625 C-184.00700968 28.09303382 -178.9707267 26.95386267 -171.875 23.125 C-144.98130949 9.54845119 -114.67690632 2.83507027 -85 -1 C-84.08508789 -1.12004395 -83.17017578 -1.24008789 -82.22753906 -1.36376953 C-55.5119267 -4.69701161 -26.47533009 -5.12875808 0 0 Z " fill="#D4111D" transform="translate(275,48)"/>
<path d="M0 0 C1.901863 0.91684393 3.76897958 1.90758867 5.60546875 2.94921875 C6.67216797 3.55056641 7.73886719 4.15191406 8.83789062 4.77148438 C10.49594727 5.71991211 10.49594727 5.71991211 12.1875 6.6875 C13.27353516 7.30044922 14.35957031 7.91339844 15.47851562 8.54492188 C24.88118026 13.87027488 34.1826882 19.27182778 43.0625 25.4375 C43.7544043 25.91703125 44.44630859 26.3965625 45.15917969 26.890625 C61.72722869 38.4392322 83.53217392 54.00121741 88 75 C89.26089375 83.50334446 86.68131447 89.92313015 82 97 C72.7818828 107.76413267 59.4768462 109.94159512 46 111 C32.18721022 111.44157059 18.15622178 108.9563376 4.75 105.8125 C-3.26060261 104.07686944 -7.55961038 105.9295592 -14.625 109.5625 C-40.3568875 122.23618117 -68.12179242 128.88313938 -96.46166992 132.6574707 C-98.50053401 132.93260067 -100.53452783 133.24370924 -102.56640625 133.56640625 C-107.26713955 134.16001421 -111.9551086 134.37289223 -116.6875 134.5625 C-117.72406738 134.6042334 -118.76063477 134.6459668 -119.82861328 134.68896484 C-132.55150493 135.15233759 -145.27107496 135.18689768 -158 135 C-158.87946289 134.98743164 -159.75892578 134.97486328 -160.66503906 134.96191406 C-179.43558592 134.58848459 -204.48039286 132.09837575 -219 119 C-219 118.34 -219 117.68 -219 117 C-219.66 117 -220.32 117 -221 117 C-234.91425325 103.46180765 -240.99057998 81.01471493 -241.25 62.25 C-241.16083844 51.75122591 -238.77603036 40.8845765 -231.25 33.1875 C-223.03554197 27.65853786 -216.74347744 27.56082752 -207 29 C-195.24760538 31.37238953 -183.94062274 34.75891208 -172.625 38.6875 C-171.82441162 38.96289612 -171.02382324 39.23829224 -170.19897461 39.52203369 C-151.33872245 46.02523519 -132.83595809 53.40981669 -114.33300781 60.85693359 C-106.50010611 64.00811536 -98.65229312 67.12153194 -90.80102539 70.22662354 C-88.47217841 71.14901053 -86.1451575 72.07587727 -83.81835938 73.00341797 C-74.59634837 76.66635251 -65.30790506 80.07063684 -55.93414307 83.3243103 C-53.07882355 84.32181148 -50.23518239 85.35118249 -47.390625 86.37890625 C-37.13656426 90.04602953 -26.89695153 93.53194201 -16.3125 96.125 C-15.04937988 96.44319702 -15.04937988 96.44319702 -13.76074219 96.76782227 C-8.1687977 98.05647505 -3.16882093 98.61029013 2.15234375 95.90625 C10.56353161 89.28036898 17.46128238 82.41382125 19.6875 71.6875 C21.74398232 47.4210086 10.02472127 28.18491441 -4.72265625 9.859375 C-6.84027849 7.14598717 -8.01386278 5.63768791 -7.9375 2.125 C-6.15618107 -1.91265625 -3.75702531 -1.02953869 0 0 Z " fill="#D4121D" transform="translate(258,167)"/>
<path d="M0 0 C0.73605469 0.13390137 1.47210938 0.26780273 2.23046875 0.40576172 C18.36481467 3.43646194 32.72190302 9.75511593 42.1875 23.5 C43.14878625 24.98486868 44.08378978 26.48690216 45 28 C45.99580078 29.63388672 45.99580078 29.63388672 47.01171875 31.30078125 C49.08470117 34.96002455 50.42261558 38.66839595 51.625 42.6875 C51.83664795 43.38665527 52.0482959 44.08581055 52.26635742 44.80615234 C56.66575584 59.76034533 59.14451811 77.22300696 51.640625 91.60546875 C47.8172984 97.64593062 43.82852087 101.60243045 37 104 C6.24009339 108.64096837 -33.98614961 86.15516245 -62 75 C-69.29030676 72.10074039 -76.5818069 69.20449145 -83.875 66.3125 C-84.78800873 65.9504245 -85.70101746 65.588349 -86.64169312 65.21530151 C-102.66521598 58.86707707 -118.74230258 52.72711608 -135 47 C-136.07749512 46.62020996 -137.15499023 46.24041992 -138.26513672 45.84912109 C-148.7628543 42.17900497 -159.31403361 38.7392617 -170.0625 35.875 C-170.86574707 35.65021973 -171.66899414 35.42543945 -172.49658203 35.19384766 C-178.58081242 33.66078256 -182.90716898 34.16904403 -188.44140625 37.4453125 C-197.10201251 44.30361948 -203.14201888 51.88529154 -205 63 C-206.46271151 85.14477193 -195.6577483 104.47116432 -181.69140625 120.88671875 C-179.86946334 123.16309546 -178.36479383 125.42299799 -177 128 C-177.3125 130.3125 -177.3125 130.3125 -178 132 C-181.39870327 133.15439826 -182.87147479 133.04813964 -186.28515625 131.76953125 C-187.55287183 131.13406361 -188.81153074 130.48033067 -190.0625 129.8125 C-190.75077881 129.45591309 -191.43905762 129.09932617 -192.14819336 128.73193359 C-213.71788805 117.35825493 -237.21662461 103.99888447 -254 86 C-254.804375 85.21625 -255.60875 84.4325 -256.4375 83.625 C-257.283125 82.75875 -258.12875 81.8925 -259 81 C-259.94552734 80.04867187 -259.94552734 80.04867187 -260.91015625 79.078125 C-268.75633774 70.80663648 -273.41371063 61.39918383 -273.27734375 49.9140625 C-272.84388597 45.35970325 -271.33903287 41.89345345 -269 38 C-268.45085937 37.07574219 -268.45085937 37.07574219 -267.890625 36.1328125 C-262.67897836 28.89441438 -252.4971379 24.51176265 -244 22.5625 C-226.91398741 20.30443666 -208.54333275 21.51765162 -191.9296875 26.1015625 C-184.00700968 28.09303382 -178.9707267 26.95386267 -171.875 23.125 C-144.98130949 9.54845119 -114.67690632 2.83507027 -85 -1 C-84.08508789 -1.12004395 -83.17017578 -1.24008789 -82.22753906 -1.36376953 C-55.5119267 -4.69701161 -26.47533009 -5.12875808 0 0 Z M-85 1 C-85.93038086 1.10715332 -86.86076172 1.21430664 -87.81933594 1.32470703 C-99.11068468 2.63459501 -110.0540592 4.42364424 -121.00732422 7.46728516 C-123.07030174 8.01879422 -125.14093852 8.50487741 -127.22265625 8.98046875 C-137.29868349 11.34695057 -146.85956655 14.67277287 -156.5 18.4375 C-158.25328613 19.11921265 -158.25328613 19.11921265 -160.04199219 19.81469727 C-167.33351472 22.72746207 -174.20294404 26.06970032 -181 30 C-178.32187929 32.67812071 -175.44860048 33.01174575 -171.87109375 33.82421875 C-163.48983587 35.82488015 -155.28007589 38.22766824 -147.0625 40.8125 C-146.36688965 41.02998901 -145.6712793 41.24747803 -144.95458984 41.47155762 C-135.77121108 44.35149298 -126.76644919 47.43590477 -117.94848633 51.31054688 C-114.21574771 52.93109661 -110.42778251 54.38029851 -106.609375 55.78515625 C-98.71349736 58.71927864 -90.85675553 61.74760652 -83.00869751 64.80703735 C-80.67573843 65.71644789 -78.34217407 66.62429286 -76.00854492 67.53198242 C-68.77043477 70.34915963 -61.53707416 73.17745041 -54.31640625 76.0390625 C-40.17455589 81.64247376 -25.98436057 87.03937412 -11.62939453 92.07470703 C-9.34072408 92.88009802 -7.05841134 93.70075674 -4.77734375 94.52734375 C17.44994635 102.40337854 17.44994635 102.40337854 40.359375 101.22265625 C46.19293037 98.14139862 49.42655795 92.92568892 52 87 C57.4405931 69.10881883 53.18201459 47.48353697 45 31 C37.31426411 17.257198 27.39428643 9.33295978 12.4375 4.3125 C-5.19087157 -0.50820355 -23.59600526 -1.20886754 -41.75 -1.1875 C-42.61615936 -1.18722809 -43.48231873 -1.18695618 -44.37472534 -1.18667603 C-58.0128942 -1.1670034 -71.45319263 -0.67109509 -85 1 Z " fill="#F07C02" transform="translate(275,48)"/>
<path d="M0 0 C1.901863 0.91684393 3.76897958 1.90758867 5.60546875 2.94921875 C6.67216797 3.55056641 7.73886719 4.15191406 8.83789062 4.77148438 C10.49594727 5.71991211 10.49594727 5.71991211 12.1875 6.6875 C13.27353516 7.30044922 14.35957031 7.91339844 15.47851562 8.54492188 C24.88118026 13.87027488 34.1826882 19.27182778 43.0625 25.4375 C43.7544043 25.91703125 44.44630859 26.3965625 45.15917969 26.890625 C61.72722869 38.4392322 83.53217392 54.00121741 88 75 C89.26089375 83.50334446 86.68131447 89.92313015 82 97 C72.7818828 107.76413267 59.4768462 109.94159512 46 111 C32.18721022 111.44157059 18.15622178 108.9563376 4.75 105.8125 C-3.42401034 104.04146443 -7.94371507 106.07279183 -15.1875 109.75 C-17.06210054 110.67143852 -18.93839001 111.5894495 -20.81640625 112.50390625 C-22.15856201 113.15770264 -22.15856201 113.15770264 -23.52783203 113.82470703 C-35.47972973 119.50675676 -35.47972973 119.50675676 -40 118 C-32.9829243 114.77392918 -25.93085414 111.63821526 -18.8359375 108.58764648 C-14.13674343 106.55065932 -9.56586482 104.32102361 -5 102 C-6.09828125 101.70609375 -7.1965625 101.4121875 -8.328125 101.109375 C-34.10243982 94.05150528 -59.48182284 85.33755846 -84.30761719 75.46777344 C-88.67289769 73.73251382 -93.04331994 72.01050651 -97.4140625 70.2890625 C-103.12643325 68.03838912 -108.83724366 65.78386206 -114.54562378 63.52308655 C-134.78291404 55.51134475 -155.02246398 47.53453718 -175.65405273 40.58520508 C-177.17638475 40.07005691 -178.69691132 39.54954233 -180.21557617 39.02368164 C-202.9372829 30.6648038 -202.9372829 30.6648038 -226 33 C-232.59807493 37.48669095 -235.43009754 42.92832919 -237.25 50.625 C-240.69129756 70.96275857 -235.46337751 92.58250776 -223.89453125 109.5703125 C-213.72069064 122.61800088 -197.78981817 128.17167437 -181.82463074 130.31185913 C-180.85769791 130.42808624 -179.89076508 130.54431335 -178.89453125 130.6640625 C-177.8571431 130.79019928 -176.81975494 130.91633606 -175.75093079 131.04629517 C-164.39667784 132.32456482 -153.10130962 132.46355832 -141.6875 132.375 C-140.621828 132.37067963 -139.55615601 132.36635925 -138.45819092 132.36190796 C-122.12975162 132.28453718 -106.13649181 131.68555305 -90 129 C-88.87029785 128.81775879 -87.7405957 128.63551758 -86.57666016 128.44775391 C-74.33595215 126.4364804 -62.22284491 124.16995625 -50.37670898 120.43603516 C-46.78940057 119.33042697 -44.57866295 118.89714468 -41 120 C-59.10564744 126.25046356 -77.43758803 130.05929464 -96.3972168 132.64135742 C-98.46243311 132.92592761 -100.5232327 133.24252124 -102.58203125 133.5703125 C-107.27742937 134.16059112 -111.96078133 134.37311952 -116.6875 134.5625 C-117.72406738 134.6042334 -118.76063477 134.6459668 -119.82861328 134.68896484 C-132.55150493 135.15233759 -145.27107496 135.18689768 -158 135 C-158.87946289 134.98743164 -159.75892578 134.97486328 -160.66503906 134.96191406 C-179.43558592 134.58848459 -204.48039286 132.09837575 -219 119 C-219 118.34 -219 117.68 -219 117 C-219.66 117 -220.32 117 -221 117 C-234.91425325 103.46180765 -240.99057998 81.01471493 -241.25 62.25 C-241.16083844 51.75122591 -238.77603036 40.8845765 -231.25 33.1875 C-223.03554197 27.65853786 -216.74347744 27.56082752 -207 29 C-195.24760538 31.37238953 -183.94062274 34.75891208 -172.625 38.6875 C-171.82441162 38.96289612 -171.02382324 39.23829224 -170.19897461 39.52203369 C-151.33872245 46.02523519 -132.83595809 53.40981669 -114.33300781 60.85693359 C-106.50010611 64.00811536 -98.65229312 67.12153194 -90.80102539 70.22662354 C-88.47217841 71.14901053 -86.1451575 72.07587727 -83.81835938 73.00341797 C-74.59634837 76.66635251 -65.30790506 80.07063684 -55.93414307 83.3243103 C-53.07882355 84.32181148 -50.23518239 85.35118249 -47.390625 86.37890625 C-37.13656426 90.04602953 -26.89695153 93.53194201 -16.3125 96.125 C-15.04937988 96.44319702 -15.04937988 96.44319702 -13.76074219 96.76782227 C-8.1687977 98.05647505 -3.16882093 98.61029013 2.15234375 95.90625 C10.56353161 89.28036898 17.46128238 82.41382125 19.6875 71.6875 C21.74398232 47.4210086 10.02472127 28.18491441 -4.72265625 9.859375 C-6.84027849 7.14598717 -8.01386278 5.63768791 -7.9375 2.125 C-6.15618107 -1.91265625 -3.75702531 -1.02953869 0 0 Z " fill="#F07C02" transform="translate(258,167)"/>
<path d="M0 0 C0.73605469 0.13390137 1.47210938 0.26780273 2.23046875 0.40576172 C18.36481467 3.43646194 32.72190302 9.75511593 42.1875 23.5 C43.14878625 24.98486868 44.08378978 26.48690216 45 28 C45.99580078 29.63388672 45.99580078 29.63388672 47.01171875 31.30078125 C49.08470117 34.96002455 50.42261558 38.66839595 51.625 42.6875 C51.83664795 43.38665527 52.0482959 44.08581055 52.26635742 44.80615234 C56.66575584 59.76034533 59.14451811 77.22300696 51.640625 91.60546875 C47.8172984 97.64593062 43.82852087 101.60243045 37 104 C6.24009339 108.64096837 -33.98614961 86.15516245 -62 75 C-69.29030676 72.10074039 -76.5818069 69.20449145 -83.875 66.3125 C-84.78800873 65.9504245 -85.70101746 65.588349 -86.64169312 65.21530151 C-102.66521598 58.86707707 -118.74230258 52.72711608 -135 47 C-136.07749512 46.62020996 -137.15499023 46.24041992 -138.26513672 45.84912109 C-148.7628543 42.17900497 -159.31403361 38.7392617 -170.0625 35.875 C-170.86574707 35.65021973 -171.66899414 35.42543945 -172.49658203 35.19384766 C-178.58081242 33.66078256 -182.90716898 34.16904403 -188.44140625 37.4453125 C-197.10201251 44.30361948 -203.14201888 51.88529154 -205 63 C-206.46271151 85.14477193 -195.6577483 104.47116432 -181.69140625 120.88671875 C-179.86946334 123.16309546 -178.36479383 125.42299799 -177 128 C-177.3125 130.3125 -177.3125 130.3125 -178 132 C-181.39870327 133.15439826 -182.87147479 133.04813964 -186.28515625 131.76953125 C-187.55287183 131.13406361 -188.81153074 130.48033067 -190.0625 129.8125 C-190.75077881 129.45591309 -191.43905762 129.09932617 -192.14819336 128.73193359 C-213.71788805 117.35825493 -237.21662461 103.99888447 -254 86 C-254.804375 85.21625 -255.60875 84.4325 -256.4375 83.625 C-257.283125 82.75875 -258.12875 81.8925 -259 81 C-259.94552734 80.04867187 -259.94552734 80.04867187 -260.91015625 79.078125 C-268.75633774 70.80663648 -273.41371063 61.39918383 -273.27734375 49.9140625 C-272.84388597 45.35970325 -271.33903287 41.89345345 -269 38 C-268.45085937 37.07574219 -268.45085937 37.07574219 -267.890625 36.1328125 C-262.67897836 28.89441438 -252.4971379 24.51176265 -244 22.5625 C-226.91398741 20.30443666 -208.54333275 21.51765162 -191.9296875 26.1015625 C-184.00700968 28.09303382 -178.9707267 26.95386267 -171.875 23.125 C-144.98130949 9.54845119 -114.67690632 2.83507027 -85 -1 C-84.08508789 -1.12004395 -83.17017578 -1.24008789 -82.22753906 -1.36376953 C-55.5119267 -4.69701161 -26.47533009 -5.12875808 0 0 Z M-85 1 C-85.93038086 1.10715332 -86.86076172 1.21430664 -87.81933594 1.32470703 C-99.11068468 2.63459501 -110.0540592 4.42364424 -121.00732422 7.46728516 C-123.07030174 8.01879422 -125.14093852 8.50487741 -127.22265625 8.98046875 C-137.29868349 11.34695057 -146.85956655 14.67277287 -156.5 18.4375 C-158.25328613 19.11921265 -158.25328613 19.11921265 -160.04199219 19.81469727 C-167.33351472 22.72746207 -174.20294404 26.06970032 -181 30 C-178.32187929 32.67812071 -175.44860048 33.01174575 -171.87109375 33.82421875 C-163.48983587 35.82488015 -155.28007589 38.22766824 -147.0625 40.8125 C-146.36688965 41.02998901 -145.6712793 41.24747803 -144.95458984 41.47155762 C-135.77121108 44.35149298 -126.76644919 47.43590477 -117.94848633 51.31054688 C-114.21574771 52.93109661 -110.42778251 54.38029851 -106.609375 55.78515625 C-98.71349736 58.71927864 -90.85675553 61.74760652 -83.00869751 64.80703735 C-80.67573843 65.71644789 -78.34217407 66.62429286 -76.00854492 67.53198242 C-68.77043477 70.34915963 -61.53707416 73.17745041 -54.31640625 76.0390625 C-40.17455589 81.64247376 -25.98436057 87.03937412 -11.62939453 92.07470703 C-9.34072408 92.88009802 -7.05841134 93.70075674 -4.77734375 94.52734375 C17.44994635 102.40337854 17.44994635 102.40337854 40.359375 101.22265625 C46.19293037 98.14139862 49.42655795 92.92568892 52 87 C57.4405931 69.10881883 53.18201459 47.48353697 45 31 C37.31426411 17.257198 27.39428643 9.33295978 12.4375 4.3125 C-5.19087157 -0.50820355 -23.59600526 -1.20886754 -41.75 -1.1875 C-42.61615936 -1.18722809 -43.48231873 -1.18695618 -44.37472534 -1.18667603 C-58.0128942 -1.1670034 -71.45319263 -0.67109509 -85 1 Z M-263.8125 34.25 C-268.64773279 40.32857837 -271.82004016 45.49681724 -271.3515625 53.4609375 C-268.88942918 71.24301145 -255.23890112 83.98368812 -242 95 C-238.33741988 97.94414919 -238.33741988 97.94414919 -234 99 C-234 99.66 -234 100.32 -234 101 C-231.65943303 102.70420592 -229.32078062 104.27064208 -226.875 105.8125 C-226.12524902 106.29098389 -225.37549805 106.76946777 -224.60302734 107.26245117 C-214.88223541 113.41433791 -204.97614656 119.2730877 -195 125 C-194.0315918 125.5676709 -193.06318359 126.1353418 -192.06542969 126.72021484 C-191.10282227 127.27016113 -190.14021484 127.82010742 -189.1484375 128.38671875 C-188.28138184 128.88776123 -187.41432617 129.38880371 -186.52099609 129.9050293 C-183.79586364 131.08866469 -181.93765344 131.22027462 -179 131 C-179.44663259 126.15850277 -181.8296742 123.43099075 -184.875 119.875 C-197.56557983 104.29600225 -208.29643937 85.92216576 -207.41796875 65.21875 C-205.69760044 51.97030617 -198.23814612 43.03026765 -188 35 C-186.35035534 33.97216233 -184.68774383 32.96400131 -183 32 C-183.495 31.01 -183.495 31.01 -184 30 C-186.26686967 29.26251889 -186.26686967 29.26251889 -189.03125 28.74609375 C-190.58972656 28.42415039 -190.58972656 28.42415039 -192.1796875 28.09570312 C-193.27539062 27.87849609 -194.37109375 27.66128906 -195.5 27.4375 C-196.56476563 27.21642578 -197.62953125 26.99535156 -198.7265625 26.76757812 C-219.80566385 22.48183946 -245.91759106 19.93407285 -263.8125 34.25 Z " fill="#F8F0ED" transform="translate(275,48)"/>
<path d="M0 0 C1.901863 0.91684393 3.76897958 1.90758867 5.60546875 2.94921875 C6.67216797 3.55056641 7.73886719 4.15191406 8.83789062 4.77148438 C10.49594727 5.71991211 10.49594727 5.71991211 12.1875 6.6875 C13.27353516 7.30044922 14.35957031 7.91339844 15.47851562 8.54492188 C24.88118026 13.87027488 34.1826882 19.27182778 43.0625 25.4375 C43.7544043 25.91703125 44.44630859 26.3965625 45.15917969 26.890625 C61.72722869 38.4392322 83.53217392 54.00121741 88 75 C89.26089375 83.50334446 86.68131447 89.92313015 82 97 C72.7818828 107.76413267 59.4768462 109.94159512 46 111 C32.18721022 111.44157059 18.15622178 108.9563376 4.75 105.8125 C-3.42401034 104.04146443 -7.94371507 106.07279183 -15.1875 109.75 C-17.06210054 110.67143852 -18.93839001 111.5894495 -20.81640625 112.50390625 C-22.15856201 113.15770264 -22.15856201 113.15770264 -23.52783203 113.82470703 C-35.47972973 119.50675676 -35.47972973 119.50675676 -40 118 C-32.9829243 114.77392918 -25.93085414 111.63821526 -18.8359375 108.58764648 C-14.13674343 106.55065932 -9.56586482 104.32102361 -5 102 C-6.09828125 101.70609375 -7.1965625 101.4121875 -8.328125 101.109375 C-34.10243982 94.05150528 -59.48182284 85.33755846 -84.30761719 75.46777344 C-88.67289769 73.73251382 -93.04331994 72.01050651 -97.4140625 70.2890625 C-103.12643325 68.03838912 -108.83724366 65.78386206 -114.54562378 63.52308655 C-134.78291404 55.51134475 -155.02246398 47.53453718 -175.65405273 40.58520508 C-177.17638475 40.07005691 -178.69691132 39.54954233 -180.21557617 39.02368164 C-202.9372829 30.6648038 -202.9372829 30.6648038 -226 33 C-232.59807493 37.48669095 -235.43009754 42.92832919 -237.25 50.625 C-240.69129756 70.96275857 -235.46337751 92.58250776 -223.89453125 109.5703125 C-213.72069064 122.61800088 -197.78981817 128.17167437 -181.82463074 130.31185913 C-180.85769791 130.42808624 -179.89076508 130.54431335 -178.89453125 130.6640625 C-177.8571431 130.79019928 -176.81975494 130.91633606 -175.75093079 131.04629517 C-164.39667784 132.32456482 -153.10130962 132.46355832 -141.6875 132.375 C-140.621828 132.37067963 -139.55615601 132.36635925 -138.45819092 132.36190796 C-122.12975162 132.28453718 -106.13649181 131.68555305 -90 129 C-88.87029785 128.81775879 -87.7405957 128.63551758 -86.57666016 128.44775391 C-74.33595215 126.4364804 -62.22284491 124.16995625 -50.37670898 120.43603516 C-46.78940057 119.33042697 -44.57866295 118.89714468 -41 120 C-59.10564744 126.25046356 -77.43758803 130.05929464 -96.3972168 132.64135742 C-98.46243311 132.92592761 -100.5232327 133.24252124 -102.58203125 133.5703125 C-107.27742937 134.16059112 -111.96078133 134.37311952 -116.6875 134.5625 C-117.72406738 134.6042334 -118.76063477 134.6459668 -119.82861328 134.68896484 C-132.55150493 135.15233759 -145.27107496 135.18689768 -158 135 C-158.87946289 134.98743164 -159.75892578 134.97486328 -160.66503906 134.96191406 C-179.43558592 134.58848459 -204.48039286 132.09837575 -219 119 C-219 118.34 -219 117.68 -219 117 C-219.66 117 -220.32 117 -221 117 C-234.91425325 103.46180765 -240.99057998 81.01471493 -241.25 62.25 C-241.16083844 51.75122591 -238.77603036 40.8845765 -231.25 33.1875 C-223.03554197 27.65853786 -216.74347744 27.56082752 -207 29 C-195.24760538 31.37238953 -183.94062274 34.75891208 -172.625 38.6875 C-171.82441162 38.96289612 -171.02382324 39.23829224 -170.19897461 39.52203369 C-151.33872245 46.02523519 -132.83595809 53.40981669 -114.33300781 60.85693359 C-106.50010611 64.00811536 -98.65229312 67.12153194 -90.80102539 70.22662354 C-88.47217841 71.14901053 -86.1451575 72.07587727 -83.81835938 73.00341797 C-74.59634837 76.66635251 -65.30790506 80.07063684 -55.93414307 83.3243103 C-53.07882355 84.32181148 -50.23518239 85.35118249 -47.390625 86.37890625 C-37.13656426 90.04602953 -26.89695153 93.53194201 -16.3125 96.125 C-15.04937988 96.44319702 -15.04937988 96.44319702 -13.76074219 96.76782227 C-8.1687977 98.05647505 -3.16882093 98.61029013 2.15234375 95.90625 C10.56353161 89.28036898 17.46128238 82.41382125 19.6875 71.6875 C21.74398232 47.4210086 10.02472127 28.18491441 -4.72265625 9.859375 C-6.84027849 7.14598717 -8.01386278 5.63768791 -7.9375 2.125 C-6.15618107 -1.91265625 -3.75702531 -1.02953869 0 0 Z M-6 1 C-5.50380157 5.69677477 -3.60203931 8.09533111 -0.625 11.6875 C7.98791922 22.45286001 16.38001097 34.5638444 20 48 C20.22042969 48.72832031 20.44085938 49.45664063 20.66796875 50.20703125 C23.91733182 62.3103635 22.26289904 73.20382417 16.4375 84.0625 C11.71436817 91.63600066 4.31670414 96.18637885 -3 101 C-3 101.33 -3 101.66 -3 102 C0.2675973 102.82588624 3.53955003 103.63311216 6.8125 104.4375 C7.72193359 104.66759766 8.63136719 104.89769531 9.56835938 105.13476562 C29.92600291 110.09829002 55.7079291 112.06533726 74.4921875 101.61328125 C80.18829512 97.80544374 84.03145506 92.97103427 85.6640625 86.27734375 C86.85461105 77.41826188 85.15317055 68.979475 80.34765625 61.390625 C78.64637558 59.17188697 76.86531264 57.08151934 75 55 C74.195625 53.96875 73.39125 52.9375 72.5625 51.875 C69.30593013 48.22128746 65.74069515 45.14614758 62 42 C61.07703125 41.20078125 60.1540625 40.4015625 59.203125 39.578125 C52.78595946 34.09194721 46.20938572 29.39894722 39 25 C37.547569 24.07591213 36.09721599 23.14855378 34.6484375 22.21875 C26.9472934 17.28386002 19.2162195 12.435337 11.25 7.9375 C10.61940674 7.57994629 9.98881348 7.22239258 9.33911133 6.85400391 C2.06166242 2.60189567 2.06166242 2.60189567 -6 1 Z " fill="#F9F1EF" transform="translate(258,167)"/>
<path d="M0 0 C0.99 0.99 0.99 0.99 2 2 C1.41847168 2.04487549 0.83694336 2.08975098 0.23779297 2.13598633 C-19.0668986 3.65248675 -38.29739835 5.2682604 -57.00732422 10.46728516 C-59.07030174 11.01879422 -61.14093852 11.50487741 -63.22265625 11.98046875 C-73.3341925 14.35587727 -82.96376616 17.71151964 -92.625 21.5 C-93.81061523 21.962854 -94.99623047 22.42570801 -96.21777344 22.90258789 C-102.75645486 25.51833838 -108.96013848 28.37096623 -115 32 C-115 32.33 -115 32.66 -115 33 C-113.02 33.33 -111.04 33.66 -109 34 C-112.45029042 36.30019361 -113.94554358 36.43132515 -118 36 C-118.66 35.01 -119.32 34.02 -120 33 C-122.49796631 32.12193715 -122.49796631 32.12193715 -125.4453125 31.61328125 C-126.52167969 31.39736328 -127.59804687 31.18144531 -128.70703125 30.95898438 C-129.83496094 30.74564453 -130.96289062 30.53230469 -132.125 30.3125 C-133.82849609 29.97508789 -133.82849609 29.97508789 -135.56640625 29.63085938 C-138.37561965 29.07609875 -141.18659271 28.53301004 -144 28 C-140.22782314 25.90091714 -138.26743979 25.98568354 -134 26.8125 C-132.453125 27.10060547 -132.453125 27.10060547 -130.875 27.39453125 C-128 28 -128 28 -126.125 28.57421875 C-118.74925418 30.05207958 -114.26721183 28.57424519 -107.875 25.125 C-76.59721587 9.33526067 -35.12515369 -1.98821625 0 0 Z " fill="#F4E7E3" transform="translate(211,46)"/>
<path d="M0 0 C-18.96461646 6.54699837 -38.15528398 10.28373729 -58 13 C-59.02552979 13.17869629 -60.05105957 13.35739258 -61.10766602 13.54150391 C-66.36393476 14.16066421 -71.55221713 14.1229389 -76.83984375 14.09765625 C-77.96193741 14.0962413 -79.08403107 14.09482635 -80.24012756 14.09336853 C-83.80594608 14.087794 -87.37170062 14.07524616 -90.9375 14.0625 C-93.3626293 14.05748171 -95.78775959 14.05291938 -98.21289062 14.04882812 C-104.14194872 14.03783291 -110.07096979 14.0211202 -116 14 C-116 13.67 -116 13.34 -116 13 C-114.39451294 12.97812622 -114.39451294 12.97812622 -112.7565918 12.95581055 C-77.94726939 12.44545236 -42.8634331 10.99110446 -9.37670898 0.43603516 C-5.78940057 -0.66957303 -3.57866295 -1.10285532 0 0 Z " fill="#F4E2DC" transform="translate(217,287)"/>
<path d="M0 0 C3.75943047 -0.20885725 5.69427759 0.33549893 9 2 C24.26249915 7.51864376 40.96113803 7.28210334 57 8 C57 8.33 57 8.66 57 9 C41.10438977 10.27800527 27.26615053 9.37527666 11.75 5.8125 C3.57598966 4.04146443 -0.94371507 6.07279183 -8.1875 9.75 C-10.06210054 10.67143852 -11.93839001 11.5894495 -13.81640625 12.50390625 C-14.71117676 12.93977051 -15.60594727 13.37563477 -16.52783203 13.82470703 C-28.47972973 19.50675676 -28.47972973 19.50675676 -33 18 C-26.63460904 15.07353848 -20.23894176 12.22658772 -13.8125 9.4375 C-8.4558322 7.10966101 -3.18260316 4.69927248 2 2 C1.34 1.34 0.68 0.68 0 0 Z " fill="#F7EDE9" transform="translate(251,267)"/>
<path d="M0 0 C0.66 0 1.32 0 2 0 C2.55547606 12.75537609 1.4471258 23.92760442 -7 34 C-11.69083052 38.46200952 -16.09494917 40.28598081 -22.5625 40.25 C-23.49191406 40.25515625 -24.42132813 40.2603125 -25.37890625 40.265625 C-28.0554462 39.99438101 -29.70438282 39.36116595 -32 38 C-30.91460937 37.97421875 -29.82921875 37.9484375 -28.7109375 37.921875 C-27.26558651 37.86556262 -25.82027556 37.808216 -24.375 37.75 C-23.66214844 37.73582031 -22.94929688 37.72164062 -22.21484375 37.70703125 C-17.04481623 37.46987402 -14.22996243 36.17564747 -10 33 C-9.34 33 -8.68 33 -8 33 C-7.33214099 31.6672635 -6.66574186 30.33379533 -6 29 C-5.67 28.36964844 -5.34 27.73929688 -5 27.08984375 C-1.0170673 18.51720344 -0.72539448 9.29650288 0 0 Z " fill="#FBF5F3" transform="translate(329,112)"/>
<path d="M0 0 C1.3921875 0.39832031 1.3921875 0.39832031 2.8125 0.8046875 C18.28785212 4.87249434 34.09231379 5.27945299 50 6 C50 6.33 50 6.66 50 7 C36.13340761 8.11487247 23.60510016 7.92926136 10 5 C8.98421875 4.82082031 7.9684375 4.64164062 6.921875 4.45703125 C4.4375 4 4.4375 4 1 3 C0.67 2.01 0.34 1.02 0 0 Z " fill="#F5DFD6" transform="translate(258,269)"/>
<path d="M0 0 C-2 2 -2 2 -4.75 2.8125 C-10.14600844 4.78411847 -13.53551495 7.71094408 -16.25 12.6875 C-18.35213429 17.26840097 -19.228266 22.04465539 -20 27 C-20.66 26.67 -21.32 26.34 -22 26 C-21.6001888 17.73723511 -19.53192941 9.83489069 -13.1875 4.0625 C-3.8974359 -1.94871795 -3.8974359 -1.94871795 0 0 Z " fill="#F3E8E4" transform="translate(40,196)"/>
<path d="M0 0 C-4.25764347 2.21069949 -8.68968777 3.96277198 -13.125 5.78125 C-17.9996628 7.50702934 -17.9996628 7.50702934 -21.0625 11.25 C-21.371875 12.1575 -21.68125 13.065 -22 14 C-22.98482022 16.00751815 -23.98152514 18.00934459 -25 20 C-25.66 19.67 -26.32 19.34 -27 19 C-25.8370779 13.12005682 -22.35521904 8.71562282 -17.5546875 5.21875 C-6.11540753 -1.74725929 -6.11540753 -1.74725929 0 0 Z " fill="#F7EBE7" transform="translate(31,73)"/>
<path d="M0 0 C0 0.66 0 1.32 0 2 C-1.64821091 3.10278126 -3.34610625 4.13166311 -5.0625 5.125 C-14.52309557 11.02724576 -18.90349955 17.73043206 -23 28 C-23.66 28 -24.32 28 -25 28 C-21.96605654 16.50295108 -15.21106183 9.3262901 -6 2 C-2.53416149 0 -2.53416149 0 0 0 Z " fill="#FAF5F4" transform="translate(93,80)"/>
<path d="M0 0 C4.20270103 3.68360257 6.82041579 8.20965914 9.6875 12.9375 C10.18572266 13.73607422 10.68394531 14.53464844 11.19726562 15.35742188 C11.67228516 16.13537109 12.14730469 16.91332031 12.63671875 17.71484375 C13.06686279 18.41730225 13.49700684 19.11976074 13.94018555 19.84350586 C15.10778457 22.21931838 15.58875164 24.39428708 16 27 C15.34 27.33 14.68 27.66 14 28 C13.50371094 26.97261719 13.00742187 25.94523437 12.49609375 24.88671875 C8.43782052 16.57730385 4.19737659 8.66613047 -1 1 C-0.67 0.67 -0.34 0.34 0 0 Z " fill="#F4E8E4" transform="translate(260,182)"/>
<path d="M0 0 C3.91472993 0.5903722 6.76165557 1.78659138 10.1875 3.75 C15.38081765 6.67124118 20.65058006 9.3775078 26 12 C22.51503893 13.17046624 22.01470074 13.00603948 18.3203125 11.48828125 C16.91557865 10.77529252 15.51727901 10.04951375 14.125 9.3125 C13.08279297 8.78366211 13.08279297 8.78366211 12.01953125 8.24414062 C7.81779979 6.07997197 3.83848423 3.76154273 0 1 C0 0.67 0 0.34 0 0 Z " fill="#FBF6F4" transform="translate(70,168)"/>
<path d="M0 0 C8.83009116 0.67923778 16.8425186 3.6743723 25 7 C25 7.33 25 7.66 25 8 C18.91121808 7.45339344 13.71354433 6.07141474 8 3.9375 C6.83791016 3.51500977 6.83791016 3.51500977 5.65234375 3.08398438 C3.76549033 2.39679702 1.88233849 1.69945987 0 1 C0 0.67 0 0.34 0 0 Z " fill="#FBF6F4" transform="translate(126,89)"/>
<path d="M0 0 C6.28573332 6.85716362 5.23750526 16.34425289 5 25 C4.67 25 4.34 25 4 25 C3.87882812 23.98679688 3.75765625 22.97359375 3.6328125 21.9296875 C3.46386217 20.5780849 3.29457331 19.22652458 3.125 17.875 C3.04636719 17.20984375 2.96773438 16.5446875 2.88671875 15.859375 C2.35425607 11.68159088 1.34064695 7.9768771 0 4 C0 2.68 0 1.36 0 0 Z " fill="#FDFAF9" transform="translate(275,209)"/>
<path d="M0 0 C5.92267387 3.2188445 11.77076745 6.72823256 17 11 C17 11.66 17 12.32 17 13 C13.2945541 11.22982411 9.77010282 9.17069345 6.25 7.0625 C5.64800781 6.71509766 5.04601562 6.36769531 4.42578125 6.00976562 C2.703125 4.97265625 2.703125 4.97265625 0 3 C0 2.01 0 1.02 0 0 Z " fill="#EEE2DE" transform="translate(289,185)"/>
<path d="M0 0 C2.62550296 0.97783539 5.25041505 1.9572063 7.875 2.9375 C8.62136719 3.21529297 9.36773437 3.49308594 10.13671875 3.77929688 C15.7734375 5.88671875 15.7734375 5.88671875 18 7 C18 7.66 18 8.32 18 9 C14.99353086 8.01872188 11.99606507 7.01255903 9 6 C8.2265625 5.74863281 7.453125 5.49726563 6.65625 5.23828125 C4.73790833 4.58145774 2.86372422 3.79873895 1 3 C0.67 2.01 0.34 1.02 0 0 Z " fill="#F4E3DE" transform="translate(105,213)"/>
<path d="M0 0 C0.33 0 0.66 0 1 0 C1.20177072 7.35342179 1.21211746 13.94887561 -1 21 C-1.66 20.67 -2.32 20.34 -3 20 C-2.85950482 18.52031676 -2.71245174 17.04125484 -2.5625 15.5625 C-2.48128906 14.73878906 -2.40007812 13.91507813 -2.31640625 13.06640625 C-2 11 -2 11 -1 10 C-0.76712992 8.31816052 -0.58735834 6.6287584 -0.4375 4.9375 C-0.31181641 3.55884766 -0.31181641 3.55884766 -0.18359375 2.15234375 C-0.12300781 1.44207031 -0.06242187 0.73179687 0 0 Z " fill="#F5DBD1" transform="translate(280,224)"/>
<path d="M0 0 C6.43255401 -0.12086218 12.61773055 0.17648136 19 1 C15.64339362 3.05829637 13.38095533 3.15515468 9.5 2.75 C8.5615625 2.66234375 7.623125 2.5746875 6.65625 2.484375 C4.08315158 2.01516293 2.25375263 1.29697085 0 0 Z " fill="#F1E2DC" transform="translate(73,298)"/>
<path d="M0 0 C3.59476701 3.49205938 6.92026191 7.04033675 10 11 C10 11.66 10 12.32 10 13 C9.34 13 8.68 13 8 13 C6.55473264 11.26451831 5.1912778 9.46024037 3.875 7.625 C3.15054688 6.62726563 2.42609375 5.62953125 1.6796875 4.6015625 C0 2 0 2 0 0 Z " fill="#F9F7F6" transform="translate(250,170)"/>
<path d="M0 0 C3.68646141 1.45855647 5.16143971 3.30229045 7.25 6.625 C8.03117187 7.85089844 8.03117187 7.85089844 8.828125 9.1015625 C9.21484375 9.72804688 9.6015625 10.35453125 10 11 C4.93311007 8.68915899 2.24537269 5.05208855 0 0 Z " fill="#FAF5F4" transform="translate(28,271)"/>
<path d="M0 0 C1.43931117 0.45261358 2.87638999 0.91232979 4.3125 1.375 C5.11300781 1.63023438 5.91351563 1.88546875 6.73828125 2.1484375 C9 3 9 3 12 5 C3.42857143 4.14285714 3.42857143 4.14285714 0 2 C0 1.34 0 0.68 0 0 Z " fill="#F0DCD7" transform="translate(139,92)"/>
<path d="M0 0 C-3.50538557 1.96301592 -7.13351728 2.95902388 -11 4 C-10 1 -10 1 -7.75 -0.25 C-4.71763271 -1.07700926 -2.98879276 -0.85394079 0 0 Z " fill="#F7E4DD" transform="translate(31,73)"/>
<path d="M0 0 C0 0.99 0 1.98 0 3 C-1.98 2.34 -3.96 1.68 -6 1 C-6.33 1.99 -6.66 2.98 -7 4 C-7 2.68 -7 1.36 -7 0 C-4.3333581 -1.33332095 -2.83319697 -0.67102033 0 0 Z " fill="#EFE3DF" transform="translate(258,167)"/>
<path d="M0 0 C3.63 0.66 7.26 1.32 11 2 C7.5647952 4.29013653 6.014669 4.17842973 2 4 C1.34 2.68 0.68 1.36 0 0 Z " fill="#E3C5BC" transform="translate(91,78)"/>
<path d="M0 0 C1.15224028 0.92961422 2.29659176 1.8690125 3.4375 2.8125 C4.07558594 3.33457031 4.71367187 3.85664063 5.37109375 4.39453125 C7 6 7 6 8 9 C4.20620942 7.50958227 2.31656242 5.30937488 0 2 C0 1.34 0 0.68 0 0 Z " fill="#FBF7F6" transform="translate(327,214)"/>
<path d="M0 0 C2.66735273 2.48952921 4.55746343 4.63408134 6 8 C5.01 8 4.02 8 3 8 C1.02 4.535 1.02 4.535 -1 1 C-0.67 0.67 -0.34 0.34 0 0 Z " fill="#E1DAD9" transform="translate(260,182)"/>
<path d="M0 0 C-2.76223278 2.76223278 -5.20706617 2.57856291 -9 3 C-9.33 2.34 -9.66 1.68 -10 1 C-6.52674819 -0.1577506 -3.63932552 -0.06866652 0 0 Z " fill="#F8ECE6" transform="translate(325,273)"/>
<path d="M0 0 C2.88437779 1.29299694 4.87219421 2.65941363 7 5 C6.67 5.99 6.34 6.98 6 8 C1.125 3.375 1.125 3.375 0 0 Z " fill="#F0E5E0" transform="translate(320,208)"/>
</svg>
